#N canvas 457 23 903 542 10;
#X obj 170 397 vco;
#X obj 574 58 tgl 15 0 empty empty print_all_messages 17 7 0 10 -262144
-1 -1 0 1;
#X obj 469 57 tgl 15 0 empty empty listen 17 7 0 10 -262144 -1 -1 1
1;
#N canvas 0 23 417 316 oscreceive 0;
#X obj 110 133 oscparse;
#X obj 110 162 list trim;
#X obj 130 235 spigot;
#X obj 110 287 outlet;
#X obj 163 201 inlet;
#X obj 130 261 print OSC;
#X msg 110 71 listen 0;
#X obj 110 45 sel 0;
#X obj 110 106 netreceive -u -b;
#X obj 110 16 inlet;
#X msg 175 72 listen 8888;
#X connect 0 0 1 0;
#X connect 1 0 2 0;
#X connect 1 0 3 0;
#X connect 2 0 5 0;
#X connect 4 0 2 1;
#X connect 6 0 8 0;
#X connect 7 0 6 0;
#X connect 7 1 10 0;
#X connect 8 0 0 0;
#X connect 9 0 7 0;
#X connect 10 0 8 0;
#X coords 0 316 1 315 140 40 0;
#X restore 469 87 pd oscreceive 8888;
#X obj 463 25 loadbang;
#X obj 196 160 route cursor;
#X obj 197 186 route 2;
#X obj 198 243 unpack s f f f f f f f s;
#X text 110 187 which cursor?;
#X floatatom 154 294 5 0 0 0 - - -, f 5;
#X floatatom 193 325 5 0 0 0 - - -, f 5;
#X floatatom 237 309 5 0 0 0 - - -, f 5;
#X floatatom 272 309 5 0 0 0 - - -, f 5;
#X floatatom 312 309 5 0 0 0 - - -, f 5;
#X floatatom 348 309 5 0 0 0 - - -, f 5;
#X floatatom 387 309 5 0 0 0 - - -, f 5;
#X obj 171 362 sig~;
#X obj 431 813 dac~;
#X text 61 289 x (horizontal);
#X text 112 325 y (vertical);
#X obj 432 600 mixer;
#X obj 629 371 vco;
#X obj 657 217 unpack s f f f f f f f s;
#X text 569 161 which cursor?;
#X floatatom 613 268 5 0 0 0 - - -, f 5;
#X floatatom 652 299 5 0 0 0 - - -, f 5;
#X floatatom 696 283 5 0 0 0 - - -, f 5;
#X floatatom 731 283 5 0 0 0 - - -, f 5;
#X floatatom 771 283 5 0 0 0 - - -, f 5;
#X floatatom 807 283 5 0 0 0 - - -, f 5;
#X floatatom 846 283 5 0 0 0 - - -, f 5;
#X obj 630 336 sig~;
#X text 520 263 x (horizontal);
#X text 571 299 y (vertical);
#X obj 656 160 route 4;
#X connect 0 0 20 0;
#X connect 1 0 3 1;
#X connect 2 0 3 0;
#X connect 3 0 5 0;
#X connect 4 0 2 0;
#X connect 5 0 6 0;
#X connect 5 0 34 0;
#X connect 6 0 7 0;
#X connect 7 1 9 0;
#X connect 7 2 10 0;
#X connect 7 3 11 0;
#X connect 7 4 12 0;
#X connect 7 5 13 0;
#X connect 7 6 14 0;
#X connect 7 7 15 0;
#X connect 10 0 16 0;
#X connect 16 0 0 0;
#X connect 20 0 17 0;
#X connect 20 0 17 1;
#X connect 21 0 20 2;
#X connect 22 1 24 0;
#X connect 22 2 25 0;
#X connect 22 3 26 0;
#X connect 22 4 27 0;
#X connect 22 5 28 0;
#X connect 22 6 29 0;
#X connect 22 7 30 0;
#X connect 25 0 31 0;
#X connect 31 0 21 0;
#X connect 34 0 22 0;
