#N canvas 4 4 1912 1027 10;
#X obj 916 1024 dac~;
#X obj 803 470 mixer;
#X obj 711 14 vco;
#X obj 943 14 vco;
#X obj 943 231 vca;
#X obj 711 231 vca;
#X obj 1112 14 vco;
#X obj 1112 231 vca;
#X obj 1264 14 vco;
#X obj 1264 231 vca;
#X obj 252 1 clock;
#X obj 710 410 osc~ 65.4075;
#X obj 841 283 osc~ 130.815;
#X obj 973 400 osc~ 523.25;
#X obj 1087 401 osc~ 392.44;
#X obj 332 354 osc~ 1308.12;
#X obj 417 353 osc~ 1395.32;
#X obj 169 180 divider;
#X text 342 328 E;
#X text 424 330 F;
#X text 512 325 G;
#X obj 511 352 osc~ 1569.75;
#X text 603 323 D;
#X obj 602 350 osc~ 1177.32;
#X obj 317 461 random_switch;
#X obj 205 616 slope;
#X obj 420 616 vca;
#X obj 383 789 mixer;
#X obj 1186 726 mixer;
#X obj 1322 661 osc~ 588.66;
#X obj 1427 14 vco;
#X obj 1426 236 vca;
#X text 1329 639 D;
#X obj 1165 667 osc~ 436.05;
#X obj 1579 14 vco;
#X obj 1579 231 vca;
#X text 1171 645 A;
#X obj 624 403 osc~ 981.1;
#X text 633 377 B;
#X obj 590 274 osc~ 654.06;
#X text 593 252 E;
#X obj 1728 206 random_midi3;
#X obj 1738 61 random_gates;
#X obj 1307 452 vca;
#X obj 1731 510 slope;
#X obj 1655 755 random_midi3;
#X obj 1942 586 random_gates;
#X obj 1452 753 slope;
#X obj 1535 455 vca;
#X obj 568 568 noise~;
#X obj 573 598 vca;
#X obj 709 676 probability;
#X obj 718 800 slope;
#X connect 1 0 0 0;
#X connect 1 0 0 1;
#X connect 2 0 5 0;
#X connect 3 0 4 0;
#X connect 4 0 1 3;
#X connect 5 0 1 1;
#X connect 6 0 7 0;
#X connect 7 0 1 5;
#X connect 8 0 9 0;
#X connect 9 0 1 7;
#X connect 10 0 17 0;
#X connect 11 0 1 0;
#X connect 12 0 1 2;
#X connect 13 0 1 4;
#X connect 14 0 1 6;
#X connect 15 0 24 2;
#X connect 16 0 24 3;
#X connect 17 2 51 0;
#X connect 17 3 24 0;
#X connect 17 3 25 0;
#X connect 23 0 24 5;
#X connect 24 0 26 0;
#X connect 25 0 26 1;
#X connect 26 0 27 0;
#X connect 27 0 0 0;
#X connect 27 0 0 1;
#X connect 28 0 0 0;
#X connect 28 0 0 1;
#X connect 29 0 28 2;
#X connect 30 0 31 0;
#X connect 31 0 43 0;
#X connect 33 0 28 0;
#X connect 34 0 35 0;
#X connect 35 0 48 0;
#X connect 37 0 24 7;
#X connect 39 0 24 6;
#X connect 41 0 44 0;
#X connect 42 0 41 0;
#X connect 42 0 45 1;
#X connect 43 0 28 1;
#X connect 44 0 43 1;
#X connect 45 0 47 0;
#X connect 46 0 45 0;
#X connect 46 0 41 1;
#X connect 47 0 48 1;
#X connect 48 0 28 3;
#X connect 49 0 50 0;
#X connect 50 0 27 6;
#X connect 51 0 52 0;
#X connect 52 0 50 1;
