#N canvas 4 4 1912 1027 10;
#X obj 1845 1306 dac~;
#X obj 995 512 mixer;
#X obj 1330 -191 attenuvert;
#X obj 406 -756 vca;
#X obj 381 -971 vco;
#X obj 407 -597 vco;
#X obj 320 -124 cubic-soft-clip;
#X obj 434 145 vca;
#X obj 1439 -960 vco;
#X obj 584 -293 random_midi3;
#X obj 589 -323 r~ \$0-clock;
#X obj 1143 -301 random_gates;
#X obj 1016 -297 random_gates;
#X obj 535 137 comparator;
#X obj 533 362 slope;
#X obj 1174 -142 gate2trigger;
#X obj 585 105 sig~ 0.2;
#X obj 537 250 gate2trigger;
#X obj 446 -94 vco;
#X obj 688 39 comparator;
#X obj 697 158 gate2trigger;
#X obj 696 267 slope;
#X obj 684 1 sig~ 0.3;
#X obj 1323 170 slope;
#X obj 1213 399 vca;
#X obj 1118 463 noise;
#X obj 1330 -8 vca;
#X obj 1330 -269 rancv;
#X obj 1330 -298 r~ \$0-clock;
#X obj 1237 564 vca;
#X obj 1311 482 rancv;
#X obj 1313 464 r~ \$0-clock;
#X obj 1173 -167 r~ \$0-clock;
#X obj 877 219 vco;
#X obj 881 447 vca;
#X obj 873 8 vco;
#X obj 1030 82 rancv;
#X obj 1030 59 r~ \$0-clock;
#X obj 1030 158 gate2trigger;
#X obj 1027 263 slope;
#X obj 1022 -43 rancv;
#X obj 1019 -169 random_gates;
#X obj 1183 160 rancv;
#X obj 1168 17 random_gates;
#X obj 1192 267 comparator;
#X obj 1360 377 seq_switch;
#X obj 1263 234 sig~ 0.3;
#X obj 1592 486 mixer;
#X obj 1781 -284 seq2;
#X obj 1795 -315 r~ \$0-clock;
#X obj 1793 -64 vco;
#X obj 1661 -264 rancv;
#X obj 1661 -287 r~ \$0-clock;
#X obj 1661 -188 gate2trigger;
#X obj 1629 -60 slope;
#X obj 1591 256 vca;
#X obj 1487 -63 vco;
#X obj 1499 181 vca;
#X obj 1593 154 seq_switch;
#X obj 1834 480 reverb;
#X obj 1692 252 vca;
#X msg 1949 69 \; pd dsp 1;
#X msg 1951 101 \; pd dsp 0;
#X obj 1927 -84 random_gates;
#X obj 2081 296 vco;
#X obj 2086 637 vca;
#X obj 2085 220 rancv;
#X obj 1814 148 divider;
#X obj 1827 381 seq_switch;
#X obj 1813 262 divider;
#X obj 2057 -8 random_gates;
#X obj 2072 128 rancv;
#X obj 709 514 comparator;
#X obj 808 493 sig~ 0.42;
#X obj 768 768 random_switch;
#X obj 332 1020 mission_control;
#X obj 576 930 r~ \$0-clock;
#X obj 1766 398 adc~;
#X obj 440 742 r~ \$0-clock;
#X obj 340 769 probability;
#X obj 1151 -722 divider;
#X obj 1434 -545 random_switch;
#X obj 1841 -716 probability;
#X obj 456 879 r~ \$0-clock;
#X obj 356 906 probability;
#X obj 1866 802 mixer;
#X obj 1239 938 grains;
#X obj 1233 816 rancv;
#X obj 1356 641 r~ \$0-clock;
#X obj 1347 670 divider;
#X obj 1351 821 rancv;
#X msg 2062 1061 \; pd dsp 1;
#X obj 1523 1068 vca;
#X obj 1467 822 rancv;
#X obj 1605 1249 seq_switch;
#X obj 1655 983 probability;
#X obj 966 962 delayy;
#X obj 809 894 rancv;
#X obj 998 857 rancv;
#X obj 1106 859 rancv;
#X msg 2064 1109 \; pd dsp 0;
#X obj 805 966 amp;
#X obj 1093 1384 seq_switch;
#X obj 1150 1154 probability;
#X obj 1009 1183 vca;
#X obj 1148 945 amp;
#X obj 1420 1273 hip~;
#X obj 845 1196 vca;
#X obj 586 1304 seq_switch;
#X obj 579 1163 probability;
#X obj 598 1129 r~ \$0-clock;
#X obj 640 1269 sig~ 0.6;
#X msg 927 -563 \; pd dsp 1;
#X msg 935 -512 \; pd dsp 0;
#X obj 344 -275 seq_switch;
#X obj 856 -972 r~ \$0-clock;
#X obj 261 -584 random_gates;
#X obj 576 -743 vca;
#X obj 551 -958 vco;
#X obj 563 -578 vco;
#X obj 749 -822 dual_vco;
#X obj 866 -929 rancv;
#X obj 289 -457 random_gates;
#X obj 1621 737 rancv;
#X obj 1445 515 random_gates;
#X obj 1930 1287 vca;
#X obj 2007 1288 vca;
#X obj 1510 887 attenuvert;
#X obj 1462 -301 s~ \$0-clock;
#X obj 1873 -565 clock;
#X obj 1166 -524 probability;
#X obj 1443 -393 random_switch;
#X obj 2081 536 seq_switch;
#X obj 1516 1251 lop~ 5000;
#X msg 1448 1230 500;
#X connect 1 0 74 2;
#X connect 1 0 74 3;
#X connect 1 0 74 4;
#X connect 1 0 74 5;
#X connect 1 0 74 6;
#X connect 2 0 26 0;
#X connect 3 0 5 0;
#X connect 4 0 3 0;
#X connect 5 3 114 2;
#X connect 6 0 7 0;
#X connect 7 0 1 0;
#X connect 8 2 80 0;
#X connect 8 2 82 0;
#X connect 8 2 81 2;
#X connect 8 2 81 3;
#X connect 8 2 81 4;
#X connect 8 2 81 5;
#X connect 8 2 81 6;
#X connect 9 0 13 0;
#X connect 9 0 19 1;
#X connect 9 0 72 0;
#X connect 10 0 9 0;
#X connect 11 0 9 2;
#X connect 12 0 9 1;
#X connect 13 0 17 0;
#X connect 14 0 1 1;
#X connect 15 0 23 0;
#X connect 16 0 13 1;
#X connect 17 0 14 0;
#X connect 18 0 1 2;
#X connect 19 0 20 0;
#X connect 20 0 21 0;
#X connect 21 0 1 3;
#X connect 22 0 19 0;
#X connect 23 0 24 0;
#X connect 24 0 29 0;
#X connect 25 0 1 6;
#X connect 26 0 23 2;
#X connect 27 0 2 0;
#X connect 28 0 27 0;
#X connect 29 0 1 7;
#X connect 30 0 29 1;
#X connect 31 0 30 0;
#X connect 32 0 15 0;
#X connect 33 0 34 0;
#X connect 34 0 45 2;
#X connect 35 0 56 0;
#X connect 35 1 33 0;
#X connect 36 0 38 0;
#X connect 37 0 36 0;
#X connect 38 0 39 0;
#X connect 39 0 1 5;
#X connect 40 0 35 0;
#X connect 41 0 40 0;
#X connect 42 0 44 0;
#X connect 43 0 42 0;
#X connect 44 0 45 0;
#X connect 44 0 58 0;
#X connect 45 0 1 4;
#X connect 46 0 44 1;
#X connect 47 0 60 0;
#X connect 47 0 85 0;
#X connect 47 0 86 0;
#X connect 47 0 96 0;
#X connect 48 0 50 0;
#X connect 48 1 66 0;
#X connect 48 1 67 0;
#X connect 49 0 48 0;
#X connect 50 0 58 2;
#X connect 50 1 58 4;
#X connect 50 2 58 3;
#X connect 50 3 58 5;
#X connect 51 0 53 0;
#X connect 52 0 51 0;
#X connect 53 0 54 0;
#X connect 54 0 47 3;
#X connect 55 0 47 2;
#X connect 56 3 57 0;
#X connect 57 0 45 4;
#X connect 58 0 55 0;
#X connect 59 0 125 0;
#X connect 59 1 126 0;
#X connect 60 0 59 0;
#X connect 63 0 48 2;
#X connect 64 0 132 2;
#X connect 64 1 132 3;
#X connect 64 3 132 4;
#X connect 64 3 132 5;
#X connect 65 0 68 2;
#X connect 66 0 64 0;
#X connect 67 2 71 0;
#X connect 67 3 69 0;
#X connect 68 0 47 4;
#X connect 69 1 68 0;
#X connect 69 3 132 0;
#X connect 70 0 59 2;
#X connect 72 0 74 0;
#X connect 73 0 72 1;
#X connect 74 0 47 0;
#X connect 76 0 75 5;
#X connect 77 0 47 6;
#X connect 78 0 79 0;
#X connect 79 0 75 0;
#X connect 80 0 81 7;
#X connect 80 0 81 8;
#X connect 80 0 130 0;
#X connect 80 1 81 9;
#X connect 81 0 131 2;
#X connect 81 0 131 3;
#X connect 81 0 131 4;
#X connect 81 0 131 5;
#X connect 81 0 131 6;
#X connect 81 0 131 7;
#X connect 81 0 131 8;
#X connect 82 0 81 0;
#X connect 83 0 84 0;
#X connect 84 0 75 1;
#X connect 85 0 0 0;
#X connect 85 0 0 1;
#X connect 86 0 92 0;
#X connect 86 0 107 0;
#X connect 87 0 86 1;
#X connect 88 0 89 0;
#X connect 89 1 87 0;
#X connect 89 1 97 0;
#X connect 89 2 90 0;
#X connect 89 2 103 0;
#X connect 89 3 93 0;
#X connect 89 3 95 0;
#X connect 89 3 99 0;
#X connect 89 3 123 0;
#X connect 89 3 98 0;
#X connect 90 0 86 2;
#X connect 92 0 94 2;
#X connect 92 0 94 4;
#X connect 93 0 127 0;
#X connect 94 0 85 2;
#X connect 95 0 94 0;
#X connect 96 0 104 0;
#X connect 97 0 101 0;
#X connect 98 0 96 4;
#X connect 99 0 105 0;
#X connect 101 0 96 1;
#X connect 102 0 106 0;
#X connect 103 0 102 0;
#X connect 104 0 102 2;
#X connect 104 0 102 4;
#X connect 106 0 133 0;
#X connect 107 0 96 0;
#X connect 109 0 108 0;
#X connect 110 0 109 0;
#X connect 111 0 108 2;
#X connect 111 0 108 3;
#X connect 114 0 6 0;
#X connect 115 0 121 0;
#X connect 116 0 114 0;
#X connect 117 0 119 0;
#X connect 118 1 117 0;
#X connect 119 0 114 3;
#X connect 120 0 114 4;
#X connect 120 0 114 5;
#X connect 121 0 120 1;
#X connect 122 0 114 1;
#X connect 123 0 59 1;
#X connect 124 0 89 1;
#X connect 125 0 0 0;
#X connect 126 0 0 1;
#X connect 127 0 92 1;
#X connect 129 0 131 9;
#X connect 130 0 131 0;
#X connect 131 0 128 0;
#X connect 132 0 65 0;
#X connect 133 0 85 4;
#X connect 134 0 106 1;
