#N canvas 0 22 1440 792 10;
#X obj 700 791 delayy;
#X obj 1034 445 scope;
#X obj 972 213 comparator;
#X obj 330 449 lpg;
#X obj 869 791 grains;
#X obj 768 547 gate2trigger;
#X obj 719 110 midi2cv;
#X obj 962 -171 fold;
#X obj 15 -174 dual_vco;
#X obj 1079 -171 cubic-soft-clip;
#X obj 834 111 learn_midi;
#X obj 447 449 mixer;
#X obj 328 -180 karplus;
#X obj 243 450 vca;
#X obj -136 37 sampler1;
#X obj 763 446 manual_gate;
#X obj 176 69 wavetable;
#X obj 837 204 midirealtimein;
#X obj 552 2041 dac~;
#X obj -134 924 gate_seq;
#X obj -125 440 slope;
#X obj -131 -174 vco;
#X obj 1083 104 divider;
#X obj 1080 215 probability;
#X obj -128 710 seq2;
#X obj 879 547 attenuvert;
#X obj 693 445 clock;
#X obj 851 444 button;
#X text -131 -197 SOUND SOURCES;
#X text -128 419 ENVELOPE;
#X text 960 -193 WAVESHAPING;
#X text -129 688 SEQUENCING;
#X text 729 86 MIDI;
#X text 693 417 UTILITY;
#X text 699 768 EFFECTS;
#X obj 974 105 flipflop;
#X text 976 82 LOGIC;
#X text 240 415 VCA/MIXING/etc;
#X obj 812 1124 reverb;
#X obj 633 1668 dac~;
#X obj 420 1067 vco;
#X obj 327 642 clock;
#X obj 517 819 vco;
#X obj 694 1057 noise~;
#X connect 4 0 38 0;
#X connect 38 0 39 0;
#X connect 38 1 39 1;
#X connect 40 0 4 0;
#X connect 41 0 24 0;
#X connect 41 0 19 0;
