#N canvas 229 22 1912 1027 10;
#X obj 1080 413 scope;
#X obj 968 182 comparator;
#X obj 607 165 lpg;
#X obj -131 749 grains;
#X obj -131 446 delayy;
#X obj 407 185 slope;
#X obj 902 464 gate2trigger;
#X obj 165 1097 midi2cv;
#X obj 377 456 fold;
#X obj -37 180 mixer;
#X obj 1439 -218 dual_vco;
#X obj 488 454 cubic-soft-clip;
#X obj -123 1100 learn_midi;
#X obj 821 -218 karplus;
#X obj -133 186 vca;
#X obj 498 -215 sampler1;
#X obj 1089 205 clock;
#X obj 905 582 manual_gate;
#X obj 1760 -206 wavetable;
#X obj 877 725 gate_seq;
#X obj 2456 800 vco;
#X obj 752 181 divider;
#X obj 157 -217 beatmangle;
#X obj -140 -204 vco;
#X obj 769 465 rancv;
#X obj 76 412 reverb;
#X obj -9 1099 cv2midi;
#X obj 180 177 attenuvert;
#X obj -2 -203 vco2;
#X obj 445 955 random_midi3;
#X obj 769 547 random_gates;
#X obj -123 1006 r_osc;
#X text -131 159 VCA/MIXING;
#X text -118 418 EFFECTS;
#X text 390 423 WAVESHAPING;
#X text 418 152 ENVELOPES;
#X text 753 151 LOGIC;
#X text -137 -230 OSCILLATORS/SAMPLERS/SOUND SOURCES;
#X text 447 702 SEQUENCING;
#X text 770 431 MISC/UTILITY;
#X obj 448 729 seq2;
#X obj 969 295 flipflop;
#X obj -124 1181 mission_control;
#X text -120 983 MIDI/OSC/HARDWARE;
#X obj 752 296 probability;
#X obj 1184 204 seq_switch;
#X obj -129 9 noise;
#X connect 16 0 29 0;
#X connect 31 7 29 0;
