#N canvas 961 4 955 1027 10;
#X obj 102 115 cnv 15 57 104 empty empty empty 20 12 0 14 -258113 -66577
0;
#X obj 232 46 inlet~;
#X obj 211 389 outlet~;
#X obj 114 134 vsl 30 76 0 5 0 0 empty empty empty 0 -9 0 10 -262144
-1 -1 850 1;
#X obj 236 157 *~;
#X obj 290 246 +;
#X text 113 114 # AMP;
#X text 104 219 out;
#X text 101 101 in;
#X obj 326 161 snapshot~;
#X obj 340 109 tgl 15 0 empty empty empty 17 7 0 10 -262144 -1 -1 1
1;
#X obj 340 85 loadbang;
#X obj 340 137 metro 1;
#X obj 326 45 inlet~ cv, f 8;
#X obj 325 189 * 3;
#X floatatom 282 293 5 0 0 0 - - -, f 5;
#X text 143 100 cv;
#X connect 1 0 4 0;
#X connect 3 0 5 1;
#X connect 4 0 2 0;
#X connect 5 0 4 1;
#X connect 5 0 15 0;
#X connect 9 0 14 0;
#X connect 10 0 12 0;
#X connect 11 0 10 0;
#X connect 12 0 9 0;
#X connect 13 0 9 0;
#X connect 14 0 5 0;
#X coords 0 -1 1 1 60 137 2 100 100;
