#N canvas 553 125 479 602 10;
#X obj 280 7 cnv 15 160 50 empty empty empty 20 12 0 14 -262130 -66577
0;
#X obj 40 231 cnv 15 400 160 empty empty empty 20 12 0 14 -203904 -66577
0;
#X obj 40 406 cnv 15 400 160 empty empty empty 20 12 0 14 -232576 -66577
0;
#X floatatom 70 189 5 0 0 0 - - -;
#X obj 70 80 tgl 15 0 empty empty empty 17 7 0 10 -262144 -1 -1 0 1
;
#X floatatom 166 189 5 0 0 0 - - -;
#X obj 166 116 tgl 15 0 empty empty empty 17 7 0 10 -262144 -1 -1 0
1;
#X floatatom 285 189 5 0 0 0 - - -;
#X obj 285 116 tgl 15 0 empty empty empty 17 7 0 10 -262144 -1 -1 0
1;
#X text 293 30 Ben Baker-Smith - 2010;
#X obj 70 142 bb_learn 1;
#X text 96 244 creation args: <id> <ctl/note> (ctl default);
#X text 151 418 inlet: learn off/on (0/1);
#X msg 124 16 save;
#X msg 124 38 load;
#X msg 85 439 save;
#X msg 85 462 load;
#X text 121 461 loads a previously saved midi assignment file;
#X text 121 439 saves learned midi assignments in text file;
#X text 58 276 The id creation arg is used to identify which midi channel
/ control number corresponds with which bb_learn object - for the purposes
of saving and loading assignment files;
#X text 57 332 The optional ctl/note arg specifies if the object will
listen for control or note midi signals (control is the default);
#X text 171 541 outlet: midi value;
#X text 63 489 (save/load messages can be sent to any bb_learn object
and will save/load the midi assignments for ALL bb_learn objects);
#X text 311 114 <-- learn mode on/off;
#X msg 124 62 save /path/to/saved/file;
#X msg 124 85 load /path/to/saved/file;
#X text 161 16 <-- open dialog;
#X text 161 38 <-- open dialog;
#X text 281 61 <-- save to specified file;
#X text 281 84 <-- load specified file;
#X obj 166 142 bb_learn 2 ctl;
#X obj 285 142 bb_learn 3 note;
#X text 323 13 bb_learn v1.1;
#X text 38 575 v1.1 update: now works with Pd-Vanilla;
#X connect 4 0 10 0;
#X connect 6 0 30 0;
#X connect 8 0 31 0;
#X connect 10 0 3 0;
#X connect 13 0 10 0;
#X connect 14 0 10 0;
#X connect 24 0 10 0;
#X connect 25 0 10 0;
#X connect 30 0 5 0;
#X connect 31 0 7 0;
