#N canvas 969 108 478 607 10;
#X obj 115 121 bng 60 200 50 0 empty empty empty 17 7 0 10 -1 -258113
-191407;
#X text 111 103 ##BUTTON##;
#X obj 138 470 outlet~;
#X obj 42 219 sig~ 1;
#X msg 149 309 1;
#X msg 221 312 0;
#X obj 122 379 *~;
#X obj 212 223 bng 15 250 50 0 empty empty empty 17 7 0 10 -262144
-1 -1;
#X floatatom 201 378 5 0 0 0 - - -, f 5;
#X obj 243 281 del 100;
#X connect 0 0 7 0;
#X connect 3 0 6 0;
#X connect 4 0 8 0;
#X connect 4 0 6 1;
#X connect 5 0 8 0;
#X connect 5 0 6 1;
#X connect 6 0 2 0;
#X connect 7 0 4 0;
#X connect 7 0 9 0;
#X connect 9 0 5 0;
#X coords 0 -1 1 1 90 90 2 100 100;
