#N canvas 700 104 955 1027 10;
#X obj 408 120 outlet~ out;
#X text 441 36 comparator;
#X obj 406 10 expr~ $v1 > $v2;
#X obj 398 41 *~ 2;
#X obj 404 77 -~ 1;
#X obj 400 -123 inlet~ in1;
#X obj 525 -125 inlet~ in2;
#X obj 100 112 cnv 15 100 80 empty empty empty 20 12 0 14 -257985 -66577
0;
#X obj 208 -39 snapshot~;
#X floatatom 223 1 5 0 0 0 - - -, f 5;
#X obj 210 -100 tgl 15 0 empty empty empty 17 7 0 10 -262144 -1 -1
1 1;
#X obj 202 -150 loadbang;
#X obj 139 149 bng 15 100 10 0 empty empty empty 17 7 0 10 -99865 -258113
-258113;
#X obj 223 84 spigot;
#X text 100 120 ## COMPARATOR ##;
#X text 102 100 in 1;
#X text 165 100 in 2;
#X text 101 184 out;
#X obj 203 -72 metro 1;
#X connect 2 0 3 0;
#X connect 3 0 4 0;
#X connect 3 0 8 0;
#X connect 4 0 0 0;
#X connect 5 0 2 0;
#X connect 6 0 2 1;
#X connect 8 0 9 0;
#X connect 9 0 13 1;
#X connect 9 0 13 0;
#X connect 10 0 18 0;
#X connect 11 0 10 0;
#X connect 13 0 12 0;
#X connect 18 0 8 0;
#X coords 0 -1 1 1 100 100 2 100 100;
