#N canvas 149 101 1061 613 10;
#X obj 376 188 *~;
#X obj 354 235 *~;
#X obj 354 266 *~ 0;
#X obj 404 266 *~ 0;
#X obj 454 266 *~ 0;
#X obj 670 86 loadbang;
#X obj 671 108 1;
#X obj 508 266 sig~;
#X obj 355 104 clip~ -1 1;
#X obj 492 167 cnv 15 185 45 empty empty empty 20 12 0 14 -261234 -66577
0;
#X floatatom 530 190 5 0 0 0 - - -, f 5;
#X floatatom 565 190 5 0 0 0 - - -, f 5;
#X floatatom 600 190 5 0 0 0 - - -, f 5;
#X floatatom 634 190 5 0 0 0 - - -, f 5;
#X text 498 169 f(x) = ax^3 + bx^2 + cx + d;
#X obj 603 229 * -1;
#X obj 542 128 unpack f f f f;
#X obj 337 335 +~ 0;
#X obj 344 43 inlet~ in;
#X obj 102 114 cnv 15 100 180 empty empty empty 20 12 0 14 -260097
-66577 0;
#X text 43 464 patch by pulsed found here: http://forum.pdpatchrepo.info/topic/2305/cubic-soft-clip-pd-distortion-pd
;
#X obj 216 409 outlet~ out;
#X text 100 100 in;
#X text 103 285 out;
#X obj 132 147 vsl 30 128 0 20 0 0 empty empty empty 0 -9 0 10 -262144
-1 -1 0 1;
#X obj 395 391 clip~ -1 1;
#X obj 768 23 inlet~ cv;
#X text 179 101 cv;
#X obj 851 245 snapshot~;
#X obj 851 202 metro 2;
#X obj 857 174 tgl 15 0 empty empty empty 17 7 0 10 -262144 -1 -1 1
1;
#X obj 850 124 loadbang;
#X floatatom 847 286 5 0 0 0 - - -, f 5;
#X floatatom 795 370 5 0 0 0 - - -, f 5;
#X obj 545 3 +;
#X floatatom 542 47 5 0 0 0 - - -, f 5;
#X text 104 118 CUBIC SOFT CLIP;
#X obj 797 317 * 3;
#X connect 0 0 1 1;
#X connect 0 0 3 0;
#X connect 1 0 2 0;
#X connect 2 0 17 0;
#X connect 3 0 17 0;
#X connect 4 0 17 0;
#X connect 5 0 6 0;
#X connect 6 0 12 0;
#X connect 7 0 17 0;
#X connect 8 0 0 0;
#X connect 8 0 0 1;
#X connect 8 0 1 0;
#X connect 8 0 4 0;
#X connect 10 0 2 1;
#X connect 11 0 3 1;
#X connect 11 0 15 0;
#X connect 12 0 4 1;
#X connect 13 0 7 0;
#X connect 15 0 13 0;
#X connect 16 0 10 0;
#X connect 16 1 11 0;
#X connect 16 2 12 0;
#X connect 16 3 13 0;
#X connect 17 0 25 0;
#X connect 18 0 8 0;
#X connect 24 0 34 1;
#X connect 25 0 21 0;
#X connect 26 0 28 0;
#X connect 28 0 32 0;
#X connect 29 0 28 0;
#X connect 30 0 29 0;
#X connect 31 0 30 0;
#X connect 32 0 37 0;
#X connect 34 0 35 0;
#X connect 35 0 16 0;
#X connect 37 0 33 0;
#X connect 37 0 34 0;
#X coords 0 -1 1 1 100 200 2 100 100;
