#N canvas 718 283 450 300 10;
#X obj 140 106 snapshot~;
#X obj 170 78 metro 3;
#X obj 170 54 tgl 15 0 empty empty empty 17 7 0 10 -262144 -1 -1 0
1;
#X obj 170 30 loadbang;
#X obj 142 131 + 1;
#X obj 141 155 * 64;
#X obj 121 19 inlet~;
#X obj 137 214 outlet;
#X text 41 16 audio input;
#X text 48 104;
#X text 95 214 0-127;
#X text 29 196 spits out number;
#X connect 0 0 4 0;
#X connect 1 0 0 0;
#X connect 2 0 1 0;
#X connect 3 0 2 0;
#X connect 4 0 5 0;
#X connect 5 0 7 0;
#X connect 6 0 0 0;
