#N canvas 641 4 638 1027 10;
#X obj 712 228 cnv 15 76 141 empty empty empty 20 12 0 14 -257985 -66577
0;
#X obj 716 663 outlet~;
#X obj 666 539 sig~;
#X obj 719 232 vsl 30 128 -1 1 0 0 empty empty empty 0 -9 0 10 -262144
-1 -1 8050 1;
#X floatatom 751 339 5 0 0 0 - #0-cv -, f 5;
#X text 754 235 CV GEN;
#X obj 760 318 tgl 15 0 empty empty empty 17 7 0 10 -262144 -1 -1 0
1;
#X msg 727 403 1;
#X msg 722 434 10;
#X obj 662 468 *;
#X obj 712 513 s \$0-cv;
#X obj 788 385 select 0;
#X text 755 298 x10;
#X obj 759 274 bng 15 250 50 0 empty empty empty 17 7 0 10 -262144
-1 -1;
#X msg 812 294 0;
#X obj 812 337 loadbang;
#X obj 409 345 snapshot~;
#X floatatom 380 387 0 0 0 0 - - -;
#X obj 457 272 loadbang;
#X obj 467 292 tgl 15 0 empty empty empty 17 7 0 10 -262144 -1 -1 1
1;
#X obj 430 234 line~;
#X text 484 43 slider smoothinghttps://forum.pdpatchrepo.info/topic/6545/feedback-delay-lines-and-smooth-pitch-changing
;
#X obj 451 322 metro 20;
#X obj 427 201 pack f 20;
#X connect 2 0 1 0;
#X connect 3 0 23 0;
#X connect 6 0 11 0;
#X connect 7 0 9 1;
#X connect 8 0 9 1;
#X connect 9 0 2 0;
#X connect 9 0 10 0;
#X connect 11 0 7 0;
#X connect 11 1 8 0;
#X connect 13 0 14 0;
#X connect 14 0 3 0;
#X connect 15 0 7 0;
#X connect 16 0 17 0;
#X connect 16 0 9 0;
#X connect 18 0 22 0;
#X connect 19 0 22 0;
#X connect 20 0 16 0;
#X connect 22 0 16 0;
#X connect 23 0 20 0;
#X coords 0 -1 1 1 79 146 2 711 225;
