#N canvas 961 4 955 1027 10;
#X obj 101 108 cnv 15 148 180 empty empty empty 20 12 0 14 -22841 -66577
0;
#X obj 553 4 inlet~ time;
#X obj 659 5 inlet~ centerfq;
#X obj 857 3 inlet~ q;
#X obj 386 682 outlet~ out;
#X obj 148 165 vsl 20 100 60 15000 0 0 empty empty empty 0 -9 0 10
-262144 -1 -1 2900 1;
#X obj 518 408 bp~, f 17;
#X text 335 82 INPUT;
#X text 476 531 OUT;
#X text 407 133 SIMPLE DELAY;
#X text 397 549 https://guitarextended.wordpress.com/2011/12/12/creating-a-simple-effect-with-pd/
;
#X obj 429 261 +;
#X obj 481 306 line;
#X floatatom 159 328 10 0 0 0 - - -, f 10;
#X obj 281 530 clip~ -1 1;
#X text 481 235 time;
#X text 244 442 brick wall limiter;
#X obj 112 165 vsl 20 100 -100 300 0 0 empty empty empty 0 -9 0 10
-262144 -1 -1 5500 1;
#X floatatom 112 327 5 0 0 0 - - -, f 5;
#X obj 301 -1 inlet~ in;
#X obj 655 314 loadbang;
#X msg 42 33 1000;
#X obj 54 -1 loadbang;
#X text 108 139 time;
#X text 150 140 fq;
#X obj 184 166 vsl 20 100 6 -3 0 0 empty empty empty 0 -9 0 10 -262144
-1 -1 4700 1;
#X text 192 141 Q;
#X text 101 283 out;
#X text 102 101 in;
#X text 122 102 time;
#X text 165 102 fq;
#X text 195 101 Q;
#X obj 575 109 snapshot~;
#X obj 578 57 tgl 15 0 empty empty empty 17 7 0 10 -262144 -1 -1 1
1;
#X obj 570 33 loadbang;
#X obj 571 85 metro 1;
#X obj 551 161 + 1;
#X floatatom 543 219 5 0 0 0 - - -, f 5;
#X obj 692 111 snapshot~;
#X obj 695 59 tgl 15 0 empty empty empty 17 7 0 10 -262144 -1 -1 1
1;
#X obj 687 35 loadbang;
#X obj 688 87 metro 1;
#X obj 668 163 + 1;
#X floatatom 660 222 5 0 0 0 - - -, f 5;
#X floatatom 269 403 15 0 0 0 - - -, f 15;
#X floatatom 423 299 5 0 0 0 - - -, f 5;
#X text 287 196 feedbk line;
#X obj 282 357 +;
#X obj 643 190 * 6000;
#X obj 908 109 snapshot~;
#X obj 911 57 tgl 15 0 empty empty empty 17 7 0 10 -262144 -1 -1 1
1;
#X obj 903 33 loadbang;
#X obj 904 85 metro 1;
#X obj 816 240 clip 2 15;
#X floatatom 815 267 5 0 0 0 - - -, f 5;
#X obj 293 297 +;
#X text 106 120 ##### DELAY;
#X obj 884 161 + 0;
#X obj 857 190 * 10;
#X obj 526 189 * 100;
#X obj 272 575 lop~ 12000;
#X text -11 573 cut out ssssss frequencies that hurt my ears;
#X floatatom 428 335 5 0 0 0 - - -, f 5;
#X obj 476 285 pack 0 60;
#X obj 221 166 vsl 20 100 0 0.55 0 0 empty empty empty 0 -9 0 10 -262144
-1 -1 8400 1;
#X obj 541 492 *~;
#X msg 654 362 1;
#X obj 737 469 clip 0 0.5;
#X obj 1027 13 inlet~ feedback;
#X obj 1056 133 snapshot~;
#X obj 1095 77 tgl 15 0 empty empty empty 17 7 0 10 -262144 -1 -1 1
1;
#X obj 1087 53 loadbang;
#X obj 1088 105 metro 1;
#X obj 846 391 +;
#X text 214 102 fdbk;
#X text 214 141 fdbk;
#X obj 326 109 delwrite~ \$0-delayline 3000;
#X obj 481 331 delread~ \$0-delayline \$2;
#X obj 543 462 lop~ 20000;
#X connect 1 0 32 0;
#X connect 2 0 38 0;
#X connect 3 0 49 0;
#X connect 5 0 13 0;
#X connect 5 0 47 1;
#X connect 6 0 78 0;
#X connect 11 0 45 0;
#X connect 11 0 63 0;
#X connect 12 0 62 0;
#X connect 12 0 77 0;
#X connect 14 0 60 0;
#X connect 17 0 18 0;
#X connect 17 0 11 1;
#X connect 19 0 76 0;
#X connect 20 0 66 0;
#X connect 21 0 17 0;
#X connect 22 0 21 0;
#X connect 25 0 55 1;
#X connect 25 0 6 2;
#X connect 32 0 36 0;
#X connect 33 0 35 0;
#X connect 34 0 33 0;
#X connect 35 0 32 0;
#X connect 36 0 59 0;
#X connect 38 0 42 0;
#X connect 39 0 41 0;
#X connect 40 0 39 0;
#X connect 41 0 38 0;
#X connect 42 0 48 0;
#X connect 47 0 44 0;
#X connect 47 0 6 1;
#X connect 48 0 43 0;
#X connect 48 0 47 0;
#X connect 49 0 57 0;
#X connect 50 0 52 0;
#X connect 51 0 50 0;
#X connect 52 0 49 0;
#X connect 53 0 54 0;
#X connect 53 0 55 0;
#X connect 57 0 58 0;
#X connect 58 0 53 0;
#X connect 59 0 11 0;
#X connect 59 0 37 0;
#X connect 60 0 4 0;
#X connect 63 0 12 0;
#X connect 64 0 73 1;
#X connect 65 0 76 0;
#X connect 66 0 6 2;
#X connect 67 0 65 1;
#X connect 68 0 69 0;
#X connect 69 0 73 0;
#X connect 70 0 72 0;
#X connect 71 0 70 0;
#X connect 72 0 69 0;
#X connect 73 0 67 0;
#X connect 77 0 6 0;
#X connect 78 0 65 0;
#X connect 78 0 14 0;
#X coords 0 -1 1 1 150 200 2 100 100;
