#N canvas 89 112 1294 779 10;
#X obj 101 109 cnv 15 148 180 empty empty empty 20 12 0 14 -22841 -66577
0;
#X obj 398 40 inlet~ time;
#X obj 494 45 inlet~ centerfq;
#X obj 636 46 inlet~ q;
#X obj 386 682 outlet~ out;
#X text 570 420 <-- center frequency;
#X floatatom 579 449 0 2 8 0 - - -;
#X text 623 449 < -- Q;
#X obj 171 164 vsl 20 100 60 15000 0 0 empty empty empty 0 -9 0 10
-262144 -1 -1 3000 1;
#X obj 500 464 bp~;
#X text 335 82 INPUT;
#X text 620 130 fq;
#X text 476 531 OUT;
#X text 407 133 SIMPLE DELAY;
#X text 397 549 https://guitarextended.wordpress.com/2011/12/12/creating-a-simple-effect-with-pd/
;
#X obj 478 506 *~ 0.6;
#X obj 326 109 delwrite~ \$1-delayline 3000;
#X obj 447 343 delread~ \$1-delayline \$1;
#X obj 436 264 +;
#X obj 443 317 line;
#X obj 443 295 pack 0 10;
#X floatatom 159 328 10 0 0 0 - - -, f 10;
#X obj 282 491 clip~ -1 1;
#X text 448 245 time;
#X text 279 467 brick wall limiter;
#X obj 122 163 vsl 20 100 2 2000 0 0 empty empty empty 0 -9 0 10 -262144
-1 -1 4200 1;
#X floatatom 106 320 5 0 0 0 - - -, f 5;
#X obj 315 31 inlet~ in;
#X msg 658 350 4;
#X obj 664 309 loadbang;
#X msg 42 33 1000;
#X obj 54 -1 loadbang;
#X text 120 139 time;
#X text 172 137 fq;
#X obj 215 164 vsl 20 100 2 10 0 0 empty empty empty 0 -9 0 10 -262144
-1 -1 0 1;
#X connect 6 0 9 2;
#X connect 8 0 9 1;
#X connect 8 0 21 0;
#X connect 9 0 15 0;
#X connect 15 0 16 0;
#X connect 15 0 22 0;
#X connect 17 0 9 0;
#X connect 18 0 20 0;
#X connect 20 0 19 0;
#X connect 25 0 26 0;
#X connect 25 0 18 0;
#X connect 27 0 16 0;
#X connect 28 0 6 0;
#X connect 29 0 28 0;
#X connect 30 0 25 0;
#X connect 31 0 30 0;
#X coords 0 -1 1 1 150 200 2 100 100;
