#N canvas 460 40 921 763 10;
#X obj 117 441 cnv 15 198 77 empty empty empty 20 12 0 14 -204786 -66577
0;
#X obj 14 19 inlet~ clock;
#X msg 305 75 0;
#X obj 303 16 inlet~ reset;
#X text 392 17 HIGH sets the seq to 0;
#X obj 300 46 threshold~ 0.1 1 1 1;
#X text 119 422 clock;
#X text 275 422 reset;
#X obj 53 129 snapshot~;
#X floatatom 52 158 5 0 0 0 - - -, f 5;
#X obj 61 77 tgl 15 0 empty empty empty 17 7 0 10 -262144 -1 -1 1 1
;
#X obj 48 53 loadbang;
#X obj 64 103 metro 1;
#X obj 304 105 s \$0-reset;
#X obj 121 441 tgl 15 0 empty empty empty 17 7 0 10 -262144 -1 -1 0
1;
#X text 137 440 blinkenlights;
#X obj 503 541 sel 1;
#X msg 492 564 1;
#X msg 525 565 0;
#X obj 490 605 s \$0-leds;
#X obj 58 616 divideby2;
#X obj 140 491 tgl 20 0 empty empty empty 17 7 0 10 -1 -262144 -262144
0 1;
#X obj 100 562 r \$0-leds;
#X floatatom 131 468 5 2 16 0 - - -, f 5;
#X text 158 422 DIVIDER;
#X obj 52 191 s \$0-clocky;
#X obj 90 538 r \$0-clocky;
#X obj 149 619 divideby2;
#X obj 187 491 tgl 20 0 empty empty empty 17 7 0 10 -1 -262144 -262144
0 3;
#X obj 183 562 r \$0-leds;
#X floatatom 178 468 5 2 16 0 - - -, f 5;
#X obj 173 538 r \$0-clocky;
#X obj 127 352 loadbang;
#X msg 123 380 2;
#X msg 155 380 4;
#X obj 173 861 outlet~;
#X obj 90 861 outlet~;
#X obj 236 617 divideby2;
#X obj 234 490 tgl 20 0 empty empty empty 17 7 0 10 -1 -262144 -262144
0 1;
#X obj 259 562 r \$0-leds;
#X floatatom 227 468 5 2 16 0 - - -, f 5;
#X obj 249 538 r \$0-clocky;
#X obj 249 861 outlet~;
#X msg 188 380 8;
#X obj 279 322 loadbang;
#X obj 276 347 del 20;
#X msg 279 376 0;
#X obj 307 618 divideby2;
#X obj 277 491 tgl 20 0 empty empty empty 17 7 0 10 -1 -262144 -262144
0 1;
#X obj 336 560 r \$0-leds;
#X floatatom 268 468 5 2 16 0 - - -, f 5;
#X obj 326 536 r \$0-clocky;
#X obj 326 859 outlet~;
#X msg 222 380 16;
#X obj 226 441 tgl 15 0 empty empty empty 17 7 0 10 -262144 -1 -1 0
1;
#X text 245 440 trigger;
#X obj 336 475 s \$0-trigger;
#X obj 88 587 r \$0-trigger;
#X obj 185 588 r \$0-trigger;
#X obj 271 586 r \$0-trigger;
#X obj 360 580 r \$0-trigger;
#X connect 1 0 8 0;
#X connect 2 0 13 0;
#X connect 3 0 5 0;
#X connect 5 0 2 0;
#X connect 8 0 9 0;
#X connect 9 0 25 0;
#X connect 10 0 12 0;
#X connect 11 0 10 0;
#X connect 12 0 8 0;
#X connect 14 0 16 0;
#X connect 16 0 17 0;
#X connect 16 1 18 0;
#X connect 17 0 19 0;
#X connect 18 0 19 0;
#X connect 20 0 36 0;
#X connect 20 1 21 0;
#X connect 22 0 20 3;
#X connect 23 0 20 1;
#X connect 26 0 20 0;
#X connect 27 0 35 0;
#X connect 27 1 28 0;
#X connect 29 0 27 3;
#X connect 30 0 27 1;
#X connect 31 0 27 0;
#X connect 32 0 33 0;
#X connect 32 0 34 0;
#X connect 32 0 43 0;
#X connect 32 0 53 0;
#X connect 33 0 23 0;
#X connect 34 0 30 0;
#X connect 37 0 42 0;
#X connect 37 1 38 0;
#X connect 39 0 37 3;
#X connect 40 0 37 1;
#X connect 41 0 37 0;
#X connect 43 0 40 0;
#X connect 44 0 45 0;
#X connect 45 0 46 0;
#X connect 46 0 14 0;
#X connect 47 0 52 0;
#X connect 47 1 48 0;
#X connect 49 0 47 3;
#X connect 50 0 47 1;
#X connect 51 0 47 0;
#X connect 53 0 50 0;
#X connect 54 0 56 0;
#X connect 57 0 20 2;
#X connect 58 0 27 2;
#X connect 59 0 37 2;
#X connect 60 0 47 2;
#X coords 0 -1 1 1 200 105 2 116 420;
