#N canvas 0 419 783 568 10;
#X obj 123 13 inlet;
#X obj -68 254 hradio 20 1 0 16 empty empty empty 0 -8 0 10 -262144
-1 -1 2;
#X obj 261 152 bng 15 250 50 0 empty empty empty 17 7 0 10 -262144
-1 -1;
#X obj 261 130 threshold 0.55 1 1 1;
#X text 267 109 detects rising edge;
#X obj 262 177 float;
#X obj 223 206 mod 2;
#X obj 308 177 + 1;
#X floatatom 275 242 5 0 0 0 - - -, f 5;
#X floatatom 287 210 5 0 0 0 - - -, f 5;
#X obj 288 152 r \$0-reset;
#X obj 327 287 spigot;
#X text 429 20 number between -1 and 1;
#X obj 316 365 outlet led;
#X obj 311 525 outlet~;
#X obj 125 308 sig~ 1;
#X obj 156 354 *~;
#X msg 189 313 1;
#X msg 221 313 0;
#X obj 203 283 sel 0;
#X obj 597 110 inlet leds;
#X text -81 380 outputs a signal every other cycle;
#X obj 199 14 inlet divideby;
#X obj 464 246 inlet trigger;
#X obj 466 488 spigot~;
#X obj 258 445 spigot~;
#X msg 329 432 1;
#X msg 361 430 0;
#X obj 349 399 sel 1;
#X msg 539 407 1;
#X msg 571 405 0;
#X obj 559 373 sel 0;
#X floatatom 457 289 5 0 0 0 - - -, f 5;
#X obj 450 342 bng 15 250 50 0 empty empty empty 17 7 0 10 -262144
-1 -1;
#X msg 455 367 1;
#X msg 476 392 0;
#X obj 489 364 del 2;
#X obj 449 447 *~;
#X obj 414 414 sig~ 1;
#X connect 0 0 3 0;
#X connect 2 0 5 0;
#X connect 3 0 2 0;
#X connect 5 0 6 0;
#X connect 5 0 7 0;
#X connect 5 0 9 0;
#X connect 6 0 1 0;
#X connect 6 0 8 0;
#X connect 6 0 11 0;
#X connect 6 0 19 0;
#X connect 7 0 5 1;
#X connect 10 0 5 0;
#X connect 11 0 13 0;
#X connect 15 0 16 0;
#X connect 16 0 25 0;
#X connect 17 0 16 1;
#X connect 17 0 33 0;
#X connect 18 0 16 1;
#X connect 19 0 17 0;
#X connect 19 1 18 0;
#X connect 20 0 11 1;
#X connect 22 0 6 1;
#X connect 23 0 28 0;
#X connect 23 0 31 0;
#X connect 23 0 32 0;
#X connect 24 0 14 0;
#X connect 25 0 14 0;
#X connect 26 0 25 1;
#X connect 27 0 25 1;
#X connect 28 0 26 0;
#X connect 28 1 27 0;
#X connect 29 0 24 1;
#X connect 30 0 24 1;
#X connect 31 0 29 0;
#X connect 31 1 30 0;
#X connect 33 0 34 0;
#X connect 33 0 36 0;
#X connect 34 0 37 1;
#X connect 35 0 37 1;
#X connect 36 0 35 0;
#X connect 37 0 24 0;
#X connect 38 0 37 0;
