#N canvas 2 22 987 815 10;
#N canvas 992 84 450 300 midi_input 0;
#X obj -80 8 notein;
#X obj -81 194 mtof;
#X floatatom 90 63 5 0 0 0 - - -, f 5;
#X floatatom 89 15 5 0 0 0 - - -, f 5;
#X text 128 15 MIDI note;
#X text 127 65 MIDi channel;
#X text 135 39 vel;
#X floatatom 91 38 5 0 0 0 - - -, f 5;
#X obj -80 119 stripnote;
#X text -19 119 removes all 0s;
#X floatatom -67 151 5 0 0 0 - - -, f 5;
#X obj -12 149 s \$0-noteon;
#X obj -76 232 s \$0-frequency;
#X obj 198 95 s \$0-velocity;
#X connect 0 0 3 0;
#X connect 0 0 8 0;
#X connect 0 1 7 0;
#X connect 0 1 8 1;
#X connect 0 2 2 0;
#X connect 1 0 12 0;
#X connect 7 0 13 0;
#X connect 8 0 1 0;
#X connect 8 0 10 0;
#X connect 8 0 11 0;
#X restore 194 562 pd midi_input;
#X obj 100 115 cnv 15 300 170 empty empty empty 20 12 0 14 -258113
-66577 0;
#X obj 143 148 vsl 15 128 0 1 0 0 empty \$0-carrier-level carrier-level
0 -9 0 10 -262144 -1 -1 12700 1;
#X obj 62 283 *~;
#N canvas 0 50 871 759 vcocore 0;
#X obj 377 47 inlet~ pwm;
#X obj 502 48 inlet~ sync;
#X obj 56 276 osc~;
#X obj 2 600 outlet~ sine;
#X obj 179 260 phasor~;
#X obj 139 595 outlet~ saw;
#X obj 285 604 outlet~ rectangle;
#X obj 317 262 phasor~;
#X text 335 309 comparator;
#X obj 316 291 expr~ $v1 > $v2;
#X obj 469 191 +~;
#X obj 174 286 *~ 2;
#X obj 181 318 -~ 1;
#X obj 302 435 *~ 2;
#X obj 303 464 -~ 1;
#X obj 605 601 outlet~ tri;
#X obj 585 350 phasor~;
#X obj 585 372 *~ 2;
#X obj 585 394 -~ 1;
#X obj 585 416 clip~ 0 1;
#X obj 612 451 +~;
#X obj 675 351 phasor~;
#X obj 675 373 *~ 2;
#X obj 675 395 -~ 1;
#X obj 675 417 clip~ 0 1;
#X msg 689 310 0;
#X obj 630 309 *~ -1;
#X obj 691 265 loadbang;
#X obj 615 489 *~ 2;
#X obj 616 518 -~ 1;
#X text 538 246 from http://www.pd-tutorial.com/english/ch03s05.html
;
#X obj 449 423 snapshot~;
#X floatatom 469 453 5 0 0 0 - - -, f 5;
#X obj 449 380 metro 2;
#X obj 455 352 tgl 15 0 empty empty empty 17 7 0 10 -262144 -1 -1 1
1;
#X obj 448 302 loadbang;
#X obj 467 474 spigot;
#X text 497 186 extremes = silence fix PWM so no silence;
#X obj 449 215 clip~ 0.01 0.99;
#X obj 311 176 +~;
#X obj 276 50 inlet pwm_amt;
#X obj 463 599 outlet led;
#X floatatom 28 115 5 0 0 0 - - -, f 5;
#X obj 114 174 snapshot~;
#X floatatom 152 201 5 0 0 0 - - -, f 5;
#X obj 117 122 tgl 15 0 empty empty empty 17 7 0 10 -262144 -1 -1 1
1;
#X obj 109 98 loadbang;
#X obj 110 150 metro 1;
#X obj 123 47 inlet~ cv;
#X obj 908 183 snapshot~;
#X obj 934 134 tgl 15 0 empty empty empty 17 7 0 10 -262144 -1 -1 1
1;
#X obj 935 110 loadbang;
#X floatatom 914 209 5 0 0 0 - - -, f 5;
#X obj 906 285 select 1;
#X obj 905 316 bng 15 250 50 0 empty empty empty 17 7 0 10 -262144
-1 -1;
#X obj 951 315 bng 15 250 50 0 empty empty empty 17 7 0 10 -262144
-1 -1;
#X msg 898 381 1;
#X obj 898 355 t b b;
#X obj 928 432 sel 0;
#X obj 928 411 f 0;
#X obj 931 457 bng 15 250 50 0 empty empty empty 17 7 0 10 -262144
-1 -1;
#X msg 956 373 0;
#X obj 901 236 > 0.5;
#X obj 930 155 metro 1;
#X msg 536 112 0;
#X obj 30 46 inlet~ pitch;
#X connect 0 0 10 1;
#X connect 1 0 49 0;
#X connect 2 0 3 0;
#X connect 4 0 11 0;
#X connect 7 0 9 0;
#X connect 9 0 13 0;
#X connect 9 0 31 0;
#X connect 10 0 38 0;
#X connect 11 0 12 0;
#X connect 12 0 5 0;
#X connect 13 0 14 0;
#X connect 14 0 6 0;
#X connect 16 0 17 0;
#X connect 17 0 18 0;
#X connect 18 0 19 0;
#X connect 19 0 20 0;
#X connect 20 0 28 0;
#X connect 21 0 22 0;
#X connect 22 0 23 0;
#X connect 23 0 24 0;
#X connect 24 0 20 1;
#X connect 25 0 16 1;
#X connect 25 0 21 1;
#X connect 26 0 21 0;
#X connect 27 0 25 0;
#X connect 28 0 29 0;
#X connect 29 0 15 0;
#X connect 31 0 32 0;
#X connect 32 0 36 1;
#X connect 32 0 36 0;
#X connect 33 0 31 0;
#X connect 34 0 33 0;
#X connect 35 0 34 0;
#X connect 36 0 41 0;
#X connect 38 0 9 1;
#X connect 39 0 2 0;
#X connect 39 0 4 0;
#X connect 39 0 7 0;
#X connect 39 0 16 0;
#X connect 39 0 26 0;
#X connect 40 0 10 0;
#X connect 43 0 44 0;
#X connect 45 0 47 0;
#X connect 46 0 45 0;
#X connect 47 0 43 0;
#X connect 48 0 39 1;
#X connect 48 0 43 0;
#X connect 49 0 52 0;
#X connect 49 0 62 0;
#X connect 50 0 63 0;
#X connect 51 0 50 0;
#X connect 53 0 54 0;
#X connect 53 1 55 0;
#X connect 54 0 57 0;
#X connect 55 0 61 0;
#X connect 56 0 59 1;
#X connect 57 0 56 0;
#X connect 57 1 59 0;
#X connect 58 0 60 0;
#X connect 59 0 58 0;
#X connect 60 0 64 0;
#X connect 61 0 59 1;
#X connect 62 0 53 0;
#X connect 63 0 49 0;
#X connect 64 0 4 1;
#X connect 64 0 2 1;
#X connect 64 0 7 1;
#X connect 64 0 25 0;
#X connect 65 0 39 0;
#X connect 65 0 42 0;
#X restore 11 231 pd vcocore;
#N canvas 0 50 450 300 vcocore 0;
#X obj 377 47 inlet~ pwm;
#X obj 502 48 inlet~ sync;
#X obj 56 276 osc~;
#X obj 2 600 outlet~ sine;
#X obj 179 260 phasor~;
#X obj 139 595 outlet~ saw;
#X obj 285 604 outlet~ rectangle;
#X obj 317 262 phasor~;
#X text 335 309 comparator;
#X obj 316 291 expr~ $v1 > $v2;
#X obj 469 191 +~;
#X obj 174 286 *~ 2;
#X obj 181 318 -~ 1;
#X obj 302 435 *~ 2;
#X obj 303 464 -~ 1;
#X obj 605 601 outlet~ tri;
#X obj 585 350 phasor~;
#X obj 585 372 *~ 2;
#X obj 585 394 -~ 1;
#X obj 585 416 clip~ 0 1;
#X obj 612 451 +~;
#X obj 675 351 phasor~;
#X obj 675 373 *~ 2;
#X obj 675 395 -~ 1;
#X obj 675 417 clip~ 0 1;
#X msg 689 310 0;
#X obj 630 309 *~ -1;
#X obj 691 265 loadbang;
#X obj 615 489 *~ 2;
#X obj 616 518 -~ 1;
#X text 538 246 from http://www.pd-tutorial.com/english/ch03s05.html
;
#X obj 449 423 snapshot~;
#X floatatom 469 453 5 0 0 0 - - -, f 5;
#X obj 449 380 metro 2;
#X obj 455 352 tgl 15 0 empty empty empty 17 7 0 10 -262144 -1 -1 1
1;
#X obj 448 302 loadbang;
#X obj 467 474 spigot;
#X text 497 186 extremes = silence fix PWM so no silence;
#X obj 449 215 clip~ 0.01 0.99;
#X obj 311 176 +~;
#X obj 276 50 inlet pwm_amt;
#X obj 463 599 outlet led;
#X floatatom 43 162 5 0 0 0 - - -, f 5;
#X obj 114 174 snapshot~;
#X floatatom 152 201 5 0 0 0 - - -, f 5;
#X obj 117 122 tgl 15 0 empty empty empty 17 7 0 10 -262144 -1 -1 1
1;
#X obj 109 98 loadbang;
#X obj 110 150 metro 1;
#X obj 123 47 inlet~ cv;
#X obj 908 183 snapshot~;
#X obj 934 134 tgl 15 0 empty empty empty 17 7 0 10 -262144 -1 -1 1
1;
#X obj 935 110 loadbang;
#X floatatom 914 209 5 0 0 0 - - -, f 5;
#X obj 906 285 select 1;
#X obj 905 316 bng 15 250 50 0 empty empty empty 17 7 0 10 -262144
-1 -1;
#X obj 951 315 bng 15 250 50 0 empty empty empty 17 7 0 10 -262144
-1 -1;
#X msg 898 381 1;
#X obj 898 355 t b b;
#X obj 928 432 sel 0;
#X obj 928 411 f 0;
#X obj 931 457 bng 15 250 50 0 empty empty empty 17 7 0 10 -262144
-1 -1;
#X msg 956 373 0;
#X obj 901 236 > 0.5;
#X obj 930 155 metro 1;
#X msg 536 112 0;
#X obj 30 46 inlet~ pitch;
#X connect 0 0 10 1;
#X connect 1 0 49 0;
#X connect 2 0 3 0;
#X connect 4 0 11 0;
#X connect 7 0 9 0;
#X connect 9 0 13 0;
#X connect 9 0 31 0;
#X connect 10 0 38 0;
#X connect 11 0 12 0;
#X connect 12 0 5 0;
#X connect 13 0 14 0;
#X connect 14 0 6 0;
#X connect 16 0 17 0;
#X connect 17 0 18 0;
#X connect 18 0 19 0;
#X connect 19 0 20 0;
#X connect 20 0 28 0;
#X connect 21 0 22 0;
#X connect 22 0 23 0;
#X connect 23 0 24 0;
#X connect 24 0 20 1;
#X connect 25 0 16 1;
#X connect 25 0 21 1;
#X connect 26 0 21 0;
#X connect 27 0 25 0;
#X connect 28 0 29 0;
#X connect 29 0 15 0;
#X connect 31 0 32 0;
#X connect 32 0 36 1;
#X connect 32 0 36 0;
#X connect 33 0 31 0;
#X connect 34 0 33 0;
#X connect 35 0 34 0;
#X connect 36 0 41 0;
#X connect 38 0 9 1;
#X connect 39 0 2 0;
#X connect 39 0 4 0;
#X connect 39 0 7 0;
#X connect 39 0 16 0;
#X connect 39 0 26 0;
#X connect 40 0 10 0;
#X connect 43 0 44 0;
#X connect 45 0 47 0;
#X connect 46 0 45 0;
#X connect 47 0 43 0;
#X connect 48 0 39 1;
#X connect 48 0 43 0;
#X connect 49 0 52 0;
#X connect 49 0 62 0;
#X connect 50 0 63 0;
#X connect 51 0 50 0;
#X connect 53 0 54 0;
#X connect 53 1 55 0;
#X connect 54 0 57 0;
#X connect 55 0 61 0;
#X connect 56 0 59 1;
#X connect 57 0 56 0;
#X connect 57 1 59 0;
#X connect 58 0 60 0;
#X connect 59 0 58 0;
#X connect 60 0 64 0;
#X connect 61 0 59 1;
#X connect 62 0 53 0;
#X connect 63 0 49 0;
#X connect 64 0 4 1;
#X connect 64 0 2 1;
#X connect 64 0 7 1;
#X connect 64 0 25 0;
#X connect 65 0 39 0;
#X connect 65 0 42 0;
#X restore 254 79 pd vcocore;
#X obj 322 142 vsl 15 128 0 5000 0 0 empty \$0-modulator-level mod-level
0 -9 0 10 -262144 -1 -1 1500 1;
#X obj 255 281 *~;
#X obj 172 175 vsl 15 90 0.13 6000 0 0 empty \$0-carrier-fq carrier-fq
0 -9 0 10 -262144 -1 -1 500 1;
#X obj 59 -39 +~;
#X obj 273 175 vsl 15 90 0.1 8500 1 0 empty \$0-modulator-fq mod-fq
0 -9 0 10 -262144 -1 -1 700 1;
#X obj 74 12 loadbang;
#X msg 79 41 1, f 5;
#N canvas 0 50 450 300 track 0;
#X obj 20 29 inlet midi_frequency;
#X obj 175 34 inlet manual_frequency;
#X obj 327 33 inlet track;
#X floatatom 309 77 5 0 0 0 - - -, f 5;
#X obj 70 256 outlet frequency;
#X floatatom 57 83 5 0 0 0 - - -, f 5;
#X floatatom 216 60 5 0 0 0 - - -, f 5;
#X obj 101 185 spigot;
#X obj 186 116 select 1;
#X msg 165 157 1;
#X msg 199 156 0;
#X obj 250 202 spigot;
#X msg 314 174 1;
#X msg 348 173 0;
#X obj 335 133 select 0, f 9;
#X connect 0 0 5 0;
#X connect 1 0 6 0;
#X connect 2 0 3 0;
#X connect 3 0 8 0;
#X connect 3 0 14 0;
#X connect 5 0 7 0;
#X connect 6 0 11 0;
#X connect 7 0 4 0;
#X connect 8 0 9 0;
#X connect 8 1 10 0;
#X connect 9 0 7 1;
#X connect 10 0 7 1;
#X connect 11 0 4 0;
#X connect 12 0 11 1;
#X connect 13 0 11 1;
#X connect 14 0 12 0;
#X connect 14 1 13 0;
#X restore 599 -61 pd track;
#X obj 223 198 vsl 15 60 0 500 0 0 empty \$0-carrier-mod-level car-mod-lev
0 -9 0 10 -262144 -1 -1 800 1;
#X obj 242 -4 +~;
#X obj 112 358 *~;
#X obj -27 556 outlet~ output;
#X text -45 -292 from -1 to 1;
#X obj -9 -200 snapshot~;
#X floatatom -33 -169 5 0 0 0 - - -, f 5;
#X obj -6 -252 tgl 15 0 empty empty empty 17 7 0 10 -262144 -1 -1 1
1;
#X obj -14 -274 loadbang;
#X obj -13 -224 metro 1;
#X obj -71 -243 *~ 300;
#X text 176 -292 from -1 to 1;
#X obj 214 -198 snapshot~;
#X obj 217 -250 tgl 15 0 empty empty empty 17 7 0 10 -262144 -1 -1
1 1;
#X obj 209 -274 loadbang;
#X obj 210 -222 metro 1;
#X obj 152 -241 *~ 300;
#X text 101 100 carrier cv;
#X obj -86 -310 inlet~ carrier_cv;
#X obj 137 -308 inlet~ modulator_cv;
#X text 223 99 mod cv;
#X obj 87 -69 r~ \$0-mod;
#X obj 216 312 s \$0-mod-fq;
#X obj 152 533 s~ \$0-carrier-mods-mod;
#X obj 374 368 s~ \$0-mod;
#X obj 284 -34 r~ \$0-carrier-mods-mod;
#X obj 87 -154 r \$0-carrier-fq;
#X obj 140 281 s \$0-carrier-fq;
#X obj 38 -110 +;
#X obj 250 -69 r \$0-mod-fq;
#X obj 244 -106 r \$0-frequency;
#X text 349 99 fbk_amt;
#X obj 273 37 +~;
#X floatatom 150 326 5 0 0 0 - - -, f 5;
#X obj 742 -194 snapshot~;
#X obj 745 -246 tgl 15 0 empty empty empty 17 7 0 10 -262144 -1 -1
1 1;
#X obj 737 -270 loadbang;
#X obj 738 -218 metro 1;
#X obj 665 -305 inlet~ fbk_amt;
#X obj 789 -142 s \$0-fbk_amt;
#X obj 227 336 r \$0-fbk_amt;
#X floatatom 167 384 5 0 0 0 - - -, f 5;
#X obj 167 358 r \$0-fbk_amt;
#X floatatom 190 -18 5 0 0 0 - - -, f 5;
#X floatatom 711 -140 5 0 0 0 - - -, f 5;
#X obj 680 -237 *~ 300;
#X obj 143 467 +~;
#X text 105 118 #### DUAL OSCILLATOR ###;
#X text 102 284 out;
#X connect 2 0 3 1;
#X connect 3 0 16 0;
#X connect 3 0 17 0;
#X connect 4 0 3 0;
#X connect 5 0 7 0;
#X connect 6 0 7 1;
#X connect 7 0 38 0;
#X connect 8 0 41 0;
#X connect 9 0 4 0;
#X connect 10 0 36 0;
#X connect 11 0 12 0;
#X connect 12 0 2 0;
#X connect 14 0 16 1;
#X connect 14 0 47 0;
#X connect 15 0 46 0;
#X connect 16 0 60 0;
#X connect 19 0 20 0;
#X connect 19 0 42 0;
#X connect 21 0 23 0;
#X connect 22 0 21 0;
#X connect 23 0 19 0;
#X connect 24 0 19 0;
#X connect 26 0 46 1;
#X connect 27 0 29 0;
#X connect 28 0 27 0;
#X connect 29 0 26 0;
#X connect 30 0 26 0;
#X connect 32 0 24 0;
#X connect 33 0 30 0;
#X connect 35 0 9 1;
#X connect 39 0 15 1;
#X connect 40 0 42 1;
#X connect 42 0 9 0;
#X connect 43 0 15 0;
#X connect 43 0 57 0;
#X connect 46 0 5 0;
#X connect 48 0 53 0;
#X connect 48 0 58 0;
#X connect 49 0 51 0;
#X connect 50 0 49 0;
#X connect 51 0 48 0;
#X connect 52 0 59 0;
#X connect 55 0 60 1;
#X connect 56 0 55 0;
#X connect 59 0 48 0;
#X connect 60 0 37 0;
#X coords 0 -1 1 1 300 200 2 100 100;
