#N canvas 737 97 652 520 10;
#X obj 100 121 cnv 15 100 60 empty empty empty 20 12 0 14 -203904 -66577
0;
#X obj 293 -229 inlet~ clock;
#X obj 455 -232 inlet~ reset;
#X text 539 -231 HIGH sets the seq to 0;
#X obj 325 -83 threshold~ 0.1 1 1 1;
#X obj 364 82 float;
#X obj 343 111 mod 2;
#X obj 428 82 + 1;
#X obj 275 160 sig~ 1;
#X obj 306 206 *~;
#X msg 339 165 1;
#X msg 371 165 0;
#X obj 353 135 sel 0;
#X obj 375 54 bng 15 250 50 0 empty empty empty 17 7 0 10 -262144 -1
-1;
#X obj 306 231 outlet~;
#X floatatom 147 -12 5 0 1 0 - - -, f 5;
#X obj 476 -85 threshold~ 0.1 1 1 1;
#X msg 464 -4 0;
#X text 102 103 in;
#X obj 129 137 tgl 40 0 empty empty empty 17 7 0 10 -4160 -204800 -4034
1 1;
#X text 123 119 FLIPFLOP;
#X text 171 105 res;
#X text 101 182 out;
#X floatatom 431 110 5 0 0 0 - - -, f 5;
#X connect 1 0 4 0;
#X connect 2 0 16 0;
#X connect 4 0 13 0;
#X connect 5 0 6 0;
#X connect 5 0 7 0;
#X connect 5 0 23 0;
#X connect 6 0 12 0;
#X connect 7 0 5 1;
#X connect 8 0 9 0;
#X connect 9 0 14 0;
#X connect 10 0 9 1;
#X connect 10 0 15 0;
#X connect 11 0 9 1;
#X connect 11 0 15 0;
#X connect 12 0 10 0;
#X connect 12 1 11 0;
#X connect 13 0 5 0;
#X connect 15 0 19 0;
#X connect 16 0 17 0;
#X connect 17 0 5 0;
#X coords 0 -1 1 1 100 100 2 100 100;
