#N canvas 48 136 955 1027 10;
#X obj 102 114 cnv 15 95 130 empty empty empty 20 12 0 14 -162280 -66577
0;
#X obj 359 409 *~;
#X obj 363 351 *~;
#X obj 159 119 vsl 30 115 0.001 15 0 0 empty empty empty 0 -9 0 10
-262144 -1 -1 0 1;
#X obj 358 437 *~ 1;
#X text 346 495 cosine wave folder;
#X obj 343 308 /~ 2;
#X obj 351 464 -~ 0;
#X msg 414 378 1;
#X obj 406 113 snapshot~;
#X obj 409 61 tgl 15 0 empty empty empty 17 7 0 10 -262144 -1 -1 1
1;
#X obj 401 37 loadbang;
#X obj 402 89 metro 1;
#X obj 403 312 clip 0.7 25;
#X obj 367 209 +;
#X text 417 162 trim;
#X obj 387 161 * 9;
#X obj 361 384 cos~;
#X text 102 103 in;
#X text 178 103 cv;
#X text 103 233 out;
#X text 105 165 ## FOLD;
#X obj 306 16 inlet~ in;
#X obj 377 14 inlet~ cv;
#X obj 256 530 outlet~ out;
#X obj 247 396 clip~ -1 1;
#X obj 539 331 snapshot~;
#X obj 542 279 tgl 15 0 empty empty empty 17 7 0 10 -262144 -1 -1 1
1;
#X obj 534 255 loadbang;
#X obj 535 307 metro 1;
#X text 575 359 how can we get zero crossings?;
#X obj 374 262 line;
#X obj 374 240 pack 0 100;
#X connect 1 0 4 0;
#X connect 2 0 17 0;
#X connect 3 0 14 1;
#X connect 4 0 7 0;
#X connect 6 0 2 0;
#X connect 7 0 24 0;
#X connect 7 0 25 0;
#X connect 8 0 1 1;
#X connect 9 0 16 0;
#X connect 10 0 12 0;
#X connect 11 0 10 0;
#X connect 12 0 9 0;
#X connect 13 0 2 1;
#X connect 13 0 8 0;
#X connect 14 0 32 0;
#X connect 16 0 14 0;
#X connect 17 0 1 0;
#X connect 22 0 6 0;
#X connect 22 0 26 0;
#X connect 23 0 9 0;
#X connect 27 0 29 0;
#X connect 28 0 27 0;
#X connect 29 0 26 0;
#X connect 31 0 13 0;
#X connect 32 0 31 0;
#X coords 0 -1 1 1 100 150 2 100 100;
