#N canvas 0 0 1920 1054 10;
#X obj 1309 -273 cnv 15 498 160 empty empty empty 20 12 0 14 -260279
-66577 0;
#X obj 1544 -272 cnv 15 113 76 empty empty empty 20 12 0 14 -2432 -262144
0;
#X obj 1320 -272 cnv 15 113 76 empty empty empty 20 12 0 14 -2432 -262144
0;
#X obj 766 -306 float;
#X obj 1321 -249 hradio 28 0 0 16 empty empty empty 0 -8 0 10 -3969
-258625 -3969 2;
#X obj 767 -121 select 0 1 2 3 4 5 6 7 8 9 10 11 12 13 14 15;
#X obj 378 72 spigot;
#X floatatom 407 9 5 0 0 0 - - -, f 5;
#X obj 438 72 spigot;
#X floatatom 467 9 5 0 0 0 - - -, f 5;
#X obj 497 73 spigot;
#X floatatom 526 10 5 0 0 0 - - -, f 5;
#X obj 557 73 spigot;
#X floatatom 586 10 5 0 0 0 - - -, f 5;
#X obj 626 74 spigot;
#X floatatom 655 11 5 0 0 0 - - -, f 5;
#X obj 686 74 spigot;
#X floatatom 715 11 5 0 0 0 - - -, f 5;
#X obj 745 75 spigot;
#X floatatom 774 12 5 0 0 0 - - -, f 5;
#X obj 805 75 spigot;
#X floatatom 834 12 5 0 0 0 - - -, f 5;
#X obj 865 75 spigot;
#X floatatom 894 12 5 0 0 0 - - -, f 5;
#X obj 925 75 spigot;
#X floatatom 954 12 5 0 0 0 - - -, f 5;
#X obj 984 76 spigot;
#X floatatom 1013 13 5 0 0 0 - - -, f 5;
#X obj 1044 76 spigot;
#X floatatom 1073 13 5 0 0 0 - - -, f 5;
#X obj 1113 77 spigot;
#X floatatom 1142 14 5 0 0 0 - - -, f 5;
#X obj 1173 77 spigot;
#X floatatom 1202 14 5 0 0 0 - - -, f 5;
#X obj 1252 78 spigot;
#X floatatom 1281 15 5 0 0 0 - - -, f 5;
#X obj 1351 78 spigot;
#X floatatom 1380 15 5 0 0 0 - - -, f 5;
#X text 598 -398 reset;
#X floatatom 769 -246 5 0 0 0 - - -, f 5;
#X floatatom 705 -422 5 1 16 0 - - -, f 5;
#X text 708 -401 length;
#X obj 836 -307 +;
#X msg 863 -371 1;
#X msg 902 -371 -1;
#X obj 653 -340 sel;
#X obj 658 -309 bng 15 250 50 0 empty empty empty 17 7 0 10 -262144
-1 -1;
#X obj 769 -270 mod 16;
#X msg 662 -285 0;
#N canvas 76 24 1095 629 seq1_toggles 0;
#X obj 154 -148 tgl 15 0 empty empty empty 17 7 0 10 -262144 -1 -1
0 1;
#X obj 185 -148 tgl 15 0 empty empty empty 17 7 0 10 -262144 -1 -1
1 1;
#X obj 210 -148 tgl 15 0 empty empty empty 17 7 0 10 -262144 -1 -1
0 1;
#X obj 238 -148 tgl 15 0 empty empty empty 17 7 0 10 -262144 -1 -1
0 1;
#X obj 270 -148 tgl 15 0 empty empty empty 17 7 0 10 -262144 -1 -1
1 1;
#X obj 302 -148 tgl 15 0 empty empty empty 17 7 0 10 -262144 -1 -1
0 1;
#X obj 330 -148 tgl 15 0 empty empty empty 17 7 0 10 -262144 -1 -1
0 1;
#X obj 359 -148 tgl 15 0 empty empty empty 17 7 0 10 -262144 -1 -1
0 1;
#X obj 389 -148 tgl 15 0 empty empty empty 17 7 0 10 -262144 -1 -1
0 1;
#X obj 420 -148 tgl 15 0 empty empty empty 17 7 0 10 -262144 -1 -1
1 1;
#X obj 450 -148 tgl 15 0 empty empty empty 17 7 0 10 -262144 -1 -1
0 1;
#X obj 473 -148 tgl 15 0 empty empty empty 17 7 0 10 -262144 -1 -1
0 1;
#X obj 499 -148 tgl 15 0 empty empty empty 17 7 0 10 -262144 -1 -1
1 1;
#X obj 529 -148 tgl 15 0 empty empty empty 17 7 0 10 -262144 -1 -1
0 1;
#X obj 554 -148 tgl 15 0 empty empty empty 17 7 0 10 -262144 -1 -1
0 1;
#X obj 579 -148 tgl 15 0 empty empty empty 17 7 0 10 -262144 -1 -1
0 1;
#X msg 349 -312 0;
#X obj 92 -120 s \$0-g1s1;
#X obj 125 -83 s \$0-g1s2;
#X obj 168 -109 s \$0-g1s3;
#X obj 225 -7 s \$0-g1s4;
#X obj 180 -53 s \$0-g1s5;
#X obj 272 -6 s \$0-g1s6;
#X obj 233 -81 s \$0-g1s7;
#X obj 315 42 s \$0-g1s8;
#X obj 276 -53 s \$0-g1s9;
#X obj 335 -102 s \$0-g1s11;
#X obj 360 -9 s \$0-g1s10;
#X obj 412 -45 s \$0-g1s13;
#X obj 447 -5 s \$0-g1s12;
#X obj 495 -32 s \$0-g1s14;
#X obj 574 -81 s \$0-g1s16;
#X obj 547 11 s \$0-g1s15;
#X obj 344 -344 r \$0-clear_steps;
#X connect 0 0 17 0;
#X connect 1 0 18 0;
#X connect 2 0 19 0;
#X connect 3 0 20 0;
#X connect 4 0 21 0;
#X connect 5 0 22 0;
#X connect 6 0 23 0;
#X connect 7 0 24 0;
#X connect 8 0 25 0;
#X connect 9 0 27 0;
#X connect 10 0 26 0;
#X connect 11 0 29 0;
#X connect 12 0 28 0;
#X connect 13 0 30 0;
#X connect 14 0 32 0;
#X connect 15 0 31 0;
#X connect 16 0 0 0;
#X connect 16 0 1 0;
#X connect 16 0 2 0;
#X connect 16 0 3 0;
#X connect 16 0 4 0;
#X connect 16 0 5 0;
#X connect 16 0 7 0;
#X connect 16 0 8 0;
#X connect 16 0 9 0;
#X connect 16 0 10 0;
#X connect 16 0 11 0;
#X connect 16 0 12 0;
#X connect 16 0 13 0;
#X connect 16 0 14 0;
#X connect 16 0 15 0;
#X connect 16 0 6 0;
#X connect 33 0 16 0;
#X coords 0 -1 1 1 450 30 2 150 -153;
#X restore 1320 -220 pd seq1_toggles;
#X obj 1091 -420 bng 15 250 50 0 empty empty empty 17 7 0 10 -262144
-1 -1;
#X obj 1093 -476 tgl 20 0 empty empty empty 17 7 0 10 -262144 -1 -1
0 1;
#X floatatom 1349 -163 5 0 0 0 - - -, f 5;
#X msg 673 -419 16;
#X obj 1776 -249 bng 28 80 50 0 empty empty empty 17 7 0 10 -262144
-258625 -1;
#X text 868 -397 direction;
#X obj 674 -455 loadbang;
#X obj 866 -442 loadbang;
#X msg 633 -385 16;
#X obj 637 -138 bng 15 250 50 0 empty empty empty 17 7 0 10 -262144
-1 -1;
#X obj 641 -222 + 1;
#X floatatom 642 -197 5 0 0 0 - - -, f 5;
#X obj 640 -169 select 1;
#X obj 1093 -452 metro 150;
#X obj 236 -445 inlet~ clock;
#X obj 243 -388 threshold~ 0.1 1 1 1;
#X obj 1524 310 outlet~ out;
#X obj 1525 272 sig~;
#X msg 1511 208 1;
#X msg 1584 242 0;
#X obj 1541 171 bng 15 250 50 0 empty empty empty 17 7 0 10 -262144
-1 -1;
#X obj 1560 209 del 2;
#X text 1310 -290 clock;
#X text 1496 -275 ## GATE SEQUENCER ##;
#X obj 1601 -162 bng 36 250 50 0 empty empty empty 17 7 0 10 -262144
-1 -1;
#X obj 403 -388 threshold~ 0.1 1 1 1;
#X obj 396 -445 inlet~ reset;
#X floatatom 1455 -163 5 1 16 0 - - -, f 5;
#X obj 847 -266 r length;
#X obj 1234 -198 loadbang;
#X msg 1241 -158 16;
#X text 463 339 adapted from CB's drum machine \, circa 2016;
#X text 1320 -163 step;
#X text 1414 -163 length;
#X text 1310 -111 gate out;
#X text 1773 -290 reset;
#X text 1513 -164 clear pattern;
#X obj 1320 -257 cnv 15 85 6 empty empty empty 20 12 0 14 -260353 -262144
0;
#X obj 1489 -256 cnv 15 85 6 empty empty empty 20 12 0 14 -260353 -262144
0;
#X obj 1657 -255 cnv 15 85 6 empty empty empty 20 12 0 14 -260353 -262144
0;
#X obj 401 -28 r \$0-g1s1;
#X obj 461 -28 r \$0-g1s2;
#X obj 520 -27 r \$0-g1s3;
#X obj 580 -27 r \$0-g1s4;
#X obj 649 -26 r \$0-g1s5;
#X obj 709 -26 r \$0-g1s6;
#X obj 768 -25 r \$0-g1s7;
#X obj 829 -25 r \$0-g1s8;
#X obj 888 -25 r \$0-g1s9;
#X obj 948 -25 r \$0-g1s10;
#X obj 1007 -24 r \$0-g1s11;
#X obj 1067 -24 r \$0-g1s12;
#X obj 1136 -23 r \$0-g1s13;
#X obj 1196 -23 r \$0-g1s14;
#X obj 1290 -22 r \$0-g1s15;
#X obj 1374 -22 r \$0-g1s16;
#X obj 331 99 s \$0-gate1;
#X obj 416 99 s \$0-gate1;
#X obj 474 139 s \$0-gate1;
#X obj 521 100 s \$0-gate1;
#X obj 612 120 s \$0-gate1;
#X obj 688 101 s \$0-gate1;
#X obj 742 128 s \$0-gate1;
#X obj 794 108 s \$0-gate1;
#X obj 867 137 s \$0-gate1;
#X obj 927 102 s \$0-gate1;
#X obj 986 133 s \$0-gate1;
#X obj 1046 103 s \$0-gate1;
#X obj 1115 135 s \$0-gate1;
#X obj 1175 104 s \$0-gate1;
#X obj 1258 129 s \$0-gate1;
#X obj 1353 105 s \$0-gate1;
#X obj 1781 -327 r \$0-gate1;
#X obj 1598 -90 s \$0-clear_steps;
#X obj 1238 -104 s \$0-length;
#X obj 1184 -352 r \$0-seq1step;
#X obj 1092 -393 s \$0-clock;
#X obj 595 -442 r \$0-reset;
#X obj 247 -345 s \$0-clock;
#X obj 407 -345 s \$0-reset;
#X obj 567 -360 r \$0-reset;
#X obj 766 -191 s \$0-seq1step;
#X obj 768 -151 r \$0-seq1step;
#X obj 775 -337 r \$0-clock;
#X obj 1538 125 r \$0-gate1;
#X obj 1741 -162 bng 36 250 50 0 empty empty empty 17 7 0 10 -262144
-1 -1;
#X text 1701 -164 reset;
#X obj 1741 -87 s \$0-reset;
#X obj 740 -446 r \$0-length;
#X connect 3 0 42 0;
#X connect 3 0 47 0;
#X connect 5 1 8 0;
#X connect 5 2 10 0;
#X connect 5 3 12 0;
#X connect 5 4 14 0;
#X connect 5 5 16 0;
#X connect 5 6 18 0;
#X connect 5 7 20 0;
#X connect 5 8 22 0;
#X connect 5 9 24 0;
#X connect 5 10 26 0;
#X connect 5 11 28 0;
#X connect 5 12 30 0;
#X connect 5 13 32 0;
#X connect 5 14 34 0;
#X connect 5 15 36 0;
#X connect 6 0 106 0;
#X connect 7 0 6 1;
#X connect 8 0 107 0;
#X connect 9 0 8 1;
#X connect 10 0 108 0;
#X connect 11 0 10 1;
#X connect 12 0 109 0;
#X connect 13 0 12 1;
#X connect 14 0 110 0;
#X connect 15 0 14 1;
#X connect 16 0 111 0;
#X connect 17 0 16 1;
#X connect 18 0 112 0;
#X connect 19 0 18 1;
#X connect 20 0 113 0;
#X connect 21 0 20 1;
#X connect 22 0 114 0;
#X connect 23 0 22 1;
#X connect 24 0 115 0;
#X connect 25 0 24 1;
#X connect 26 0 116 0;
#X connect 27 0 26 1;
#X connect 28 0 117 0;
#X connect 29 0 28 1;
#X connect 30 0 118 0;
#X connect 31 0 30 1;
#X connect 32 0 119 0;
#X connect 33 0 32 1;
#X connect 34 0 120 0;
#X connect 35 0 34 1;
#X connect 36 0 121 0;
#X connect 37 0 36 1;
#X connect 39 0 45 0;
#X connect 39 0 60 0;
#X connect 39 0 131 0;
#X connect 40 0 45 1;
#X connect 42 0 3 1;
#X connect 43 0 42 1;
#X connect 44 0 42 1;
#X connect 45 0 46 0;
#X connect 46 0 48 0;
#X connect 47 0 39 0;
#X connect 48 0 3 0;
#X connect 50 0 126 0;
#X connect 51 0 63 0;
#X connect 53 0 45 1;
#X connect 56 0 53 0;
#X connect 57 0 43 0;
#X connect 59 0 6 0;
#X connect 60 0 61 0;
#X connect 61 0 62 0;
#X connect 62 0 59 0;
#X connect 63 0 50 0;
#X connect 64 0 65 0;
#X connect 65 0 128 0;
#X connect 67 0 66 0;
#X connect 68 0 67 0;
#X connect 69 0 67 0;
#X connect 70 0 68 0;
#X connect 70 0 71 0;
#X connect 71 0 69 0;
#X connect 74 0 123 0;
#X connect 75 0 129 0;
#X connect 76 0 75 0;
#X connect 77 0 124 0;
#X connect 78 0 47 1;
#X connect 79 0 80 0;
#X connect 80 0 77 0;
#X connect 90 0 7 0;
#X connect 91 0 9 0;
#X connect 92 0 11 0;
#X connect 93 0 13 0;
#X connect 94 0 15 0;
#X connect 95 0 17 0;
#X connect 96 0 19 0;
#X connect 97 0 21 0;
#X connect 98 0 23 0;
#X connect 99 0 25 0;
#X connect 100 0 27 0;
#X connect 101 0 29 0;
#X connect 102 0 31 0;
#X connect 103 0 33 0;
#X connect 104 0 35 0;
#X connect 105 0 37 0;
#X connect 122 0 54 0;
#X connect 125 0 52 0;
#X connect 125 0 4 0;
#X connect 127 0 58 0;
#X connect 130 0 46 0;
#X connect 132 0 5 0;
#X connect 133 0 3 0;
#X connect 134 0 70 0;
#X connect 135 0 137 0;
#X connect 138 0 45 1;
#X coords 0 -1 1 1 500 200 2 1308 -291;
