#N canvas 0 22 1440 763 12;
#X text 1335 994 www.pd-tutorial.com;
#X text 1352 967 Johannes Kreidler;
#X text 1336 929 3.7.2.1. Granular live from http://www.pd-tutorial.com/english/ch03s07.html
;
#X obj 102 110 cnv 15 245 180 empty empty empty 20 12 0 14 -167915
-66577 0;
#X obj 449 744 vd~ b1;
#X obj 425 407 phasor~;
#X obj 426 587 *~ -1;
#X obj 426 612 +~ 1;
#X obj 526 701 sig~ 1;
#X obj 591 709 cos~;
#X obj 527 734 -~;
#X obj 528 759 *~ 0.5;
#X obj 449 788 *~;
#X obj 457 674 samphold~;
#X obj 426 701 *~;
#X obj 458 646 sig~;
#X floatatom 535 386 5 0 0 0 - - -;
#X floatatom 488 309 10 0 0 0 - - -;
#X floatatom 457 369 5 0 0 0 - - -;
#X floatatom 611 260 5 0 0 0 - - -;
#X obj 611 281 t b f;
#X obj 535 360 / 44.1;
#X obj 836 724 vd~ b1;
#X obj 812 556 *~ -1;
#X obj 813 589 +~ 1;
#X obj 906 685 sig~ 1;
#X obj 970 692 cos~;
#X obj 907 716 -~;
#X obj 908 741 *~ 0.5;
#X obj 835 773 *~;
#X obj 847 654 samphold~;
#X obj 813 681 *~;
#X obj 848 626 sig~;
#X obj 833 491 wrap~;
#X obj 165 134 vsl 15 128 -990 20000 0 0 empty empty empty 0 -8 0 8
-262144 -1 -1 11100 1;
#X obj 481 227 t b f;
#X obj 240 132 vsl 15 128 -60 64 0 0 empty empty empty 0 -8 0 8 -262144
-1 -1 12700 1;
#X obj 488 330 expr (pow(2 \, ($f2/12)) - 1) * (44100/$f1);
#X text 505 30 30000;
#X text 451 9 window width;
#X text 630 734 another way to;
#X text 604 760 make a Hanning window;
#X text 780 417 spacetime?;
#X obj 314 131 vsl 15 128 0.1 10 0 0 empty empty empty 0 -9 0 10 -262144
-1 -1 12700 1;
#X floatatom 225 333 5 0 0 0 - - -;
#X obj 689 989 delwrite~ b1 2000;
#X obj 503 985 outlet~ out;
#X obj 580 11 inlet~ window;
#X obj 750 11 inlet~ pitch;
#X obj 900 11 inlet~ spacetime;
#X obj 135 833 inlet~ in;
#X obj 626 104 snapshot~;
#X obj 645 62 tgl 15 0 empty empty empty 17 7 0 10 -262144 -1 -1 1
1;
#X obj 647 39 loadbang;
#X obj 644 81 metro 1;
#X floatatom 614 156 5 0 0 0 - - -;
#X obj 475 819 *~ 1;
#X text 102 103 in;
#X text 147 103 window;
#X text 219 102 pitch;
#X obj 403 59 +;
#X obj 457 153 line;
#X obj 448 128 pack 0 10;
#X floatatom 318 358 10 0 0 0 - - -;
#X obj 434 96 clip 100 9.9e+07;
#X floatatom 372 231 10 0 0 0 - - -;
#X obj 615 133 * 1000;
#X obj 754 111 snapshot~;
#X obj 773 69 tgl 15 0 empty empty empty 17 7 0 10 -262144 -1 -1 1
1;
#X obj 775 46 loadbang;
#X obj 772 88 metro 1;
#X floatatom 731 170 5 0 0 0 - - -;
#X obj 611 212 +;
#X obj 743 140 * 20;
#X obj 1123 131 snapshot~;
#X obj 1142 89 tgl 15 0 empty empty empty 17 7 0 10 -262144 -1 -1 1
1;
#X obj 1144 66 loadbang;
#X obj 1141 108 metro 1;
#X obj 847 206 +;
#X floatatom 811 335 5 0 0 0 - - -;
#X obj 823 255 clip 0.1 9999;
#X obj 1112 160 * 3;
#X text 278 102 spacetime;
#X text 101 281 out;
#X text 104 183 :::::;
#X text 103 142 :::::;
#X text 102 163 GRAINS;
#X floatatom 926 373 5 0.1 3 0 - - -;
#X obj 1017 303 vsl 15 128 0.1 10 0 0 empty empty empty 0 -9 0 10 -262144
-1 -1 0 1;
#X obj 833 457 +~;
#X obj 430 934 *~;
#X obj 564 926 *~;
#X obj 136 228 tgl 15 0 empty empty empty 17 7 0 10 -262144 -1 -1 1
1;
#X msg 291 812 1;
#X msg 374 812 1;
#X obj 299 742 select 1;
#X obj 291 773 bng 15 250 50 0 empty empty empty 17 7 0 10 -262144
-1 -1;
#X obj 358 777 bng 15 250 50 0 empty empty empty 17 7 0 10 -262144
-1 -1;
#X msg 321 813 0;
#X msg 411 811 0;
#X obj 416 897 tgl 15 0 empty empty empty 17 7 0 10 -262144 -1 -1 0
1;
#X obj 538 890 tgl 15 0 empty empty empty 17 7 0 10 -262144 -1 -1 1
1;
#X obj 596 870 lop~;
#X obj 857 881 hsl 128 15 50 12000 0 0 empty empty empty -2 -8 0 10
-262144 -1 -1 6323 1;
#X floatatom 875 902 5 0 0 0 - - -;
#X text 106 226 lpf;
#X obj 54 42 loadbang;
#X msg 46 88 0;
#X obj 1161 803 loadbang;
#X msg 1172 846 6000;
#X connect 4 0 12 0;
#X connect 5 0 6 0;
#X connect 5 0 9 0;
#X connect 5 0 13 1;
#X connect 5 0 89 0;
#X connect 6 0 7 0;
#X connect 7 0 14 0;
#X connect 8 0 10 0;
#X connect 9 0 10 1;
#X connect 10 0 11 0;
#X connect 11 0 12 1;
#X connect 12 0 56 0;
#X connect 13 0 14 1;
#X connect 14 0 4 0;
#X connect 15 0 13 0;
#X connect 16 0 32 0;
#X connect 16 0 15 0;
#X connect 17 0 21 0;
#X connect 17 0 37 0;
#X connect 18 0 5 0;
#X connect 19 0 20 0;
#X connect 20 0 17 0;
#X connect 20 1 37 1;
#X connect 21 0 16 0;
#X connect 22 0 29 0;
#X connect 23 0 24 0;
#X connect 24 0 31 0;
#X connect 25 0 27 0;
#X connect 26 0 27 1;
#X connect 27 0 28 0;
#X connect 28 0 29 1;
#X connect 29 0 45 0;
#X connect 29 0 56 0;
#X connect 30 0 31 1;
#X connect 31 0 22 0;
#X connect 32 0 30 0;
#X connect 33 0 23 0;
#X connect 33 0 30 1;
#X connect 33 0 26 0;
#X connect 34 0 60 1;
#X connect 35 0 19 0;
#X connect 35 1 17 0;
#X connect 36 0 72 1;
#X connect 37 0 18 0;
#X connect 43 0 44 0;
#X connect 43 0 87 0;
#X connect 47 0 51 0;
#X connect 48 0 67 0;
#X connect 49 0 74 0;
#X connect 50 0 45 0;
#X connect 51 0 66 0;
#X connect 52 0 54 0;
#X connect 53 0 52 0;
#X connect 54 0 51 0;
#X connect 55 0 60 0;
#X connect 56 0 90 1;
#X connect 56 0 102 0;
#X connect 60 0 63 0;
#X connect 60 0 64 0;
#X connect 61 0 35 0;
#X connect 62 0 61 0;
#X connect 64 0 62 0;
#X connect 64 0 65 0;
#X connect 66 0 55 0;
#X connect 67 0 73 0;
#X connect 68 0 70 0;
#X connect 69 0 68 0;
#X connect 70 0 67 0;
#X connect 71 0 72 0;
#X connect 72 0 19 0;
#X connect 73 0 71 0;
#X connect 74 0 81 0;
#X connect 75 0 77 0;
#X connect 76 0 75 0;
#X connect 77 0 74 0;
#X connect 78 0 80 0;
#X connect 87 0 89 1;
#X connect 88 0 87 0;
#X connect 89 0 33 0;
#X connect 90 0 46 0;
#X connect 91 0 46 0;
#X connect 92 0 95 0;
#X connect 93 0 101 0;
#X connect 94 0 100 0;
#X connect 95 0 96 0;
#X connect 95 1 97 0;
#X connect 96 0 93 0;
#X connect 96 0 98 0;
#X connect 97 0 94 0;
#X connect 97 0 99 0;
#X connect 98 0 100 0;
#X connect 99 0 101 0;
#X connect 100 0 90 0;
#X connect 101 0 91 0;
#X connect 102 0 91 1;
#X connect 103 0 102 1;
#X connect 103 0 104 0;
#X connect 106 0 107 0;
#X connect 107 0 92 0;
#X connect 108 0 109 0;
#X connect 109 0 103 0;
#X coords 0 -1 1 1 250 200 2 100 100;
