#N canvas 4 22 1378 996 10;
#X obj 105 529 delread~ ka;
#X obj 297 654 *~ 0.5;
#X text 320 672 current and previous sample averaged;
#X obj 700 621 mtof;
#X obj 698 694 /;
#X obj 698 641 t b f;
#X text 728 666 convert Hz to ms;
#X obj 235 874 outlet~;
#X obj 414 593 bng 15 250 50 0 empty empty empty 17 7 0 10 -262144
-1 -1;
#X obj 435 516 snapshot~;
#X floatatom 427 541 5 0 0 0 - - -, f 5;
#X obj 438 464 tgl 15 0 empty empty empty 17 7 0 10 -262144 -1 -1 1
1;
#X obj 430 440 loadbang;
#X obj 431 492 metro 1;
#X obj 421 563 sel 1;
#X obj 331 440 inlet~ trigger;
#X obj 702 462 inlet~ pitch;
#X text 297 848 1 pole LP filter;
#X text 93 501 feedback;
#N canvas 749 264 793 702 exciter 0;
#X obj 431 59 inlet bang;
#X obj 301 262 line~;
#X obj 25 191 noise~;
#X obj 154 388 *~;
#X obj 349 187 bng 15 250 50 0 empty empty empty 17 7 0 10 -262144
-1 -1;
#X obj 137 424 outlet~;
#X text 336 225 hit;
#X obj 119 345 lop~ 20000;
#X obj 61 606 hradio 15 1 0 2 empty empty empty 0 -8 0 10 -262144 -1
-1 0;
#X obj 61 546 float;
#X obj 58 578 mod 2;
#X obj 112 545 + 1;
#X obj 75 631 sel 0;
#X msg 282 222 1 \, 0 2;
#X obj 42 4 r \$0-noise-lev;
#X obj 53 232 *~;
#X obj 193 259 r \$0-sine-lev;
#X obj 131 285 *~;
#X obj 129 95 r \$0-sine-pitch;
#X floatatom 96 209 5 0 0 0 - - -, f 5;
#X obj 148 232 osc~;
#X obj 184 177 +;
#X obj 235 98 r \$0-sine-cv;
#X floatatom 266 142 5 0 0 0 - - -, f 5;
#X floatatom 161 118 5 0 0 0 - - -, f 5;
#X connect 0 0 4 0;
#X connect 1 0 3 1;
#X connect 2 0 15 0;
#X connect 3 0 5 0;
#X connect 4 0 13 0;
#X connect 7 0 3 0;
#X connect 8 0 12 0;
#X connect 9 0 10 0;
#X connect 9 0 11 0;
#X connect 10 0 8 0;
#X connect 11 0 9 1;
#X connect 13 0 1 0;
#X connect 14 0 15 1;
#X connect 15 0 7 0;
#X connect 16 0 17 1;
#X connect 17 0 7 0;
#X connect 18 0 19 0;
#X connect 18 0 21 1;
#X connect 18 0 24 0;
#X connect 20 0 17 0;
#X connect 21 0 20 0;
#X connect 22 0 23 0;
#X connect 22 0 21 0;
#X restore 410 619 pd exciter;
#X obj 698 489 cv2midi;
#X text 1068 874 heavily modified based on a patch found here: http://www.timvets.net/video/puredata4.php?page=software
;
#X text 288 608 delay time;
#X text 316 718 this delay time must be longer than the z~ del;
#N canvas 407 22 906 716 filtering 0;
#X obj 130 15 inlet~;
#X obj 146 625 outlet~;
#X obj 128 571 *~ 1;
#X obj 260 19 inlet timbre;
#X obj 151 167 lop~ 5000;
#X text 450 111 it would be cool to do some convolution here I wonder
if that's how other physical modeling synths work ...stick a "violin
body" here or something;
#X floatatom 287 65 20 0 0 0 - - -, f 20;
#X connect 0 0 4 0;
#X connect 2 0 1 0;
#X connect 3 0 4 1;
#X connect 3 0 6 0;
#X connect 4 0 2 0;
#X restore 15 567 pd filtering;
#X obj 243 666 *~ 0.5;
#X msg 682 665 1000;
#X floatatom 693 517 5 0 0 0 - - -, f 5;
#X floatatom 703 574 5 0 0 0 - - -, f 5;
#X text 730 543 make this "i" for western pitches;
#X obj 698 598 +;
#X obj 207 597 *~ 0.5;
#X obj 439 171 vsl 30 128 1 6000 0 0 empty empty empty 0 -9 0 10 -262144
-1 -1 350 1;
#X text 421 153 body timbre;
#X obj 268 171 vsl 30 128 0 0.99 0 0 empty empty empty 0 -9 0 10 -262144
-1 -1 12350 1;
#X text 263 153 decay1;
#X obj 702 543 * 1;
#X obj 185 759 *~ 1;
#X obj 875 241 snapshot~;
#X floatatom 867 266 5 0 0 0 - - -, f 5;
#X obj 878 189 tgl 15 0 empty empty empty 17 7 0 10 -262144 -1 -1 1
1;
#X obj 870 165 loadbang;
#X obj 871 217 metro 1;
#X obj 755 166 inlet~ timbre_cv;
#X text 908 266 between -1 and 1;
#X floatatom 875 346 20 0 0 0 - - -, f 20;
#X obj 873 318 + 3000;
#X obj 868 293 * 3000;
#X obj 52 481 +;
#X obj 98 372 bng 15 250 50 0 empty empty empty 17 7 0 10 -262144 -1
-1;
#X obj 873 371 s \$0-timbre_cv;
#X obj -20 426 r \$0-timbre_cv;
#X obj 702 731 s \$0-pitch;
#X obj 127 463 r \$0-pitch;
#X text 430 128 ---- BODY -----;
#X obj 286 625 z~ 2;
#X obj 278 741 delwrite~ ka 400;
#X obj 244 830 lop~ 5000;
#X obj 641 171 vsl 30 128 500 6000 0 0 empty empty empty 0 -9 0 10
-262144 -1 -1 12700 1;
#X text 612 128 --- POST ---;
#X text 618 153 LP filter;
#X obj 666 359 s \$0-lp-filter;
#X obj 284 783 r \$0-lp-filter;
#X obj 698 36 loadbang;
#X msg 700 64 5000;
#X text 104 102 trigger;
#X text 300 103 pitch cv;
#X text 484 102 timbre cv;
#X text 107 320 output;
#X obj 117 171 vsl 30 128 0 1 0 0 \$0-noise-lev empty empty 0 -9 0
10 -262144 -1 -1 12700 1;
#X text 112 141 noise;
#X obj 213 171 vsl 30 128 0 1 0 0 \$0-sine-lev empty empty 0 -9 0 10
-262144 -1 -1 9700 1;
#X text 194 141 sine;
#X obj 173 171 vsl 30 128 20 2000 0 0 \$0-sine-pitch empty empty 0
-9 0 10 -262144 -1 -1 6800 1;
#X text 213 153 level;
#X text 182 153 fq;
#X obj 176 38 loadbang;
#X msg 175 67 1000;
#X msg 233 70 0.5;
#X obj 429 24 loadbang;
#X msg 437 73 2000;
#X text 117 128 ----------- EXCITER ----;
#X obj 1014 467 inlet~ sine-cv;
#X obj 1070 675 s \$0-sine-cv;
#X obj 1112 577 snapshot~;
#X floatatom 1104 602 5 0 0 0 - - -, f 5;
#X obj 1115 525 tgl 15 0 empty empty empty 17 7 0 10 -262144 -1 -1
1 1;
#X obj 1107 501 loadbang;
#X obj 1108 553 metro 1;
#X obj 1087 637 * 1000;
#X text 646 101 sine cv;
#X text 275 126 #### KARPLUS-STRONG ####;
#X connect 0 0 24 0;
#X connect 0 0 37 0;
#X connect 1 0 56 0;
#X connect 3 0 5 0;
#X connect 4 0 52 0;
#X connect 5 0 26 0;
#X connect 5 1 4 1;
#X connect 8 0 19 0;
#X connect 9 0 10 0;
#X connect 10 0 14 0;
#X connect 11 0 13 0;
#X connect 12 0 11 0;
#X connect 13 0 9 0;
#X connect 14 0 8 0;
#X connect 15 0 9 0;
#X connect 16 0 20 0;
#X connect 19 0 56 0;
#X connect 20 0 27 0;
#X connect 24 0 31 0;
#X connect 25 0 56 0;
#X connect 26 0 4 0;
#X connect 27 0 36 0;
#X connect 28 0 30 0;
#X connect 30 0 3 0;
#X connect 31 0 25 0;
#X connect 31 0 55 0;
#X connect 32 0 48 1;
#X connect 32 0 49 0;
#X connect 34 0 31 1;
#X connect 36 0 28 0;
#X connect 37 0 57 0;
#X connect 38 0 39 0;
#X connect 39 0 47 0;
#X connect 40 0 42 0;
#X connect 41 0 40 0;
#X connect 42 0 38 0;
#X connect 43 0 38 0;
#X connect 45 0 50 0;
#X connect 46 0 45 0;
#X connect 47 0 46 0;
#X connect 48 0 24 1;
#X connect 49 0 48 0;
#X connect 51 0 48 0;
#X connect 53 0 0 0;
#X connect 55 0 1 0;
#X connect 57 0 7 0;
#X connect 58 0 61 0;
#X connect 62 0 57 1;
#X connect 63 0 64 0;
#X connect 64 0 58 0;
#X connect 76 0 77 0;
#X connect 76 0 78 0;
#X connect 77 0 73 0;
#X connect 78 0 71 0;
#X connect 79 0 80 0;
#X connect 80 0 32 0;
#X connect 82 0 84 0;
#X connect 84 0 85 0;
#X connect 85 0 89 0;
#X connect 86 0 88 0;
#X connect 87 0 86 0;
#X connect 88 0 84 0;
#X connect 89 0 83 0;
#X coords 0 -1 1 1 600 240 2 100 100;
