#N canvas 401 74 985 596 10;
#X obj 175 60 vco;
#X obj 199 587 dac~;
#X obj 155 292 vco;
#X obj 375 404 vca;
#X obj 423 140 grains;
#X connect 0 0 2 0;
#X connect 0 0 4 2;
#X connect 2 0 4 0;
#X connect 3 0 1 0;
#X connect 4 0 3 0;
