#N canvas 28 31 483 474 10;
#X obj 21 55 notein;
#X obj 118 215 unpack f f f f;
#X floatatom 162 318 5 0 0 0 no. - -;
#X floatatom 162 341 5 0 0 0 chan. - -;
#X obj 105 342 tgl 15 0 \$0-snd \$0-rcv empty 17 7 0 10 -262144 -1
-1 0 1;
#X obj 142 55 ctlin;
#X obj 102 134 pack f f f f;
#X msg 102 105 2;
#X obj 102 78 t b f;
#X obj -2 134 pack f f f f;
#X obj -2 78 t b f;
#X msg -2 105 1;
#N canvas 555 210 553 301 learn 1;
#X obj 92 160 list-compare;
#X obj 161 134 spigot;
#X obj 65 193 spigot;
#X obj 92 112 t l l;
#X obj 92 88 list-delete 2 1;
#X obj 65 21 inlet;
#X obj 65 242 outlet;
#X obj 65 56 t l l;
#X msg 237 186 0;
#X obj 236 114 r \$0-snd;
#X obj 238 141 tgl 15 0 empty empty empty 17 7 0 10 -262144 -1 -1 0
1;
#X obj 237 212 s \$0-rcv;
#X connect 0 0 2 1;
#X connect 1 0 0 1;
#X connect 1 0 8 0;
#X connect 2 0 6 0;
#X connect 3 0 0 0;
#X connect 3 1 1 0;
#X connect 4 0 3 0;
#X connect 5 0 7 0;
#X connect 7 0 2 0;
#X connect 7 1 4 0;
#X connect 8 0 11 0;
#X connect 9 0 1 1;
#X connect 9 0 10 0;
#X restore 118 181 pd learn;
#X symbolatom 105 318 5 0 0 0 - - -;
#X obj 197 133 pack f f f f;
#X obj 197 77 t b f;
#X msg 197 104 3;
#X obj 220 54 pgmin;
#N canvas 304 353 450 300 sel_symbol 0;
#X obj 22 182 symbol note;
#X obj 22 55 select 1 2 3;
#X msg 85 157 symbol note;
#X msg 85 137 symbol ctl;
#X msg 85 117 symbol pgm;
#X obj 22 155 t b b;
#X obj 22 132 t b b;
#X obj 22 110 t b b;
#X obj 22 9 inlet;
#X obj 22 216 outlet;
#X msg 85 97 symbol ???;
#X obj 22 90 t b b;
#X connect 0 0 9 0;
#X connect 1 0 5 0;
#X connect 1 1 6 0;
#X connect 1 2 7 0;
#X connect 1 3 11 0;
#X connect 2 0 0 1;
#X connect 3 0 0 1;
#X connect 4 0 0 1;
#X connect 5 0 0 0;
#X connect 5 1 2 0;
#X connect 6 0 0 0;
#X connect 6 1 3 0;
#X connect 7 0 0 0;
#X connect 7 1 4 0;
#X connect 8 0 1 0;
#X connect 10 0 0 1;
#X connect 11 0 0 0;
#X connect 11 1 10 0;
#X restore 44 260 pd sel_symbol;
#X obj 64 401 outlet note_no.;
#X obj 178 402 outlet value;
#X obj 273 403 outlet chan_no.;
#X obj 44 238 ii 0;
#X text 19 8 To use \, hit the toggle and then press a note \, move
a knob \, or press a pgm button.;
#X connect 0 0 10 0;
#X connect 0 1 9 2;
#X connect 0 2 9 3;
#X connect 1 0 22 0;
#X connect 1 1 2 0;
#X connect 1 2 20 0;
#X connect 1 3 3 0;
#X connect 2 0 19 0;
#X connect 3 0 21 0;
#X connect 5 0 8 0;
#X connect 5 1 6 1;
#X connect 5 2 6 3;
#X connect 6 0 12 0;
#X connect 7 0 6 0;
#X connect 8 0 7 0;
#X connect 8 1 6 2;
#X connect 9 0 12 0;
#X connect 10 0 11 0;
#X connect 10 1 9 1;
#X connect 11 0 9 0;
#X connect 12 0 1 0;
#X connect 14 0 12 0;
#X connect 15 0 16 0;
#X connect 15 1 14 1;
#X connect 16 0 14 0;
#X connect 17 0 15 0;
#X connect 17 1 14 3;
#X connect 18 0 13 0;
#X connect 22 0 18 0;
#X coords 0 -1 1 1 100 65 1 100 300;
