#N canvas 729 22 648 664 10;
#X obj 123 391 cnv 15 199 163 empty empty empty 20 12 0 14 -3969 -66577
0;
#X msg 535 107 tempo \$1;
#X msg 324 108 resolution \$1;
#X msg 427 128 reset \$1 \$2;
#X obj 427 107 pack f f;
#X floatatom 434 226 5 0 0 1 beat_time - -, f 5;
#X floatatom 397 244 5 0 0 1 phase - -, f 5;
#X msg 256 217 \; pd dsp 1;
#X floatatom 336 261 5 0 0 1 step - -, f 5;
#X floatatom 471 205 5 0 0 1 tempo - -, f 5;
#X obj 203 395 tgl 32 0 empty empty empty 17 7 0 10 -262144 -1 -1 1
1;
#X obj 360 180 abl_link~ 1 0 4 134;
#X floatatom 535 88 5 0 0 2 tempo - -, f 5;
#X floatatom 472 88 5 0 0 2 quantum - -, f 5;
#X floatatom 427 88 5 0 0 2 beat - -, f 5;
#X floatatom 324 88 5 0 0 2 resolution - -, f 5;
#X msg 250 137 connect \$1;
#X floatatom 199 441 5 0 0 0 - - -, f 5;
#X obj 192 311 r #abl_link_num_peers;
#X msg 415 444 4;
#X text 162 373 ## ABLETON LINK ##;
#X obj 320 589 s \$0-resolution;
#X obj 345 19 r \$0-resolution;
#X obj 365 402 loadbang;
#X obj 494 248 s \$0-tempo;
#X obj 330 441 r \$0-tempo;
#X floatatom 272 493 5 0 0 0 - - -, f 5;
#X floatatom 273 523 5 1 8 0 - - -, f 5;
#X text 203 522 resolution;
#X text 232 498 tempo;
#X obj 276 395 bng 32 50 50 0 empty empty empty 17 7 0 10 -3969 -258625
-1;
#X text 131 438 # of peers;
#X obj 429 309 s \$0-phase;
#X floatatom 171 464 5 0 0 0 - - -, f 5;
#X obj 91 341 r \$0-phase;
#X text 129 465 phase;
#X obj 149 111 r \$0-connect;
#X obj 31 526 s \$0-connect;
#X text 146 401 connect;
#X text 127 491 time;
#X obj 510 300 s \$0-beat-time;
#X obj 13 428 r \$0-beat-time;
#X floatatom 170 491 8 0 0 0 - - -, f 8;
#X obj 462 846 outlet~ out;
#X obj 463 789 sig~;
#X msg 482 617 1;
#X msg 665 659 0;
#X obj 512 506 bng 15 250 50 0 empty empty empty 17 7 0 10 -262144
-1 -1;
#X obj 531 618 del 2;
#X text 124 550 clock;
#X msg 901 54 tempo \$1;
#X msg 690 55 resolution \$1;
#X msg 793 75 reset \$1 \$2;
#X obj 793 54 pack f f;
#X floatatom 800 173 5 0 0 1 beat_time - -, f 5;
#X floatatom 763 191 5 0 0 1 phase - -, f 5;
#X msg 622 164 \; pd dsp 1;
#X floatatom 726 213 5 0 0 1 step - -, f 5;
#X floatatom 837 152 5 0 0 1 tempo - -, f 5;
#X obj 613 35 tgl 15 0 empty empty empty 17 7 0 10 -262144 -1 -1 0
1;
#X obj 726 127 abl_link~ 1 0 4 134;
#X floatatom 901 35 5 0 0 2 tempo - -, f 5;
#X floatatom 838 35 5 0 0 2 quantum - -, f 5;
#X floatatom 793 35 5 0 0 2 beat - -, f 5;
#X floatatom 690 35 5 0 0 2 resolution - -, f 5;
#X msg 613 55 connect \$1;
#X floatatom 808 248 5 0 0 0 - - -, f 5;
#X obj 808 226 r #abl_link_num_peers;
#X connect 1 0 11 0;
#X connect 2 0 11 0;
#X connect 3 0 11 0;
#X connect 4 0 3 0;
#X connect 5 0 40 0;
#X connect 6 0 32 0;
#X connect 8 0 30 0;
#X connect 8 0 47 0;
#X connect 10 0 37 0;
#X connect 11 0 8 0;
#X connect 11 1 6 0;
#X connect 11 2 5 0;
#X connect 11 3 9 0;
#X connect 11 3 24 0;
#X connect 12 0 1 0;
#X connect 13 0 4 1;
#X connect 14 0 4 0;
#X connect 15 0 2 0;
#X connect 16 0 11 0;
#X connect 18 0 17 0;
#X connect 19 0 27 0;
#X connect 22 0 15 0;
#X connect 23 0 19 0;
#X connect 25 0 26 0;
#X connect 26 0 12 0;
#X connect 27 0 21 0;
#X connect 34 0 33 0;
#X connect 36 0 16 0;
#X connect 41 0 42 0;
#X connect 44 0 43 0;
#X connect 45 0 44 0;
#X connect 46 0 44 0;
#X connect 47 0 45 0;
#X connect 47 0 48 0;
#X connect 48 0 46 0;
#X connect 50 0 60 0;
#X connect 51 0 60 0;
#X connect 52 0 60 0;
#X connect 53 0 52 0;
#X connect 59 0 65 0;
#X connect 60 0 57 0;
#X connect 60 1 55 0;
#X connect 60 2 54 0;
#X connect 60 3 58 0;
#X connect 61 0 50 0;
#X connect 62 0 53 1;
#X connect 63 0 53 0;
#X connect 64 0 51 0;
#X connect 65 0 60 0;
#X connect 67 0 66 0;
#X coords 0 -1 1 1 200 200 2 122 369;
