#N canvas 34 23 775 726 10;
#X obj 100 116 cnv 15 97 80 empty empty empty 20 12 0 14 -204800 -66577
0;
#X text 112 117 ### LPG ###;
#X text 103 100 in;
#X text 178 100 cv;
#X text 101 182 out;
#X obj 220 95 snapshot~;
#X floatatom 223 122 5 0 0 0 - - -, f 5;
#X obj 230 48 tgl 15 0 empty empty empty 17 7 0 10 -262144 -1 -1 1
1;
#X obj 229 25 loadbang;
#X obj 129 137 bng 40 50 10 0 empty empty empty 17 7 0 10 -99865 -257985
-4160;
#X obj 222 153 spigot;
#X obj 350 -25 inlet~ in;
#X obj 425 652 outlet~ out;
#X obj 438 -28 inlet~ cv;
#X obj 396 410 *~;
#X obj 439 8 /~ 10;
#X obj 437 366 line~;
#X obj 414 227 bng 15 250 50 0 empty empty empty 17 7 0 10 -262144
-1 -1;
#X obj 516 306 delay 1;
#X text 450 290 attack;
#X text 557 341 decay;
#X obj 220 70 metro 1;
#X text 480 253 ENVELOPE;
#X obj 577 465 snapshot~;
#X obj 587 418 tgl 15 0 empty empty empty 17 7 0 10 -262144 -1 -1 1
1;
#X obj 586 395 loadbang;
#X obj 577 440 metro 1;
#X floatatom 577 495 5 0 0 0 - - -, f 5;
#X obj 420 485 lop~;
#X text 281 482 lp filter - 1st stage;
#X obj 420 516 lop~;
#X text 385 515 2nd;
#X obj 499 403 *~ 4000;
#X obj 424 569 lop~;
#X text 386 566 3rd;
#X obj 423 610 lop~;
#X text 392 610 4th;
#X msg 426 307 1 0;
#X msg 517 340 0 170;
#X text 471 434 change the filter cutoff (filter eg);
#X obj 517 33 bng 15 250 50 0 empty empty empty 17 7 0 10 -262144 -1
-1;
#X connect 5 0 6 0;
#X connect 6 0 10 1;
#X connect 6 0 10 0;
#X connect 7 0 21 0;
#X connect 8 0 7 0;
#X connect 10 0 9 0;
#X connect 10 0 17 0;
#X connect 11 0 14 0;
#X connect 13 0 15 0;
#X connect 14 0 28 0;
#X connect 15 0 5 0;
#X connect 16 0 14 1;
#X connect 16 0 32 0;
#X connect 17 0 37 0;
#X connect 17 0 18 0;
#X connect 18 0 38 0;
#X connect 21 0 5 0;
#X connect 23 0 27 0;
#X connect 23 0 28 1;
#X connect 23 0 30 1;
#X connect 23 0 33 1;
#X connect 23 0 35 1;
#X connect 24 0 26 0;
#X connect 25 0 24 0;
#X connect 26 0 23 0;
#X connect 28 0 30 0;
#X connect 30 0 33 0;
#X connect 32 0 23 0;
#X connect 33 0 35 0;
#X connect 35 0 12 0;
#X connect 37 0 16 0;
#X connect 38 0 16 0;
#X coords 0 -1 1 1 100 100 2 100 100;
