#N canvas 44 77 450 300 10;
#X obj 100 110 cnv 15 80 60 empty empty empty 20 12 0 14 -4032 -66577
0;
#X obj 282 87 snapshot~;
#X floatatom 283 112 5 0 0 0 - - -, f 5;
#X obj 293 44 tgl 15 0 empty empty empty 17 7 0 10 -262144 -1 -1 1
1;
#X obj 291 17 loadbang;
#X obj 282 62 metro 1;
#X obj 291 142 > 0;
#X floatatom 292 166 5 0 0 0 - - -, f 5;
#X obj 115 115 tgl 50 0 empty empty empty 17 7 0 10 -257985 -4160 -191407
1 1;
#X obj 135 261 outlet~;
#X obj 132 222 *~;
#X obj 32 37 inlet~;
#X text 104 100 MANUAL GATE;
#X connect 1 0 2 0;
#X connect 2 0 6 0;
#X connect 3 0 5 0;
#X connect 4 0 3 0;
#X connect 5 0 1 0;
#X connect 6 0 7 0;
#X connect 8 0 10 1;
#X connect 10 0 9 0;
#X connect 11 0 10 0;
#X coords 0 -1 1 1 80 80 2 100 100;
