#N canvas 4 532 955 1027 10;
#X obj 141 57 notein 1;
#X floatatom 110 132 5 1 127 0 - - -, f 5;
#X text 106 114 note;
#X floatatom 160 132 5 0 0 0 - - -, f 5;
#X text 102 33 channel 1;
#X text 172 16 TAKES MIDI INPUT AND SPITS OUT a SIGNAL suitable for
modulating stuff;
#X obj 64 236 / 127;
#X obj 74 302 sig~;
#X obj 78 386 outlet~ cv;
#X text 115 100 MIDI to CV;
#X text 161 115 vel;
#X obj 140 165 bng 15 500 10 0 empty empty empty 17 7 0 10 -191407
-159808 -258113;
#X obj 159 493 outlet~ gate;
#X text 105 184 cv, f 3;
#X text 133 183 gate;
#X obj 108 165 bng 15 50 15 0 empty empty empty 17 7 0 10 -191407 -4034
-4034;
#X obj 191 451 sig~;
#X obj -76 339 snapshot~;
#X floatatom -75 364 5 0 0 0 - - -, f 5;
#X obj -66 292 tgl 15 0 empty empty empty 17 7 0 10 -262144 -1 -1 1
1;
#X obj -67 269 loadbang;
#X obj -76 314 metro 1;
#X obj -11 462 m_scale 0 1 1 127;
#X floatatom -8 490 5 0 0 0 - - -, f 5;
#X obj -127 504 snapshot~;
#X floatatom -106 531 5 0 0 0 - - -, f 5;
#X obj -124 452 tgl 15 0 empty empty empty 17 7 0 10 -262144 -1 -1
1 1;
#X obj -132 428 loadbang;
#X obj -131 480 metro 1;
#X floatatom 13 280 5 0 0 0 - - -, f 5;
#X obj 214 165 > 0;
#X floatatom 248 184 5 0 0 0 - - -, f 5;
#X msg 366 297 0;
#X floatatom 304 347 5 0 0 0 - - -, f 5;
#X msg 311 242 10;
#X obj 351 252 del 200;
#X obj 225 208 select 1;
#X obj 317 481 outlet~ trig;
#X obj 313 401 sig~;
#X obj 172 164 bng 15 500 10 0 empty empty empty 17 7 0 10 -99865 -258113
-258113;
#X text 166 184 trig;
#X obj 329 135 select 45;
#X obj 307 167 bng 15 50 10 0 empty empty empty 17 7 0 10 -262144 -1
-1;
#X obj 556 404 outlet~ fortyfive;
#X msg 597 307 0;
#X floatatom 535 357 5 0 0 0 - - -, f 5;
#X obj 582 262 del 10;
#X msg 542 252 10;
#X connect 0 0 1 0;
#X connect 0 1 3 0;
#X connect 1 0 15 0;
#X connect 1 0 6 0;
#X connect 1 0 41 0;
#X connect 3 0 30 0;
#X connect 6 0 7 0;
#X connect 6 0 29 0;
#X connect 7 0 8 0;
#X connect 7 0 17 0;
#X connect 16 0 12 0;
#X connect 17 0 18 0;
#X connect 18 0 22 0;
#X connect 19 0 21 0;
#X connect 20 0 19 0;
#X connect 21 0 17 0;
#X connect 22 0 23 0;
#X connect 24 0 25 0;
#X connect 26 0 28 0;
#X connect 27 0 26 0;
#X connect 28 0 24 0;
#X connect 30 0 31 0;
#X connect 31 0 16 0;
#X connect 31 0 36 0;
#X connect 32 0 33 0;
#X connect 33 0 38 0;
#X connect 33 0 39 0;
#X connect 34 0 33 0;
#X connect 34 0 35 0;
#X connect 35 0 32 0;
#X connect 36 0 11 0;
#X connect 36 0 34 0;
#X connect 38 0 37 0;
#X connect 41 0 42 0;
#X connect 41 0 47 0;
#X connect 44 0 45 0;
#X connect 45 0 43 0;
#X connect 46 0 44 0;
#X connect 47 0 45 0;
#X connect 47 0 46 0;
#X coords 0 -1 1 1 100 100 2 100 100;
