#N canvas 641 4 638 1027 10;
#X obj 264 166 midirealtimein;
#X floatatom 262 204 5 0 0 0 - - -, f 5;
#X obj 263 238 sel 248;
#X obj 266 275 counter 0 0 5;
#X obj 264 314 sel 0;
#X obj 231 682 outlet~;
#X obj 222 603 sig~;
#X msg 241 431 1;
#X msg 424 473 0;
#X obj 290 432 del 2;
#X text 387 659 ## MIDI CLOCK ##;
#X connect 0 0 1 0;
#X connect 1 0 2 0;
#X connect 2 0 3 0;
#X connect 3 0 4 0;
#X connect 4 0 7 0;
#X connect 4 0 9 0;
#X connect 6 0 5 0;
#X connect 7 0 6 0;
#X connect 8 0 6 0;
#X connect 9 0 8 0;
#X coords 0 -1 1 1 154 83 1 359 651;
