#N canvas 961 4 955 1027 10;
#X obj 81 47 inlet~ A;
#X obj 81 77 threshold~ 0.1 1 1 1;
#X msg 463 154 36;
#X obj 550 235 noteout;
#X text 222 207 ## MISSION CONTROL ##;
#X obj 153 184 bng 15 250 50 0 empty empty empty 17 7 0 10 -66577 -258113
-1;
#X obj 256 116 threshold~ 0.1 1 1 1;
#X obj 256 184 bng 15 250 50 0 empty empty empty 17 7 0 10 -66577 -258113
-1;
#X obj 438 92 threshold~ 0.1 1 1 1;
#X obj 355 184 bng 15 250 50 0 empty empty empty 17 7 0 10 -66577 -258113
-1;
#X obj 256 86 inlet~ C;
#X obj 438 63 inlet~ E;
#X msg 582 154 40;
#X msg 695 154 43;
#X obj 220 40 threshold~ 0.1 1 1 1;
#X obj 203 184 bng 15 250 50 0 empty empty empty 17 7 0 10 -66577 -4034
-1;
#X obj 220 10 inlet~ B;
#X msg 525 154 38;
#X obj 351 39 threshold~ 0.1 1 1 1;
#X obj 307 184 bng 15 250 50 0 empty empty empty 17 7 0 10 -66577 -4034
-1;
#X obj 351 10 inlet~ D;
#X msg 643 154 41;
#X obj 514 43 threshold~ 0.1 1 1 1;
#X obj 404 184 bng 15 250 50 0 empty empty empty 17 7 0 10 -66577 -4034
-1;
#X obj 514 14 inlet~ F;
#X msg 774 154 45;
#X text 153 163 2;
#X text 404 163 13;
#X text 203 163 4;
#X text 256 163 7;
#X text 307 163 8;
#X text 355 163 12;
#X obj 539 196 makenote 127 10;
#X floatatom 87 355 5 0 0 0 - - -, f 5;
#X floatatom 132 357 5 0 0 0 - - -, f 5;
#X text 153 241 A0;
#X obj 113 301 ctlin 114;
#X obj 171 452 / 127;
#X obj 168 502 sig~;
#X obj 161 577 outlet~ A0;
#X connect 0 0 1 0;
#X connect 1 0 2 0;
#X connect 1 0 5 0;
#X connect 2 0 32 0;
#X connect 6 0 12 0;
#X connect 6 0 7 0;
#X connect 8 0 13 0;
#X connect 8 0 9 0;
#X connect 10 0 6 0;
#X connect 11 0 8 0;
#X connect 12 0 32 0;
#X connect 13 0 32 0;
#X connect 14 0 17 0;
#X connect 14 0 15 0;
#X connect 16 0 14 0;
#X connect 17 0 32 0;
#X connect 18 0 21 0;
#X connect 18 0 19 0;
#X connect 20 0 18 0;
#X connect 21 0 32 0;
#X connect 22 0 25 0;
#X connect 22 0 23 0;
#X connect 24 0 22 0;
#X connect 25 0 32 0;
#X connect 32 0 3 0;
#X connect 32 1 3 1;
#X connect 33 0 37 0;
#X connect 36 0 33 0;
#X connect 36 1 34 0;
#X connect 37 0 38 0;
#X connect 38 0 39 0;
#X coords 0 -1 1 1 273 104 2 149 162;
