#N canvas 961 4 955 1027 10;
#X obj 418 361 *~;
#X obj 102 117 cnv 15 196 171 empty empty empty 20 12 0 14 -86853 -66577
0;
#X obj 107 133 vsl 25 130 0 1 0 0 empty empty empty 0 -9 0 10 -99865
-4034 -1 2050 1;
#X obj 430 312 +~;
#X obj 23 34 loadbang;
#X obj 351 59 inlet~ one;
#X obj 446 60 inlet~ cvone;
#X msg 23 83 0;
#X obj 393 715 outlet~ out;
#X obj 402 517 *~;
#X obj 271 132 vsl 25 130 0 1 0 0 empty empty empty 0 -9 0 10 -99865
-4034 -1 0 1;
#X obj 147 134 vsl 25 130 0 1 0 0 empty empty empty 0 -9 0 10 -99865
-4034 -1 2200 1;
#X obj 586 365 *~;
#X obj 625 311 +~;
#X obj 546 58 inlet~ two;
#X obj 641 59 inlet~ cvtwo;
#X obj 1027 357 *~;
#X obj 232 133 vsl 25 130 0 1 0 0 empty empty empty 0 -9 0 10 -99865
-4034 -1 0 1;
#X obj 1049 256 +~;
#X obj 757 354 *~;
#X obj 822 308 +~;
#X obj 189 134 vsl 25 130 0 1 0 0 empty empty empty 0 -9 0 10 -99865
-4034 -1 0 1;
#X obj 730 61 inlet~ three;
#X obj 820 59 inlet~ cvthree;
#X obj 929 57 inlet~ four;
#X obj 1014 58 inlet~ cvfour;
#X text 101 101 1;
#X text 145 100 2;
#X obj 1137 57 inlet~ mastercv;
#X obj 359 473 +~;
#X text 199 100 3;
#X text 244 100 4;
#X text 118 100 cv;
#X text 163 100 cv;
#X text 211 99 cv;
#X text 256 99 cv;
#X text 275 100 vca;
#X text 109 116 ### VOLTAGE CONTROLLED MIXER;
#X text 103 283 out;
#X obj 242 26 loadbang;
#X msg 265 54 1;
#X obj 393 638 clip~ -1 1;
#X obj 125 435 abs~;
#X floatatom 118 365 5 0 0 0 - - -, f 5;
#N canvas 0 22 450 300 chooser 0;
#X obj 174 39 inlet~ input2;
#X obj 309 38 inlet choose;
#X floatatom 312 78 5 0 0 0 - - -, f 5;
#X obj 69 182 *~;
#X msg 296 170 1;
#X obj 134 264 outlet~ output;
#X obj 186 127 *~;
#X msg 296 200 0;
#X msg 343 164 1;
#X msg 349 194 0;
#X obj 393 149 bng 15 250 50 0 empty empty empty 17 7 0 10 -262144
-1 -1;
#X obj 272 116 bng 15 250 50 0 empty empty empty 17 7 0 10 -262144
-1 -1;
#X obj 37 78 inlet~ input1;
#X obj 311 118 select 0;
#X obj 110 155 tgl 15 0 empty empty empty 17 7 0 10 -262144 -1 -1 1
1;
#X obj 217 92 tgl 15 0 empty empty empty 17 7 0 10 -262144 -1 -1 0
1;
#X connect 0 0 6 0;
#X connect 1 0 2 0;
#X connect 2 0 13 0;
#X connect 3 0 5 0;
#X connect 4 0 14 0;
#X connect 6 0 5 0;
#X connect 7 0 14 0;
#X connect 8 0 15 0;
#X connect 9 0 15 0;
#X connect 12 0 3 0;
#X connect 13 0 4 0;
#X connect 13 0 9 0;
#X connect 13 0 11 0;
#X connect 13 1 8 0;
#X connect 13 1 7 0;
#X connect 13 1 10 0;
#X connect 14 0 3 1;
#X connect 15 0 6 1;
#X restore 348 201 pd chooser;
#X obj 383 119 *~ -1;
#X obj 106 270 tgl 15 0 empty empty empty 17 7 0 10 -262144 -1 -1 0
1;
#N canvas 0 22 450 300 chooser 0;
#X obj 174 39 inlet~ input2;
#X obj 309 38 inlet choose;
#X floatatom 312 78 5 0 0 0 - - -, f 5;
#X obj 69 182 *~;
#X msg 296 170 1;
#X obj 130 257 outlet~ output;
#X obj 186 127 *~;
#X msg 296 200 0;
#X msg 343 164 1;
#X msg 349 194 0;
#X obj 393 149 bng 15 250 50 0 empty empty empty 17 7 0 10 -262144
-1 -1;
#X obj 272 116 bng 15 250 50 0 empty empty empty 17 7 0 10 -262144
-1 -1;
#X obj 37 78 inlet~ input1;
#X obj 311 118 select 0;
#X obj 110 155 tgl 15 0 empty empty empty 17 7 0 10 -262144 -1 -1 1
1;
#X obj 217 92 tgl 15 0 empty empty empty 17 7 0 10 -262144 -1 -1 0
1;
#X connect 0 0 6 0;
#X connect 1 0 2 0;
#X connect 2 0 13 0;
#X connect 3 0 5 0;
#X connect 4 0 14 0;
#X connect 6 0 5 0;
#X connect 7 0 14 0;
#X connect 8 0 15 0;
#X connect 9 0 15 0;
#X connect 12 0 3 0;
#X connect 13 0 4 0;
#X connect 13 0 9 0;
#X connect 13 0 11 0;
#X connect 13 1 8 0;
#X connect 13 1 7 0;
#X connect 13 1 10 0;
#X connect 14 0 3 1;
#X connect 15 0 6 1;
#X restore 554 195 pd chooser;
#X obj 589 113 *~ -1;
#X obj 148 270 tgl 15 0 empty empty empty 17 7 0 10 -262144 -1 -1 0
1;
#N canvas 0 22 450 300 chooser 0;
#X obj 174 39 inlet~ input2;
#X obj 309 38 inlet choose;
#X floatatom 312 78 5 0 0 0 - - -, f 5;
#X obj 69 182 *~;
#X msg 296 170 1;
#X obj 130 257 outlet~ output;
#X obj 186 127 *~;
#X msg 296 200 0;
#X msg 343 164 1;
#X msg 349 194 0;
#X obj 393 149 bng 15 250 50 0 empty empty empty 17 7 0 10 -262144
-1 -1;
#X obj 272 116 bng 15 250 50 0 empty empty empty 17 7 0 10 -262144
-1 -1;
#X obj 37 78 inlet~ input1;
#X obj 311 118 select 0;
#X obj 110 155 tgl 15 0 empty empty empty 17 7 0 10 -262144 -1 -1 1
1;
#X obj 217 92 tgl 15 0 empty empty empty 17 7 0 10 -262144 -1 -1 0
1;
#X connect 0 0 6 0;
#X connect 1 0 2 0;
#X connect 2 0 13 0;
#X connect 3 0 5 0;
#X connect 4 0 14 0;
#X connect 6 0 5 0;
#X connect 7 0 14 0;
#X connect 8 0 15 0;
#X connect 9 0 15 0;
#X connect 12 0 3 0;
#X connect 13 0 4 0;
#X connect 13 0 9 0;
#X connect 13 0 11 0;
#X connect 13 1 8 0;
#X connect 13 1 7 0;
#X connect 13 1 10 0;
#X connect 14 0 3 1;
#X connect 15 0 6 1;
#X restore 722 195 pd chooser;
#X obj 757 113 *~ -1;
#X obj 201 270 tgl 15 0 empty empty empty 17 7 0 10 -262144 -1 -1 0
1;
#N canvas 0 22 450 300 chooser 0;
#X obj 174 39 inlet~ input2;
#X obj 309 38 inlet choose;
#X floatatom 312 78 5 0 0 0 - - -, f 5;
#X obj 69 182 *~;
#X msg 296 170 1;
#X obj 130 257 outlet~ output;
#X obj 186 127 *~;
#X msg 296 200 0;
#X msg 343 164 1;
#X msg 349 194 0;
#X obj 393 149 bng 15 250 50 0 empty empty empty 17 7 0 10 -262144
-1 -1;
#X obj 272 116 bng 15 250 50 0 empty empty empty 17 7 0 10 -262144
-1 -1;
#X obj 37 78 inlet~ input1;
#X obj 311 118 select 0;
#X obj 110 155 tgl 15 0 empty empty empty 17 7 0 10 -262144 -1 -1 1
1;
#X obj 217 92 tgl 15 0 empty empty empty 17 7 0 10 -262144 -1 -1 0
1;
#X connect 0 0 6 0;
#X connect 1 0 2 0;
#X connect 2 0 13 0;
#X connect 3 0 5 0;
#X connect 4 0 14 0;
#X connect 6 0 5 0;
#X connect 7 0 14 0;
#X connect 8 0 15 0;
#X connect 9 0 15 0;
#X connect 12 0 3 0;
#X connect 13 0 4 0;
#X connect 13 0 9 0;
#X connect 13 0 11 0;
#X connect 13 1 8 0;
#X connect 13 1 7 0;
#X connect 13 1 10 0;
#X connect 14 0 3 1;
#X connect 15 0 6 1;
#X restore 922 196 pd chooser;
#X obj 957 114 *~ -1;
#X obj 242 270 tgl 15 0 empty empty empty 17 7 0 10 -262144 -1 -1 0
1;
#N canvas 0 22 450 300 chooser 0;
#X obj 174 39 inlet~ input2;
#X obj 309 38 inlet choose;
#X floatatom 312 78 5 0 0 0 - - -, f 5;
#X obj 69 182 *~;
#X msg 296 170 1;
#X obj 130 257 outlet~ output;
#X obj 186 127 *~;
#X msg 296 200 0;
#X msg 343 164 1;
#X msg 349 194 0;
#X obj 393 149 bng 15 250 50 0 empty empty empty 17 7 0 10 -262144
-1 -1;
#X obj 272 116 bng 15 250 50 0 empty empty empty 17 7 0 10 -262144
-1 -1;
#X obj 37 78 inlet~ input1;
#X obj 311 118 select 0;
#X obj 110 155 tgl 15 0 empty empty empty 17 7 0 10 -262144 -1 -1 1
1;
#X obj 217 92 tgl 15 0 empty empty empty 17 7 0 10 -262144 -1 -1 0
1;
#X connect 0 0 6 0;
#X connect 1 0 2 0;
#X connect 2 0 13 0;
#X connect 3 0 5 0;
#X connect 4 0 14 0;
#X connect 6 0 5 0;
#X connect 7 0 14 0;
#X connect 8 0 15 0;
#X connect 9 0 15 0;
#X connect 12 0 3 0;
#X connect 13 0 4 0;
#X connect 13 0 9 0;
#X connect 13 0 11 0;
#X connect 13 1 8 0;
#X connect 13 1 7 0;
#X connect 13 1 10 0;
#X connect 14 0 3 1;
#X connect 15 0 6 1;
#X restore 410 594 pd chooser;
#X obj 463 558 *~ -1;
#X obj 282 269 tgl 15 0 empty empty empty 17 7 0 10 -262144 -1 -1 0
1;
#X text 169 269 inv;
#X connect 0 0 9 0;
#X connect 2 0 3 1;
#X connect 3 0 0 1;
#X connect 4 0 7 0;
#X connect 5 0 45 0;
#X connect 5 0 44 0;
#X connect 6 0 3 0;
#X connect 7 0 2 0;
#X connect 7 0 46 0;
#X connect 7 0 49 0;
#X connect 7 0 52 0;
#X connect 7 0 55 0;
#X connect 7 0 58 0;
#X connect 7 0 11 0;
#X connect 7 0 21 0;
#X connect 7 0 17 0;
#X connect 9 0 56 0;
#X connect 9 0 57 0;
#X connect 10 0 29 0;
#X connect 11 0 13 1;
#X connect 12 0 9 0;
#X connect 13 0 12 1;
#X connect 14 0 47 0;
#X connect 14 0 48 0;
#X connect 15 0 13 0;
#X connect 16 0 9 0;
#X connect 17 0 18 1;
#X connect 18 0 16 1;
#X connect 19 0 9 0;
#X connect 20 0 19 1;
#X connect 21 0 20 1;
#X connect 22 0 50 0;
#X connect 22 0 51 0;
#X connect 23 0 20 0;
#X connect 24 0 53 0;
#X connect 24 0 54 0;
#X connect 25 0 18 0;
#X connect 28 0 29 1;
#X connect 29 0 9 1;
#X connect 39 0 40 0;
#X connect 40 0 10 0;
#X connect 41 0 8 0;
#X connect 44 0 0 0;
#X connect 45 0 44 1;
#X connect 46 0 44 2;
#X connect 47 0 12 0;
#X connect 48 0 47 1;
#X connect 49 0 47 2;
#X connect 50 0 19 0;
#X connect 51 0 50 1;
#X connect 52 0 50 2;
#X connect 53 0 16 0;
#X connect 54 0 53 1;
#X connect 55 0 53 2;
#X connect 56 0 41 0;
#X connect 57 0 56 1;
#X connect 58 0 56 2;
#X coords 0 -1 1 1 200 200 2 100 100;
