#N canvas 552 63 1253 1013 10;
#X obj 560 -510 midi2cv;
#X obj 396 438 dac~;
#X obj 24 169 scope3;
#X obj 562 218 cubic-soft-clip;
#X obj 403 200 vca;
#X obj 1138 391 cos~;
#X obj 1133 422 *~;
#X obj 1137 364 *~;
#X obj 1181 237 vsl 15 128 0 1 0 0 empty empty empty 0 -9 0 10 -262144
-1 -1 0 1;
#X obj 1132 450 *~ 1;
#X obj 1132 475 -~ 0;
#X msg 1182 390 1;
#X text 1101 321 cosine wave folder;
#X obj 761 -249 comparator;
#X obj 308 54 lpg1;
#X obj 574 -10 vco;
#X obj 433 55 gate2trigger;
#X obj 81 -249 seq16;
#X obj 745 86 vca;
#X obj 94 -523 vco;
#X obj 753 -132 vco;
#X obj 397 -521 vco;
#X obj 559 -376 vca;
#X obj 743 -466 vco;
#X obj 925 -568 vco;
#X connect 3 0 14 0;
#X connect 4 0 1 0;
#X connect 4 0 1 1;
#X connect 4 0 2 0;
#X connect 5 0 6 0;
#X connect 6 0 9 0;
#X connect 7 0 5 0;
#X connect 8 0 7 1;
#X connect 8 0 11 0;
#X connect 9 0 10 0;
#X connect 11 0 6 1;
#X connect 14 0 4 0;
#X connect 15 3 3 0;
#X connect 16 0 14 1;
#X connect 17 0 15 0;
#X connect 17 1 16 0;
#X connect 18 0 3 1;
#X connect 19 0 17 0;
#X connect 20 0 18 0;
#X connect 21 2 22 0;
#X connect 21 3 17 2;
#X connect 23 0 22 1;
