#N canvas 485 23 955 828 12;
#X text 883 1042 www.pd-tutorial.com;
#X text 900 1015 Johannes Kreidler;
#X text 884 977 3.7.2.1. Granular live from http://www.pd-tutorial.com/english/ch03s07.html
;
#X obj 102 123 cnv 15 248 156 empty empty empty 20 12 0 14 -166955
-66577 0;
#X obj 425 407 phasor~;
#X obj 426 587 *~ -1;
#X obj 426 612 +~ 1;
#X obj 526 701 sig~ 1;
#X obj 591 709 cos~;
#X obj 527 734 -~;
#X obj 528 759 *~ 0.5;
#X obj 449 788 *~;
#X obj 457 674 samphold~;
#X obj 426 701 *~;
#X obj 458 646 sig~;
#X floatatom 539 388 5 0 0 0 - - -, f 5;
#X floatatom 488 309 10 0 0 0 - - -, f 10;
#X obj 611 281 t b f;
#X obj 535 360 / 44.1;
#X obj 812 556 *~ -1;
#X obj 813 589 +~ 1;
#X obj 906 685 sig~ 1;
#X obj 970 692 cos~;
#X obj 907 716 -~;
#X obj 908 741 *~ 0.5;
#X obj 835 773 *~;
#X obj 847 654 samphold~;
#X obj 813 681 *~;
#X obj 848 626 sig~;
#X obj 833 491 wrap~;
#X obj 165 134 vsl 15 128 -990 20000 0 0 empty empty empty 0 -8 0 8
-262144 -1 -1 10449 1;
#X obj 481 227 t b f;
#X obj 240 132 vsl 15 128 -60 64 0 0 empty empty empty 0 -8 0 8 -262144
-1 -1 12045 1;
#X obj 488 330 expr (pow(2 \, ($f2/12)) - 1) * (44100/$f1);
#X text 505 30 30000;
#X text 451 9 window width;
#X text 630 734 another way to;
#X text 604 760 make a Hanning window;
#X text 780 417 spacetime?;
#X obj 314 131 vsl 15 128 0.1 10 0 0 empty empty empty 0 -9 0 10 -262144
-1 -1 9700 1;
#X floatatom 225 333 5 0 0 0 - - -, f 5;
#X obj 626 104 snapshot~;
#X obj 645 62 tgl 15 0 empty empty empty 17 7 0 10 -262144 -1 -1 1
1;
#X obj 647 39 loadbang;
#X obj 644 81 metro 1;
#X obj 475 819 *~ 1;
#X text 103 102 in;
#X text 147 103 window;
#X text 219 102 pitch;
#X obj 403 59 +;
#X obj 457 153 line;
#X obj 448 128 pack 0 10;
#X floatatom 318 358 10 0 0 0 - - -, f 10;
#X obj 434 96 clip 100 9.9e+07;
#X floatatom 372 231 10 0 0 0 - - -, f 10;
#X obj 615 133 * 1000;
#X obj 754 111 snapshot~;
#X obj 773 69 tgl 15 0 empty empty empty 17 7 0 10 -262144 -1 -1 1
1;
#X obj 775 46 loadbang;
#X obj 772 88 metro 1;
#X obj 611 212 +;
#X obj 743 140 * 20;
#X obj 1123 131 snapshot~;
#X obj 1142 89 tgl 15 0 empty empty empty 17 7 0 10 -262144 -1 -1 1
1;
#X obj 1144 66 loadbang;
#X obj 1141 108 metro 1;
#X obj 847 206 +;
#X obj 823 255 clip 0.1 9999;
#X obj 1112 160 * 3;
#X text 268 103 spacetime;
#X text 101 281 out;
#X text 104 183 :::::;
#X text 103 142 :::::;
#X text 102 163 GRAINS;
#X floatatom 926 373 5 0.1 3 0 - - -, f 5;
#X obj 1017 303 vsl 15 128 0.1 10 0 0 empty empty empty 0 -9 0 10 -262144
-1 -1 0 1;
#X obj 833 457 +~;
#X obj 430 934 *~;
#X obj 564 926 *~;
#X obj 136 228 tgl 15 0 empty empty empty 17 7 0 10 -262144 -1 -1 0
1;
#X msg 291 812 1;
#X msg 374 812 1;
#X obj 299 742 select 1;
#X msg 321 813 0;
#X msg 411 811 0;
#X obj 416 897 tgl 15 0 empty empty empty 17 7 0 10 -262144 -1 -1 1
1;
#X obj 538 890 tgl 15 0 empty empty empty 17 7 0 10 -262144 -1 -1 0
1;
#X obj 596 870 lop~;
#X obj 857 881 hsl 128 15 50 12000 0 0 empty empty empty -2 -8 0 10
-262144 -1 -1 6323 1;
#X floatatom 875 902 5 0 0 0 - - -, f 5;
#X text 106 226 lpf;
#X obj 54 42 loadbang;
#X msg 46 88 0;
#X obj 1161 803 loadbang;
#X msg 1172 846 6000;
#X obj 979 248 loadbang;
#X msg 977 285 0.1;
#X obj 836 724 vd~ \$1-d;
#X obj 689 989 delwrite~ \$1-d 2000;
#X obj 449 744 vd~ \$1-d;
#X msg 207 46 0;
#X msg 153 69 10000;
#X obj 487 1016 clip~ -1 1;
#X obj 539 68 r window;
#X obj 685 4 r pitch;
#X obj 1023 37 r spacetime;
#X obj 135 833 adc~;
#X obj 503 1081 dac~;
#X obj 149 918 r volume;
#X obj 319 1011 *~;
#X connect 4 0 5 0;
#X connect 4 0 8 0;
#X connect 4 0 12 1;
#X connect 4 0 76 0;
#X connect 5 0 6 0;
#X connect 6 0 13 0;
#X connect 7 0 9 0;
#X connect 8 0 9 1;
#X connect 9 0 10 0;
#X connect 10 0 11 1;
#X connect 11 0 45 0;
#X connect 12 0 13 1;
#X connect 13 0 99 0;
#X connect 14 0 12 0;
#X connect 15 0 28 0;
#X connect 15 0 14 0;
#X connect 16 0 18 0;
#X connect 16 0 33 0;
#X connect 17 0 16 0;
#X connect 17 1 33 1;
#X connect 18 0 15 0;
#X connect 19 0 20 0;
#X connect 20 0 27 0;
#X connect 21 0 23 0;
#X connect 22 0 23 1;
#X connect 23 0 24 0;
#X connect 24 0 25 1;
#X connect 25 0 45 0;
#X connect 25 0 98 0;
#X connect 26 0 27 1;
#X connect 27 0 97 0;
#X connect 28 0 26 0;
#X connect 29 0 19 0;
#X connect 29 0 26 1;
#X connect 29 0 22 0;
#X connect 30 0 49 1;
#X connect 31 0 17 0;
#X connect 31 1 16 0;
#X connect 32 0 60 1;
#X connect 33 0 4 0;
#X connect 39 0 40 0;
#X connect 39 0 74 0;
#X connect 41 0 55 0;
#X connect 42 0 44 0;
#X connect 43 0 42 0;
#X connect 44 0 41 0;
#X connect 45 0 77 1;
#X connect 45 0 87 0;
#X connect 49 0 52 0;
#X connect 49 0 53 0;
#X connect 50 0 31 0;
#X connect 51 0 50 0;
#X connect 53 0 51 0;
#X connect 53 0 54 0;
#X connect 55 0 49 0;
#X connect 56 0 61 0;
#X connect 57 0 59 0;
#X connect 58 0 57 0;
#X connect 59 0 56 0;
#X connect 60 0 17 0;
#X connect 61 0 60 0;
#X connect 62 0 68 0;
#X connect 63 0 65 0;
#X connect 64 0 63 0;
#X connect 65 0 62 0;
#X connect 66 0 67 0;
#X connect 74 0 76 1;
#X connect 75 0 74 0;
#X connect 76 0 29 0;
#X connect 77 0 102 0;
#X connect 78 0 102 0;
#X connect 79 0 82 0;
#X connect 80 0 86 0;
#X connect 81 0 85 0;
#X connect 82 0 80 0;
#X connect 82 0 83 0;
#X connect 82 1 81 0;
#X connect 82 1 84 0;
#X connect 83 0 85 0;
#X connect 84 0 86 0;
#X connect 85 0 77 0;
#X connect 86 0 78 0;
#X connect 87 0 78 1;
#X connect 88 0 87 1;
#X connect 88 0 89 0;
#X connect 91 0 92 0;
#X connect 91 0 100 0;
#X connect 91 0 101 0;
#X connect 92 0 79 0;
#X connect 93 0 94 0;
#X connect 94 0 88 0;
#X connect 95 0 96 0;
#X connect 96 0 74 0;
#X connect 97 0 25 0;
#X connect 99 0 11 0;
#X connect 100 0 32 0;
#X connect 101 0 30 0;
#X connect 102 0 109 0;
#X connect 103 0 55 0;
#X connect 104 0 61 0;
#X connect 105 0 68 0;
#X connect 106 0 98 0;
#X connect 106 1 98 0;
#X connect 108 0 109 1;
#X connect 109 0 107 0;
#X connect 109 0 107 1;
#X coords 0 -1 1 1 250 200 2 100 100;
