#N canvas 823 22 955 1027 10;
#X obj 11 95 cnv 15 198 68 empty empty empty 20 12 0 14 -259136 -66577
0;
#X obj 14 114 hsl 188 17 0 127 0 1 empty empty empty 133 7 0 10 -262144
-1 -1 9424 1;
#X obj 216 68 random 127;
#X obj 217 169 moses;
#X obj 169 234 t b b;
#X obj 31 235 t b b;
#X obj 177 138 bng 25 100 50 0 empty empty empty 17 7 0 10 -262144
-3969 -1;
#X obj 15 138 bng 25 100 50 0 empty empty empty 17 7 0 10 -262144 -258625
-1;
#X obj 419 78 snapshot~;
#X obj 419 129 t b f;
#X obj 244 146 +;
#X obj 480 46 bang~;
#X obj 419 100 * 127;
#X obj 216 46 threshold~ 0.9 0 0.9 0;
#X text 12 679 basically copied from the wonderful AUTOMATONISM pd
modular synthesizer;
#X obj 416 17 inlet~ cv;
#X obj 208 20 inlet~ in;
#X text 51 96 ### PROBABILITY ###;
#X text 15 162 A;
#X text 198 163 B;
#X text 190 81 cv;
#X msg 94 28 64;
#X text 95 137 50/50;
#X obj 105 155 bng 15 250 50 0 empty empty empty 17 7 0 10 -262144
-1 -1;
#X obj 187 408 outlet~ out;
#X obj 188 351 sig~;
#X msg 188 298 1;
#X msg 232 316 0;
#X obj 227 288 del 2;
#X obj 21 479 outlet~ out;
#X obj 22 422 sig~;
#X msg 22 369 1;
#X msg 66 387 0;
#X obj 61 359 del 2;
#X text 13 81 trig;
#X connect 1 0 10 0;
#X connect 2 0 3 0;
#X connect 3 0 4 0;
#X connect 3 1 5 0;
#X connect 4 0 26 0;
#X connect 4 0 28 0;
#X connect 4 1 6 0;
#X connect 5 0 31 0;
#X connect 5 0 33 0;
#X connect 5 1 7 0;
#X connect 8 0 12 0;
#X connect 9 0 10 0;
#X connect 9 1 10 1;
#X connect 10 0 3 1;
#X connect 11 0 8 0;
#X connect 12 0 9 0;
#X connect 13 0 2 0;
#X connect 15 0 8 0;
#X connect 16 0 13 0;
#X connect 21 0 1 0;
#X connect 23 0 21 0;
#X connect 25 0 24 0;
#X connect 26 0 25 0;
#X connect 27 0 25 0;
#X connect 28 0 27 0;
#X connect 30 0 29 0;
#X connect 31 0 30 0;
#X connect 32 0 30 0;
#X connect 33 0 32 0;
#X coords 0 -1 1 1 200 100 2 10 81;
