#N canvas 76 22 1283 458 10;
#X obj 253 23 cnv 15 392 42 empty empty empty 20 12 0 14 -4096 -66577
0;
#X obj 183 -87 sig~;
#X obj 183 -57 outlet~ a;
#X obj 263 -86 sig~;
#X obj 345 -87 sig~;
#X obj 428 -86 sig~;
#X obj 263 -56 outlet~ b;
#X obj 345 -57 outlet~ c;
#X obj 428 -56 outlet~ d;
#X text 387 7 ## OSC RECEIVER ##;
#X obj 304 23 bng 15 250 50 0 empty empty empty 17 7 0 10 -262144 -1
-1;
#X obj 257 23 bng 15 250 50 0 empty empty empty 17 7 0 10 -262144 -1
-1;
#X obj 355 23 bng 15 250 50 0 empty empty empty 17 7 0 10 -262144 -1
-1;
#X obj 409 23 bng 15 250 50 0 empty empty empty 17 7 0 10 -262144 -1
-1;
#X obj 1092 36 tgl 15 0 empty empty print_all_messages 17 7 0 10 -262144
-1 -1 0 1;
#X obj 987 35 tgl 15 0 empty empty listen 17 7 0 10 -262144 -1 -1 1
1;
#N canvas 0 23 417 316 oscreceive 0;
#X obj 110 133 oscparse;
#X obj 110 162 list trim;
#X obj 130 235 spigot;
#X obj 110 287 outlet;
#X obj 163 201 inlet;
#X obj 130 261 print OSC;
#X msg 110 71 listen 0;
#X obj 110 45 sel 0;
#X obj 110 106 netreceive -u -b;
#X obj 110 16 inlet;
#X msg 175 72 listen 8888;
#X connect 0 0 1 0;
#X connect 1 0 2 0;
#X connect 1 0 3 0;
#X connect 2 0 5 0;
#X connect 4 0 2 1;
#X connect 6 0 8 0;
#X connect 7 0 6 0;
#X connect 7 1 10 0;
#X connect 8 0 0 0;
#X connect 9 0 7 0;
#X connect 10 0 8 0;
#X coords 0 316 1 315 140 40 0;
#X restore 987 65 pd oscreceive 8888;
#X obj 986 95 s \$0-receive-osc;
#X obj 464 -209 r \$0-receive-osc;
#X obj 183 -146 route osc1;
#X floatatom 257 45 5 0 0 0 - - -, f 5;
#X text 253 65 osc1;
#X text 302 65 osc2;
#X text 354 65 osc3;
#X text 411 65 osc4;
#X floatatom 304 45 5 0 0 0 - - -, f 5;
#X floatatom 355 45 5 0 0 0 - - -, f 5;
#X floatatom 409 45 5 0 0 0 - - -, f 5;
#X obj 263 -146 route osc2;
#X obj 345 -146 route osc3;
#X obj 428 -146 route osc4;
#X obj 981 3 loadbang;
#X obj 508 -86 sig~;
#X obj 508 -56 outlet~ a;
#X obj 588 -85 sig~;
#X obj 670 -86 sig~;
#X obj 753 -85 sig~;
#X obj 588 -55 outlet~ b;
#X obj 670 -56 outlet~ c;
#X obj 753 -55 outlet~ d;
#X obj 504 23 bng 15 250 50 0 empty empty empty 17 7 0 10 -262144 -1
-1;
#X obj 457 23 bng 15 250 50 0 empty empty empty 17 7 0 10 -262144 -1
-1;
#X obj 555 23 bng 15 250 50 0 empty empty empty 17 7 0 10 -262144 -1
-1;
#X obj 609 23 bng 15 250 50 0 empty empty empty 17 7 0 10 -262144 -1
-1;
#X floatatom 457 46 5 0 0 0 - - -, f 5;
#X floatatom 504 46 5 0 0 0 - - -, f 5;
#X floatatom 555 46 5 0 0 0 - - -, f 5;
#X floatatom 609 46 5 0 0 0 - - -, f 5;
#X obj 508 -145 route osc5;
#X obj 588 -145 route osc6;
#X obj 670 -145 route osc7;
#X obj 753 -145 route osc8;
#X text 453 65 osc5;
#X text 505 65 osc6;
#X text 561 65 osc7;
#X text 616 65 osc8;
#X text 247 107 adapted from PD party example patches;
#X connect 1 0 2 0;
#X connect 3 0 6 0;
#X connect 4 0 7 0;
#X connect 5 0 8 0;
#X connect 14 0 16 1;
#X connect 15 0 16 0;
#X connect 16 0 17 0;
#X connect 18 0 19 0;
#X connect 18 0 28 0;
#X connect 18 0 29 0;
#X connect 18 0 30 0;
#X connect 18 0 48 0;
#X connect 18 0 49 0;
#X connect 18 0 50 0;
#X connect 18 0 51 0;
#X connect 19 0 1 0;
#X connect 19 0 11 0;
#X connect 19 0 20 0;
#X connect 28 0 3 0;
#X connect 28 0 10 0;
#X connect 28 0 25 0;
#X connect 29 0 4 0;
#X connect 29 0 12 0;
#X connect 29 0 26 0;
#X connect 30 0 5 0;
#X connect 30 0 13 0;
#X connect 30 0 27 0;
#X connect 31 0 15 0;
#X connect 32 0 33 0;
#X connect 34 0 37 0;
#X connect 35 0 38 0;
#X connect 36 0 39 0;
#X connect 48 0 32 0;
#X connect 48 0 41 0;
#X connect 48 0 44 0;
#X connect 49 0 34 0;
#X connect 49 0 40 0;
#X connect 49 0 45 0;
#X connect 50 0 35 0;
#X connect 50 0 42 0;
#X connect 50 0 46 0;
#X connect 51 0 36 0;
#X connect 51 0 43 0;
#X connect 51 0 47 0;
#X coords 0 -1 1 1 397 76 2 251 6;
