#N canvas 840 218 528 448 10;
#X obj 33 172 cnv 15 100 36 empty empty empty 20 12 0 14 -2325 -66577
0;
#X obj 68 56 threshold~ 0.1 1 1 1;
#X obj 68 24 inlet~ trigger;
#X obj 343 92 noise~;
#X obj 293 127 snapshot~;
#X floatatom 65 179 5 0 0 0 - - -, f 5;
#X obj 296 42 tgl 15 0 empty empty empty 17 7 0 10 -262144 -1 -1 1
1;
#X obj 288 18 loadbang;
#X obj 289 70 metro 1;
#X obj 185 354 outlet~;
#X obj 194 305 sig~;
#X text 32 158 trig;
#X text 35 203 out;
#X text 78 158 ##RANDOM;
#X connect 1 0 4 0;
#X connect 2 0 1 0;
#X connect 3 0 4 0;
#X connect 4 0 5 0;
#X connect 5 0 10 0;
#X connect 6 0 8 0;
#X connect 7 0 6 0;
#X connect 10 0 9 0;
#X coords 0 -1 1 1 102 63 2 32 158;
