#N canvas 5 158 1223 666 10;
#X obj 100 117 cnv 15 400 60 empty empty empty 20 12 0 14 -4034 -66577
0;
#X obj 94 14 bng 30 50 50 0 empty empty empty 17 7 0 10 -191407 -258113
-1;
#X obj 66 -161 inlet~ clock;
#X obj 66 -131 threshold~ 0.1 1 1 1;
#X obj 97 -21 spigot;
#X obj 136 -53 tgl 15 0 empty empty empty 17 7 0 10 -262144 -1 -1 1
1;
#X obj 160 -76 bng 15 250 50 0 empty empty empty 17 7 0 10 -262144
-1 -1;
#X obj 149 -105 loadbang;
#X obj 480 -98 select 0 1 2 3;
#X floatatom 213 38 5 0 0 0 - - -, f 5;
#X obj 223 -162 inlet~ reset;
#X text 305 -166 HIGH sets the seq to 0;
#X obj 552 13 inlet~ one;
#X obj 627 12 inlet~ two;
#X obj 700 12 inlet~ three;
#X obj 785 11 inlet~ four;
#X obj 877 371 outlet~ out;
#X obj 574 237 *~;
#X obj 223 74 s \$0-step;
#X obj 480 -141 r \$0-step;
#X obj 554 106 r \$0-step;
#X obj 552 143 select 0;
#X msg 556 180 1;
#X msg 594 180 0;
#X obj 653 237 *~;
#X obj 633 106 r \$0-step;
#X msg 635 180 1;
#X msg 673 180 0;
#X obj 727 236 *~;
#X obj 707 105 r \$0-step;
#X msg 709 179 1;
#X msg 747 179 0;
#X obj 801 236 *~;
#X obj 781 105 r \$0-step;
#X msg 783 179 1;
#X msg 821 179 0;
#X obj 631 143 select 1;
#X obj 705 142 select 2;
#X obj 779 142 select 3;
#X text 136 103 res;
#X text 180 103 1;
#X text 212 103 2;
#X text 254 103 3;
#X text 300 103 4;
#X text 102 164 out;
#X text 104 103 clk;
#X obj 221 -137 threshold~ 0.1 1 1 1;
#X obj 134 133 hradio 40 1 0 8 empty empty empty 0 -8 0 10 -262144
-1 -1 1;
#X obj 892 234 *~;
#X obj 872 103 r \$0-step;
#X msg 874 177 1;
#X msg 912 177 0;
#X obj 971 234 *~;
#X obj 951 103 r \$0-step;
#X msg 953 177 1;
#X msg 991 177 0;
#X obj 1045 233 *~;
#X obj 1025 102 r \$0-step;
#X msg 1027 176 1;
#X msg 1065 176 0;
#X obj 1119 233 *~;
#X obj 1099 102 r \$0-step;
#X msg 1101 176 1;
#X msg 1139 176 0;
#X obj 870 10 inlet~ five;
#X obj 945 9 inlet~ six;
#X obj 1018 9 inlet~ seven;
#X obj 1103 8 inlet~ eight;
#X obj 870 140 select 4;
#X obj 949 140 select 5;
#X obj 1023 139 select 6;
#X obj 1097 139 select 7;
#X text 346 103 5;
#X text 391 103 6;
#X text 426 103 7, f 3;
#X text 474 103 8;
#X text 232 117 ### RANDOM SWITCH ###;
#X obj 206 -7 random 7;
#X connect 2 0 3 0;
#X connect 3 0 4 0;
#X connect 4 0 1 0;
#X connect 4 0 77 0;
#X connect 5 0 4 1;
#X connect 6 0 5 0;
#X connect 7 0 5 0;
#X connect 9 0 47 0;
#X connect 9 0 18 0;
#X connect 10 0 46 0;
#X connect 12 0 17 1;
#X connect 13 0 24 1;
#X connect 14 0 28 1;
#X connect 15 0 32 1;
#X connect 17 0 16 0;
#X connect 19 0 8 0;
#X connect 20 0 21 0;
#X connect 21 0 22 0;
#X connect 21 1 23 0;
#X connect 22 0 17 0;
#X connect 23 0 17 0;
#X connect 24 0 16 0;
#X connect 25 0 36 0;
#X connect 26 0 24 0;
#X connect 27 0 24 0;
#X connect 28 0 16 0;
#X connect 29 0 37 0;
#X connect 30 0 28 0;
#X connect 31 0 28 0;
#X connect 32 0 16 0;
#X connect 33 0 38 0;
#X connect 34 0 32 0;
#X connect 35 0 32 0;
#X connect 36 0 26 0;
#X connect 36 1 27 0;
#X connect 37 0 30 0;
#X connect 37 1 31 0;
#X connect 38 0 34 0;
#X connect 38 1 35 0;
#X connect 48 0 16 0;
#X connect 49 0 68 0;
#X connect 50 0 48 0;
#X connect 51 0 48 0;
#X connect 52 0 16 0;
#X connect 53 0 69 0;
#X connect 54 0 52 0;
#X connect 55 0 52 0;
#X connect 56 0 16 0;
#X connect 57 0 70 0;
#X connect 58 0 56 0;
#X connect 59 0 56 0;
#X connect 60 0 16 0;
#X connect 61 0 71 0;
#X connect 62 0 60 0;
#X connect 63 0 60 0;
#X connect 64 0 48 1;
#X connect 65 0 52 1;
#X connect 66 0 56 1;
#X connect 67 0 60 1;
#X connect 68 0 50 0;
#X connect 68 1 51 0;
#X connect 69 0 54 0;
#X connect 69 1 55 0;
#X connect 70 0 58 0;
#X connect 70 1 59 0;
#X connect 71 0 62 0;
#X connect 71 1 63 0;
#X connect 77 0 9 0;
#X coords 0 -1 1 1 400 80 2 100 100;
