#N canvas 361 22 955 1027 10;
#X obj 44 -48 inlet~ in;
#X obj 60 385 outlet~ out;
#X obj 122 222 freeverb~;
#X msg 178 -51 roomsize \$1;
#X msg 205 -12 damping \$1;
#X msg 201 58 wet \$1;
#X msg 199 104 dry \$1;
#X msg 480 -56 freeze \$1;
#X msg 480 20 bypass \$1;
#X obj 480 -73 tgl 15 0 empty empty empty 17 7 0 10 -262144 -1 -1 0
1;
#X obj 480 3 tgl 15 0 empty empty empty 17 7 0 10 -262144 -1 -1 0 1
;
#X obj 333 21 hsl 128 15 0 1 0 0 empty empty empty -2 -8 0 10 -4032
-1 -1 0 1;
#X floatatom 330 40 5 0 0 0 - - -, f 5;
#X obj 255 62 expr 1-$f1;
#X obj 331 -94 hsl 128 15 0 1 0 0 empty empty empty -2 -8 0 10 -4034
-1 -1 0 1;
#X obj 333 -37 hsl 128 15 0 1 0 0 empty empty empty -2 -8 0 10 -260097
-1 -1 0 1;
#X floatatom 330 -17 5 0 0 0 - - -, f 5;
#X floatatom 332 -66 5 0 0 0 - - -, f 5;
#X text 381 -17 Damping level;
#X text 215 333 Pierre Massat \, GuitarExtended \, 2012;
#X obj 153 387 outlet~ out;
#X text 386 36 wet-dry;
#X text 386 -73 Room size;
#X text 361 -116 ## REVERB ##;
#X text 325 -130 in;
#X text 327 114 out;
#X text 524 116 out;
#X text 498 -74 freeze;
#X text 497 2 bypass;
#X obj 330 -274 snapshot~;
#X floatatom 322 -249 5 0 0 0 - - -, f 5;
#X obj 333 -326 tgl 15 0 empty empty empty 17 7 0 10 -262144 -1 -1
1 1;
#X obj 325 -350 loadbang;
#X obj 326 -298 metro 1;
#X floatatom 298 -164 5 0 0 0 - - -, f 5;
#X obj 242 -125 +;
#X obj 281 -194 * 1;
#X obj 306 -222 * 0.5;
#X obj 237 -91 clip -1 0.8;
#X obj 308 -379 inlet~ room size;
#X obj 334 72 hsl 128 15 0 1 0 0 empty empty empty -2 -8 0 10 -4032
-1 -1 0 1;
#X floatatom 331 91 5 0 0 0 - - -, f 5;
#X text 387 87 width;
#X msg 285 216 width \$1;
#X connect 0 0 2 0;
#X connect 0 0 2 1;
#X connect 2 0 1 0;
#X connect 2 1 20 0;
#X connect 3 0 2 0;
#X connect 4 0 2 0;
#X connect 5 0 2 0;
#X connect 6 0 2 0;
#X connect 7 0 2 0;
#X connect 8 0 2 0;
#X connect 9 0 7 0;
#X connect 10 0 8 0;
#X connect 11 0 12 0;
#X connect 11 0 5 0;
#X connect 11 0 13 0;
#X connect 13 0 6 0;
#X connect 14 0 35 1;
#X connect 15 0 4 0;
#X connect 15 0 16 0;
#X connect 29 0 30 0;
#X connect 30 0 37 0;
#X connect 31 0 33 0;
#X connect 32 0 31 0;
#X connect 33 0 29 0;
#X connect 35 0 3 0;
#X connect 35 0 38 0;
#X connect 36 0 34 0;
#X connect 36 0 35 0;
#X connect 37 0 36 0;
#X connect 38 0 17 0;
#X connect 39 0 29 0;
#X connect 40 0 41 0;
#X connect 41 0 43 0;
#X connect 43 0 2 0;
#X coords 0 -1 1 1 226 266 2 324 -130;
