#N canvas 530 98 1322 788 10;
#X obj 102 113 cnv 15 196 235 empty empty empty 20 12 0 14 -128992
-66577 0;
#X obj 467 4 metro 10;
#X obj 483 -41 tgl 15 0 empty empty empty 17 7 0 10 -262144 -1 -1 1
1;
#X obj 346 -47 inlet~ input;
#X obj 339 40 *~;
#X obj 108 330 hsl 180 15 1 0 0 0 empty empty empty -2 -8 0 10 -262144
-1 -1 0 1;
#X text 103 315 attenuation;
#X obj -6 37 loadbang;
#X msg -2 62 1;
#X obj 109 301 hsl 180 15 10 1000 0 0 empty empty empty -2 -8 0 10
-262144 -1 -1 0 1;
#X text 103 284 time;
#X msg -45 179 10;
#X obj 542 -34 loadbang;
#X text 101 100 in;
#X obj 600 166 snapshot~;
#X floatatom 617 212 5 0 0 0 - - -, f 5;
#X obj 603 114 tgl 15 0 empty empty empty 17 7 0 10 -262144 -1 -1 1
1;
#X obj 595 90 loadbang;
#X obj 596 142 metro 1;
#N canvas 733 289 920 340 scopey 0;
#X obj 24 13 inlet~ in;
#X obj 171 15 inlet bang;
#X obj 100 100 cnv 15 195 140 empty empty empty 20 12 0 14 -4034 -66577
0;
#N canvas 0 50 785 641 (subpatch) 0;
#X array \$0-scope 100 float 0;
#X coords 0 1 99 -1 195 140 2 0 0;
#X restore 100 100 graph;
#X obj 51 57 tabwrite~ \$0-scope;
#X connect 0 0 4 0;
#X connect 1 0 4 0;
#X coords 0 -1 1 1 195 140 2 100 100;
#X restore 102 141 pd scopey;
#X obj 465 461 print;
#X floatatom 452 278 5 0 0 0 - - -, f 5;
#X msg 454 337 \$0-scope;
#X connect 1 0 19 1;
#X connect 2 0 1 0;
#X connect 3 0 4 0;
#X connect 3 0 14 0;
#X connect 4 0 19 0;
#X connect 5 0 4 1;
#X connect 7 0 8 0;
#X connect 7 0 11 0;
#X connect 8 0 5 0;
#X connect 9 0 1 1;
#X connect 11 0 9 0;
#X connect 12 0 2 0;
#X connect 16 0 18 0;
#X connect 17 0 16 0;
#X connect 18 0 14 0;
#X connect 21 0 22 0;
#X connect 22 0 20 0;
#X coords 0 -1 1 1 200 250 2 100 100;
