#N canvas 111 511 918 565 10;
#X obj 102 113 cnv 15 196 235 empty empty empty 20 12 0 14 -128992
-66577 0;
#X obj 102 134 cnv 15 195 140 empty empty empty 20 12 0 14 -4034 -66577
0;
#N canvas 0 50 450 250 (subpatch) 0;
#X array scope 100 float 0;
#X coords 0 1 99 -1 195 140 2 0 0;
#X restore 102 134 graph;
#X obj 401 217 tabwrite~ scope;
#X obj 472 23 metro 10;
#X obj 483 -41 tgl 15 0 empty empty empty 17 7 0 10 -262144 -1 -1 1
1;
#X obj 338 -105 inlet~ input;
#X obj 339 40 *~;
#X obj 108 330 hsl 180 15 1 0 0 0 empty empty empty -2 -8 0 10 -262144
-1 -1 300 1;
#X text 103 315 attenuation;
#X obj -6 37 loadbang;
#X msg -2 62 1;
#X obj 109 301 hsl 180 15 2 500 0 0 empty empty empty -2 -8 0 10 -262144
-1 -1 300 1;
#X text 103 284 time;
#X msg -45 179 10;
#X obj 542 -34 loadbang;
#X text 101 100 in;
#X connect 4 0 3 0;
#X connect 5 0 4 0;
#X connect 6 0 7 0;
#X connect 7 0 3 0;
#X connect 8 0 7 1;
#X connect 10 0 11 0;
#X connect 10 0 14 0;
#X connect 11 0 8 0;
#X connect 12 0 4 1;
#X connect 14 0 12 0;
#X connect 15 0 5 0;
#X coords 0 -1 1 1 200 250 2 100 100;
