#N canvas 917 141 324 330 10;
#X obj 15 17 vsl 60 300 -1 1 0 0 \$0-slider empty empty 0 -9 0 10 -262144
-1 -1 4725 1;
#N canvas 0 22 450 300 sub 1;
#X obj 218 -26 import mrpeach;
#X obj 101 177 udpsend;
#X obj 132 132 packOSC;
#X floatatom 122 61 5 0 1 0 - - -, f 5;
#X msg 226 133 disconnect;
#X msg 121 85 send /osc2 \$1;
#X msg 100 14 connect 10.0.0.4 9005;
#X obj 228 62 r \$0-slider;
#X dropdown 210 194 6 1 0 0 - - -, f 6;
#X obj 210 215 tgl 15 0 empty empty empty 17 7 0 10 -262144 -1 -1 0
1;
#X obj 76 -11 r \$0-connect;
#X connect 2 0 1 0;
#X connect 3 0 5 0;
#X connect 4 0 1 0;
#X connect 5 0 2 0;
#X connect 6 0 1 0;
#X connect 7 0 3 0;
#X connect 8 0 9 0;
#X connect 10 0 6 0;
#X restore 133 262 pd sub;
#X text 180 35 ## SEND OSC v0.3 ##;
#X obj 240 94 bng 47 250 50 0 \$0-connect empty empty 17 7 0 10 -262144
-1 -1;
#X text 240 77 connect;
