#N canvas 52 95 776 608 10;
#X obj 100 114 cnv 15 200 60 empty empty empty 20 12 0 14 -262130 -66577
0;
#X obj 95 47 bng 30 50 50 0 empty empty empty 17 7 0 10 -191407 -258113
-1;
#X obj 66 -161 inlet~ clock;
#X obj 66 -131 threshold~ 0.1 1 1 1;
#X obj 97 -21 spigot;
#X obj 136 -53 tgl 15 0 empty empty empty 17 7 0 10 -262144 -1 -1 1
1;
#X obj 160 -76 bng 15 250 50 0 empty empty empty 17 7 0 10 -262144
-1 -1;
#X obj 149 -105 loadbang;
#X obj 480 -98 select 0 1 2 3;
#X obj 225 -24 float;
#X floatatom 213 38 5 0 0 0 - - -, f 5;
#X obj 271 -24 +;
#X msg 225 -103 0;
#X obj 223 -162 inlet~ reset;
#X text 305 -166 HIGH sets the seq to 0;
#X msg 260 -58 -1;
#X msg 295 -58 1;
#X obj 221 6 mod 4;
#X obj 347 -118 loadbang;
#X obj 342 3 inlet~ one;
#X obj 417 2 inlet~ two;
#X obj 490 2 inlet~ three;
#X obj 575 1 inlet~ four;
#X obj 470 298 outlet~ out;
#X obj 364 227 *~;
#X obj 223 74 s \$0-step;
#X obj 480 -141 r \$0-step;
#X obj 344 96 r \$0-step;
#X obj 342 133 select 0;
#X msg 346 170 1;
#X msg 384 170 0;
#X obj 443 227 *~;
#X obj 423 96 r \$0-step;
#X msg 425 170 1;
#X msg 463 170 0;
#X obj 517 226 *~;
#X obj 497 95 r \$0-step;
#X msg 499 169 1;
#X msg 537 169 0;
#X obj 591 226 *~;
#X obj 571 95 r \$0-step;
#X msg 573 169 1;
#X msg 611 169 0;
#X obj 421 133 select 1;
#X obj 495 132 select 2;
#X obj 569 132 select 3;
#X obj 106 228 tgl 30 0 empty empty empty 17 7 0 10 -262144 -1 -1 1
1;
#X text 136 103 res;
#X text 180 103 1;
#X text 212 103 2;
#X text 245 103 3;
#X text 280 103 4;
#X text 102 164 out;
#X obj 162 228 tgl 30 0 empty empty empty 17 7 0 10 -262144 -1 -1 0
1;
#X obj 217 228 tgl 30 0 empty empty empty 17 7 0 10 -262144 -1 -1 0
1;
#X obj 267 228 tgl 30 0 empty empty empty 17 7 0 10 -262144 -1 -1 0
1;
#X obj 327 -89 del 10;
#X text 123 117 ### SEQUENTIAL SWITCH ###;
#X text 104 103 clk;
#X obj 220 -132 threshold~ 0.1 1 1 1;
#X obj 134 133 hradio 40 1 0 4 empty empty empty 0 -8 0 10 -262144
-1 -1 0;
#X connect 2 0 3 0;
#X connect 3 0 4 0;
#X connect 4 0 1 0;
#X connect 4 0 9 0;
#X connect 5 0 4 1;
#X connect 6 0 5 0;
#X connect 7 0 5 0;
#X connect 9 0 11 0;
#X connect 9 0 17 0;
#X connect 10 0 60 0;
#X connect 11 0 9 1;
#X connect 12 0 9 0;
#X connect 13 0 59 0;
#X connect 15 0 11 1;
#X connect 16 0 11 1;
#X connect 17 0 10 0;
#X connect 17 0 25 0;
#X connect 18 0 56 0;
#X connect 19 0 24 1;
#X connect 20 0 31 1;
#X connect 21 0 35 1;
#X connect 22 0 39 1;
#X connect 24 0 23 0;
#X connect 26 0 8 0;
#X connect 27 0 28 0;
#X connect 28 0 29 0;
#X connect 28 1 30 0;
#X connect 29 0 24 0;
#X connect 29 0 46 0;
#X connect 30 0 24 0;
#X connect 30 0 46 0;
#X connect 31 0 23 0;
#X connect 32 0 43 0;
#X connect 33 0 31 0;
#X connect 33 0 53 0;
#X connect 34 0 31 0;
#X connect 34 0 53 0;
#X connect 35 0 23 0;
#X connect 36 0 44 0;
#X connect 37 0 35 0;
#X connect 37 0 54 0;
#X connect 38 0 35 0;
#X connect 38 0 54 0;
#X connect 39 0 23 0;
#X connect 40 0 45 0;
#X connect 41 0 39 0;
#X connect 41 0 55 0;
#X connect 42 0 39 0;
#X connect 42 0 55 0;
#X connect 43 0 33 0;
#X connect 43 1 34 0;
#X connect 44 0 37 0;
#X connect 44 1 38 0;
#X connect 45 0 41 0;
#X connect 45 1 42 0;
#X connect 56 0 16 0;
#X connect 59 0 12 0;
#X coords 0 -1 1 1 200 80 2 100 100;
