#N canvas 119 22 955 1027 10;
#X obj 100 109 cnv 15 150 180 empty empty empty 20 12 0 14 -191407
-262144 0;
#X obj 364 336 pack;
#X msg 354 245 1;
#X obj 464 334 pack;
#X msg 451 297 0;
#X obj 444 129 snapshot~;
#X obj 530 61 tgl 15 0 empty empty empty 17 7 0 10 -262144 -1 -1 1
1;
#X obj 529 38 loadbang;
#X obj 520 83 metro 1;
#X floatatom 450 155 5 0 0 0 - - -, f 5;
#X obj 429 216 select 1;
#X floatatom 559 437 5 0 0 0 - - -, f 5;
#X obj 551 380 line;
#X obj 402 379 vline~;
#X floatatom 559 487 5 0 0 0 - - -, f 5;
#X obj 559 460 < 0.01;
#X obj 161 141 bng 30 250 50 0 empty empty empty 17 7 0 10 -1 -258113
-1;
#X text 595 438 current level;
#X text 606 461 low thresh;
#X text 597 486 1 = complete;
#X obj 559 507 select 1;
#X obj 368 128 sig~;
#X floatatom 555 411 5 0 0 0 - - -, f 5;
#X obj 558 538 bng 15 250 50 0 empty empty empty 17 7 0 10 -262144
-1 -1;
#X obj 604 537 bng 15 250 50 0 empty empty empty 17 7 0 10 -262144
-1 -1;
#X msg 551 603 1;
#X obj 551 577 t b b;
#X obj 581 654 sel 0;
#X obj 581 633 f 0;
#X obj 584 679 bng 15 250 50 0 empty empty empty 17 7 0 10 -262144
-1 -1;
#X msg 609 595 0;
#X msg 566 721 1;
#X msg 605 755 0;
#X obj 602 724 delay 20;
#X obj 463 672 spigot;
#X obj 161 226 tgl 30 0 empty empty empty 17 7 0 10 -262144 -1 -1 1
1;
#X msg 282 84 1;
#X msg 321 118 0;
#X text 338 404 envelope output;
#X text 358 25 gate input;
#X text 493 639 loop?;
#X obj 327 7 inlet~ gate;
#X obj 114 186 vsl 22 90 2 1000 0 0 empty empty empty 0 -9 0 10 -262144
-1 -1 0 1;
#X obj 210 185 vsl 22 90 2 1000 0 0 empty empty empty 0 -9 0 10 -262144
-1 -1 450 1;
#X text 121 166 up;
#X text 205 166 down;
#X text 125 124 SLOPE GENERATOR;
#X text 160 205 loop;
#X obj 161 182 bng 20 250 50 0 empty empty empty 17 7 0 10 -262144
-4034 -1;
#X obj 633 139 snapshot~;
#X obj 659 90 tgl 15 0 empty empty empty 17 7 0 10 -262144 -1 -1 1
1;
#X obj 660 66 loadbang;
#X obj 655 111 metro 1;
#X floatatom 639 165 5 0 0 0 - - -, f 5;
#X obj 637 22 inlet~ up_cv;
#X obj 757 142 snapshot~;
#X obj 783 93 tgl 15 0 empty empty empty 17 7 0 10 -262144 -1 -1 1
1;
#X obj 784 69 loadbang;
#X obj 779 114 metro 1;
#X floatatom 763 168 5 0 0 0 - - -, f 5;
#X obj 761 25 inlet~ down_cv;
#X obj 875 141 snapshot~;
#X obj 901 92 tgl 15 0 empty empty empty 17 7 0 10 -262144 -1 -1 1
1;
#X obj 902 68 loadbang;
#X floatatom 881 167 5 0 0 0 - - -, f 5;
#X obj 879 24 inlet~ loop_cv;
#X obj 535 275 +;
#X obj 192 23 loadbang;
#X msg 190 56 500;
#X obj 254 558 outlet~ cv;
#X obj 318 87 delay 10;
#X obj 441 183 > 0.01;
#X obj 271 304 +;
#X obj 601 198 * 100;
#X floatatom 553 338 5 0 0 0 - - -, f 5;
#X obj 707 207 * 500;
#X text 102 100 gate;
#X text 145 99 up;
#X text 178 99 down;
#X text 214 100 loop;
#X text 100 285 out;
#X obj 324 302 clip 0.01 1000;
#X obj 521 303 clip 0.01 2000;
#X msg 812 485 1;
#X obj 883 459 float;
#X obj 929 459 + 1;
#X obj 878 489 mod 2;
#X obj 877 518 select 1;
#X msg 813 525 0;
#X obj 873 243 select 1;
#X obj 872 274 bng 15 250 50 0 empty empty empty 17 7 0 10 -262144
-1 -1;
#X obj 918 273 bng 15 250 50 0 empty empty empty 17 7 0 10 -262144
-1 -1;
#X msg 865 339 1;
#X obj 865 313 t b b;
#X obj 895 390 sel 0;
#X obj 895 369 f 0;
#X obj 898 415 bng 15 250 50 0 empty empty empty 17 7 0 10 -262144
-1 -1;
#X msg 923 331 0;
#X obj 868 194 > 0.5;
#X obj 897 113 metro 20;
#X msg 62 37 2;
#X connect 1 0 12 0;
#X connect 1 0 13 0;
#X connect 2 0 1 0;
#X connect 2 0 48 0;
#X connect 3 0 12 0;
#X connect 3 0 13 0;
#X connect 4 0 3 0;
#X connect 5 0 9 0;
#X connect 6 0 8 0;
#X connect 7 0 6 0;
#X connect 8 0 5 0;
#X connect 9 0 71 0;
#X connect 10 0 2 0;
#X connect 10 1 4 0;
#X connect 11 0 15 0;
#X connect 12 0 22 0;
#X connect 13 0 69 0;
#X connect 14 0 20 0;
#X connect 15 0 14 0;
#X connect 16 0 36 0;
#X connect 16 0 70 0;
#X connect 20 0 23 0;
#X connect 20 1 24 0;
#X connect 21 0 5 0;
#X connect 22 0 11 0;
#X connect 23 0 26 0;
#X connect 24 0 30 0;
#X connect 25 0 28 1;
#X connect 26 0 25 0;
#X connect 26 1 28 0;
#X connect 27 0 29 0;
#X connect 28 0 27 0;
#X connect 29 0 31 0;
#X connect 29 0 33 0;
#X connect 30 0 28 1;
#X connect 31 0 34 0;
#X connect 32 0 34 0;
#X connect 33 0 32 0;
#X connect 34 0 21 0;
#X connect 35 0 34 1;
#X connect 36 0 21 0;
#X connect 37 0 21 0;
#X connect 41 0 5 0;
#X connect 42 0 72 1;
#X connect 43 0 66 1;
#X connect 49 0 53 0;
#X connect 49 0 73 0;
#X connect 50 0 52 0;
#X connect 51 0 50 0;
#X connect 52 0 49 0;
#X connect 54 0 49 0;
#X connect 55 0 59 0;
#X connect 55 0 75 0;
#X connect 56 0 58 0;
#X connect 57 0 56 0;
#X connect 58 0 55 0;
#X connect 60 0 55 0;
#X connect 61 0 64 0;
#X connect 61 0 98 0;
#X connect 62 0 99 0;
#X connect 63 0 62 0;
#X connect 65 0 61 0;
#X connect 66 0 82 0;
#X connect 67 0 68 0;
#X connect 67 0 100 0;
#X connect 68 0 43 0;
#X connect 70 0 37 0;
#X connect 71 0 10 0;
#X connect 72 0 81 0;
#X connect 73 0 72 0;
#X connect 75 0 66 0;
#X connect 81 0 1 1;
#X connect 82 0 3 1;
#X connect 82 0 74 0;
#X connect 83 0 35 0;
#X connect 84 0 85 0;
#X connect 84 0 86 0;
#X connect 85 0 84 1;
#X connect 86 0 87 0;
#X connect 87 0 83 0;
#X connect 87 1 88 0;
#X connect 88 0 35 0;
#X connect 89 0 90 0;
#X connect 89 1 91 0;
#X connect 90 0 93 0;
#X connect 91 0 97 0;
#X connect 92 0 95 1;
#X connect 93 0 92 0;
#X connect 93 1 95 0;
#X connect 94 0 96 0;
#X connect 95 0 94 0;
#X connect 96 0 84 0;
#X connect 97 0 95 1;
#X connect 98 0 89 0;
#X connect 99 0 61 0;
#X connect 100 0 42 0;
#X coords 0 -1 1 1 150 200 2 100 100;
