#N canvas 907 128 765 763 10;
#X obj 368 27 inlet~ cv;
#X obj 267 556 outlet~;
#X obj 185 26 inlet~ input;
#X obj 262 329 *~;
#X obj 102 128 cnv 15 70 100 empty empty empty 20 12 0 14 -257825 -66577
0;
#X text 102 98 in;
#X text 149 102 cv;
#X text 101 230 out;
#X obj 131 140 vsl 30 100 0 1 0 0 empty empty empty 0 -9 0 10 -262144
-1 -1 990 1;
#X obj 322 123 +~;
#X obj 23 34 loadbang;
#X text 108 113 ### VCA;
#X msg 23 83 0.1;
#X obj 265 426 clip~ -1 1;
#X text 345 410 brick wall limiter;
#X text 341 430 to do: make this sound nicer;
#X obj 107 163 tgl 15 0 empty empty empty 17 7 0 10 -262144 -1 -1 0
1;
#X obj 12 205 select 1;
#X obj 267 382 *~;
#X text 127 344 quick fade;
#X floatatom 109 391 5 0 0 0 - - -, f 5;
#X obj 107 364 line;
#X msg 94 53 `1;
#X text 100 177 mute;
#X obj 148 268 loadbang;
#X msg 79 312 0 50;
#X msg 132 313 1 50;
#X obj 252 473 s~ \$0-output;
#X obj 258 519 r~ \$0-output;
#X obj 196 70 s~ \$0-input;
#X obj 210 110 r~ \$0-input;
#X obj 368 51 s~ \$0-incv;
#X obj 320 85 r~ \$0-incv;
#X obj 433 108 block~ 64;
#X connect 0 0 31 0;
#X connect 2 0 29 0;
#X connect 3 0 18 1;
#X connect 8 0 9 1;
#X connect 9 0 3 1;
#X connect 10 0 12 0;
#X connect 12 0 8 0;
#X connect 13 0 27 0;
#X connect 16 0 17 0;
#X connect 17 0 25 0;
#X connect 17 1 26 0;
#X connect 18 0 13 0;
#X connect 21 0 18 0;
#X connect 21 0 20 0;
#X connect 24 0 26 0;
#X connect 25 0 21 0;
#X connect 26 0 21 0;
#X connect 28 0 1 0;
#X connect 30 0 3 0;
#X connect 32 0 9 0;
#X coords 0 -1 1 1 70 150 2 100 100;
