#N canvas 0 51 1440 763 10;
#X obj 415 443 outlet~ sine;
#X obj 338 30 inlet~ CV_in;
#X obj 523 438 outlet~ saw;
#X obj 607 440 outlet~ rectangle;
#X obj 747 446 outlet~ tri;
#X obj 100 105 cnv 15 123 190 empty empty empty 20 12 0 14 -258789
-66577 0;
#X obj 111 169 vsl 30 100 0.1 12000 1 0 empty empty empty 0 -9 0 10
-262017 -258789 -1 5650 1;
#X text 100 148 freq;
#X text 100 282 sine;
#X obj 178 167 vsl 30 100 0 1 0 0 empty empty empty 0 -9 0 10 -262017
-258789 -1 8550 1;
#X text 178 147 width;
#X text 134 282 saw;
#X text 164 282 rec;
#X text 198 282 tri;
#X obj 231 22 loadbang;
#X msg 262 91 0.5;
#X obj 660 383 bng 15 100 10 0 empty empty empty 17 7 0 10 -99865 -258113
-258113;
#X text 102 117 ####### VCO #######;
#X text 337 11 from -1 to 1;
#X obj 493 237 snapshot~;
#X floatatom 512 262 5 0 0 0 - - -, f 5;
#X obj 496 185 tgl 15 0 empty empty empty 17 7 0 10 -262144 -1 -1 1
1;
#X obj 488 161 loadbang;
#X obj 489 213 metro 1;
#X floatatom 191 310 5 0 0 0 - - -, f 5;
#X obj 761 176 inlet~ sync;
#X text 101 103 cv;
#X text 148 102 pwm;
#X text 193 103 sync;
#X floatatom 316 319 5 0 0 0 - - -, f 5;
#X obj 431 194 *~ 300;
#X obj 460 344 vcocore2, f 44;
#X text 647 366 led;
#X text 770 198 not implemented yet;
#X obj 350 69 delwrite~ \$0-delay;
#X obj 345 151 delread~ \$0-delay;
#X obj 395 382 delwrite~ \$0-sine;
#X obj 406 412 delread~ \$0-sine;
#X msg 15 39 60;
#X connect 1 0 34 0;
#X connect 6 0 29 0;
#X connect 9 0 24 0;
#X connect 9 0 31 2;
#X connect 14 0 15 0;
#X connect 14 0 38 0;
#X connect 15 0 9 0;
#X connect 19 0 20 0;
#X connect 21 0 23 0;
#X connect 22 0 21 0;
#X connect 23 0 19 0;
#X connect 29 0 31 0;
#X connect 30 0 31 1;
#X connect 30 0 19 0;
#X connect 31 0 36 0;
#X connect 31 1 2 0;
#X connect 31 2 3 0;
#X connect 31 3 16 0;
#X connect 31 4 4 0;
#X connect 35 0 30 0;
#X connect 37 0 0 0;
#X connect 38 0 6 0;
#X coords 0 -1 1 1 125 200 2 100 100;
