#N canvas 641 4 638 1027 10;
#X obj 415 443 outlet~ sine;
#X obj 523 438 outlet~ saw;
#X obj 607 440 outlet~ rectangle;
#X obj 747 446 outlet~ tri;
#X obj 100 105 cnv 15 123 190 empty empty empty 20 12 0 14 -204800
-66577 0;
#X obj 111 169 vsl 30 100 0.1 12000 1 0 empty empty empty 0 -9 0 10
-262017 -258789 -1 2115 1;
#X text 100 148 freq;
#X text 100 282 sine;
#X obj 178 167 vsl 30 100 0 1 0 0 empty empty empty 0 -9 0 10 -262017
-258789 -1 4950 1;
#X text 178 147 width;
#X text 134 282 saw;
#X text 164 282 rec;
#X text 198 282 tri;
#X obj 231 22 loadbang;
#X msg 262 91 0.5;
#X obj 660 383 bng 15 100 10 0 empty empty empty 17 7 0 10 -99865 -258113
-258113;
#X text 102 117 ####### VCO #######;
#X text 337 11 from -1 to 1;
#X floatatom 191 310 5 0 0 0 - - -, f 5;
#X obj 761 176 inlet~ sync;
#X text 148 102 pwm;
#X text 193 103 sync;
#X floatatom 316 319 5 0 0 0 - - -, f 5;
#X obj 460 344 vcocore2, f 44;
#X text 647 366 led;
#X text 770 198 not implemented yet;
#X obj 395 382 delwrite~ \$0-sine;
#X obj 406 412 delread~ \$0-sine;
#X msg 15 39 60;
#X obj 338 30 inlet midi_in;
#X text 101 100 midi;
#X connect 5 0 22 0;
#X connect 8 0 18 0;
#X connect 8 0 23 2;
#X connect 13 0 14 0;
#X connect 13 0 28 0;
#X connect 14 0 8 0;
#X connect 22 0 23 0;
#X connect 23 0 26 0;
#X connect 23 1 1 0;
#X connect 23 2 2 0;
#X connect 23 3 15 0;
#X connect 23 4 3 0;
#X connect 27 0 0 0;
#X connect 28 0 5 0;
#X connect 29 0 23 1;
#X coords 0 -1 1 1 125 200 2 100 100;
