#N canvas 961 4 635 1027 10;
#X obj -4 115 inlet pitch;
#X obj 452 67 inlet~ pwm;
#X obj 501 183 inlet~ sync;
#X obj 55 411 osc~;
#X obj 1 735 outlet~ sine;
#X obj 178 395 phasor~;
#X obj 138 730 outlet~ saw;
#X obj 284 739 outlet~ rectangle;
#X obj 316 397 phasor~;
#X text 334 444 comparator;
#X obj 315 426 expr~ $v1 > $v2;
#X obj 468 326 +~;
#X obj 173 421 *~ 2;
#X obj 180 453 -~ 1;
#X obj 301 570 *~ 2;
#X obj 302 599 -~ 1;
#X obj 604 736 outlet~ tri;
#X obj 584 485 phasor~;
#X obj 584 507 *~ 2;
#X obj 584 529 -~ 1;
#X obj 584 551 clip~ 0 1;
#X obj 611 586 +~;
#X obj 674 486 phasor~;
#X obj 674 508 *~ 2;
#X obj 674 530 -~ 1;
#X obj 674 552 clip~ 0 1;
#X msg 688 445 0;
#X obj 629 444 *~ -1;
#X obj 690 400 loadbang;
#X obj 614 624 *~ 2;
#X obj 615 653 -~ 1;
#X text 537 381 from http://www.pd-tutorial.com/english/ch03s05.html
;
#X obj 448 558 snapshot~;
#X floatatom 468 588 5 0 0 0 - - -, f 5;
#X obj 448 515 metro 2;
#X obj 454 487 tgl 15 0 empty empty empty 17 7 0 10 -262144 -1 -1 1
1;
#X obj 447 437 loadbang;
#X obj 466 609 spigot;
#X text 496 321 extremes = silence fix PWM so no silence;
#X obj 448 350 clip~ 0.01 0.99;
#X obj 276 284 +~;
#X obj 351 70 inlet pwm_amt;
#X obj 462 734 outlet led;
#X floatatom 11 173 5 0 0 0 - - -, f 5;
#X obj 73 164 snapshot~;
#X floatatom 73 192 5 0 0 0 - - -, f 5;
#X obj 73 113 tgl 15 0 empty empty empty 17 7 0 10 -262144 -1 -1 1
1;
#X obj 73 86 loadbang;
#X obj 73 141 metro 1;
#X obj 231 94 inlet~ cv;
#X obj 907 318 snapshot~;
#X obj 933 269 tgl 15 0 empty empty empty 17 7 0 10 -262144 -1 -1 1
1;
#X obj 934 245 loadbang;
#X floatatom 913 344 5 0 0 0 - - -, f 5;
#X obj 905 420 select 1;
#X obj 904 451 bng 15 250 50 0 empty empty empty 17 7 0 10 -262144
-1 -1;
#X obj 950 450 bng 15 250 50 0 empty empty empty 17 7 0 10 -262144
-1 -1;
#X msg 897 516 1;
#X obj 897 490 t b b;
#X obj 927 567 sel 0;
#X obj 927 546 f 0;
#X obj 930 592 bng 15 250 50 0 empty empty empty 17 7 0 10 -262144
-1 -1;
#X msg 955 508 0;
#X obj 900 371 > 0.5;
#X obj 929 290 metro 1;
#X msg 535 247 0;
#X obj 73 218 autoscale;
#X floatatom 73 243 5 0 0 0 - - -, f 5;
#X obj 73 265 * 127;
#X floatatom 73 288 5 0 0 0 - - -, f 5;
#X obj 73 310 mtof;
#X floatatom 73 332 5 0 0 0 - - -, f 5;
#X obj 130 48 inlet midi;
#X connect 0 0 43 0;
#X connect 1 0 11 1;
#X connect 2 0 50 0;
#X connect 3 0 4 0;
#X connect 5 0 12 0;
#X connect 8 0 10 0;
#X connect 10 0 14 0;
#X connect 10 0 32 0;
#X connect 11 0 39 0;
#X connect 12 0 13 0;
#X connect 13 0 6 0;
#X connect 14 0 15 0;
#X connect 15 0 7 0;
#X connect 17 0 18 0;
#X connect 18 0 19 0;
#X connect 19 0 20 0;
#X connect 20 0 21 0;
#X connect 21 0 29 0;
#X connect 22 0 23 0;
#X connect 23 0 24 0;
#X connect 24 0 25 0;
#X connect 25 0 21 1;
#X connect 26 0 17 1;
#X connect 26 0 22 1;
#X connect 27 0 22 0;
#X connect 28 0 26 0;
#X connect 29 0 30 0;
#X connect 30 0 16 0;
#X connect 32 0 33 0;
#X connect 33 0 37 1;
#X connect 33 0 37 0;
#X connect 34 0 32 0;
#X connect 35 0 34 0;
#X connect 36 0 35 0;
#X connect 37 0 42 0;
#X connect 39 0 10 1;
#X connect 40 0 5 0;
#X connect 40 0 8 0;
#X connect 40 0 17 0;
#X connect 40 0 27 0;
#X connect 40 0 3 0;
#X connect 41 0 11 0;
#X connect 43 0 40 1;
#X connect 44 0 45 0;
#X connect 45 0 66 0;
#X connect 46 0 48 0;
#X connect 47 0 46 0;
#X connect 48 0 44 0;
#X connect 50 0 53 0;
#X connect 50 0 63 0;
#X connect 51 0 64 0;
#X connect 52 0 51 0;
#X connect 54 0 55 0;
#X connect 54 1 56 0;
#X connect 55 0 58 0;
#X connect 56 0 62 0;
#X connect 57 0 60 1;
#X connect 58 0 57 0;
#X connect 58 1 60 0;
#X connect 59 0 61 0;
#X connect 60 0 59 0;
#X connect 61 0 65 0;
#X connect 62 0 60 1;
#X connect 63 0 54 0;
#X connect 64 0 50 0;
#X connect 65 0 5 1;
#X connect 65 0 3 1;
#X connect 65 0 8 1;
#X connect 65 0 26 0;
#X connect 66 0 67 0;
#X connect 67 0 68 0;
#X connect 68 0 69 0;
#X connect 69 0 70 0;
#X connect 70 0 71 0;
#X connect 72 0 40 0;
