#N canvas 4 4 1912 1027 10;
#X obj 92 1788 scope;
#X obj 822 465 comparator;
#X obj 688 363 lpg;
#X obj 836 1934 grains;
#X obj 283 305 delayy;
#X obj 699 -112 slope;
#X obj 339 1781 gate2trigger;
#X obj 318 1042 midi2cv;
#X obj 916 -232 fold;
#X obj 1033 -134 mixer;
#X obj 1245 1231 dual_vco;
#X obj -147 1795 cubic-soft-clip;
#X obj 1130 603 learn_midi;
#X obj 23 89 mixer;
#X obj 1335 313 karplus;
#X obj 153 -206 vca;
#X obj 131 629 vco;
#X obj -34 1784 fold;
#X obj -154 -232 sampler1;
#X obj 745 989 clock;
#X obj 691 273 manual_gate;
#X obj 809 1583 wavetable;
#X obj 1386 266 midirealtimein;
#X obj 524 2137 dac~;
#X obj 491 1884 mixer;
#X obj 1725 698 slope;
#X obj 1919 727 gate_seq;
#X obj 185 907 vca;
#X obj 321 1893 slope;
#X obj 2456 800 vco;
#X obj 272 634 vco;
#X obj 409 634 vco;
#X obj 546 633 vco;
#X obj 682 635 vco;
#X obj 819 635 vco;
#X obj 1063 1052 vco;
#X obj 808 1182 divider;
#X obj -104 1056 beatmangle;
#X obj 448 979 vco;
#X obj 645 1212 rancv;
#X obj 1595 1019 reverb;
#X obj 681 1479 cv2midi;
#X obj 594 1300 attenuvert;
#X obj 634 1606 vco2;
#X obj 64 1420 random_midi3;
#X obj -105 1392 clock;
#X floatatom 521 1778 5 0 0 0 - - -, f 5;
#X obj 1097 1266 vco;
#X connect 6 0 28 0;
#X connect 16 1 27 0;
#X connect 24 0 23 0;
#X connect 24 0 23 1;
#X connect 28 0 24 8;
#X connect 38 2 39 0;
#X connect 38 2 36 0;
#X connect 39 0 42 0;
#X connect 41 0 21 1;
#X connect 42 0 41 0;
#X connect 43 0 24 0;
#X connect 43 1 24 2;
#X connect 44 0 0 0;
#X connect 44 1 6 0;
#X connect 44 2 46 0;
#X connect 44 2 43 0;
#X connect 45 0 44 0;
