#N canvas 521 22 1049 792 10;
#X obj 890 1776 scope;
#X obj 822 465 comparator;
#X obj 688 363 lpg;
#X obj 821 2065 grains;
#X obj 283 305 delayy;
#X obj 699 -112 slope;
#X obj 387 1857 gate2trigger;
#X obj 318 1042 midi2cv;
#X obj 916 -232 fold;
#X obj 1033 -134 mixer;
#X obj 1245 1231 dual_vco;
#X obj -147 1795 cubic-soft-clip;
#X obj 1130 603 learn_midi;
#X obj 420 -64 mixer;
#X obj 1335 313 karplus;
#X obj 153 -206 vca;
#X obj 131 629 vco;
#X obj -34 1784 fold;
#X obj -157 -94 sampler1;
#X obj 745 989 clock;
#X obj 691 273 manual_gate;
#X obj 1336 1463 wavetable;
#X obj 1386 266 midirealtimein;
#X obj 524 2154 dac~;
#X obj 550 1840 mixer;
#X obj 1725 698 slope;
#X obj 1919 727 gate_seq;
#X obj 185 907 vca;
#X obj 320 2023 slope;
#X obj 2456 800 vco;
#X obj 272 634 vco;
#X obj 409 634 vco;
#X obj 546 633 vco;
#X obj 682 635 vco;
#X obj 819 635 vco;
#X obj 1063 1052 vco;
#X obj 808 1182 divider;
#X obj -125 1082 beatmangle;
#X obj 448 979 vco;
#X obj 645 1212 rancv;
#X obj 1595 1019 reverb;
#X obj 579 1481 cv2midi;
#X obj 594 1300 attenuvert;
#X obj 579 1606 vco2;
#X obj 72 1434 random_midi3;
#X obj 967 1325 clock;
#X obj 1036 1300 vco;
#X obj 274 1262 random_gates;
#X obj -106 1544 random_gates;
#X obj 420 1794 noise~;
#X obj 416 1766 sig~ 4;
#X obj 1072 1556 import mrpeach;
#X obj 1099 1754 udpsend;
#X obj 1130 1709 packOSC;
#X floatatom 1120 1638 5 0 1 0 - - -, f 5;
#X msg 1236 1588 disconnect;
#X text 1116 1529 ## SEND OSC ##;
#X msg 1119 1662 send /osc2 \$1;
#X msg 1073 1587 connect localhost 9005;
#X obj 757 1582 r_osc;
#X connect 6 0 28 0;
#X connect 16 1 27 0;
#X connect 24 0 23 0;
#X connect 24 0 23 1;
#X connect 38 2 36 0;
#X connect 38 2 39 0;
#X connect 39 0 42 0;
#X connect 42 0 41 0;
#X connect 44 2 43 0;
#X connect 47 0 44 0;
#X connect 53 0 52 0;
#X connect 54 0 57 0;
#X connect 55 0 52 0;
#X connect 57 0 53 0;
#X connect 58 0 52 0;
#X connect 59 1 0 0;
