#N canvas 0 22 1440 815 10;
#X obj 1054 23 midi2cv;
#X obj 1058 532 comparator;
#X obj 445 699 dac~;
#X obj 37 47 vco;
#X obj 72 456 scope;
#X obj 1056 138 lpg;
#X obj 852 348 slope;
#X obj 1077 294 mixer;
#X obj 37 -403 vco;
#X obj 1190 524 gate2trigger;
#X obj 48 -173 seq2;
#X obj 281 226 lpg;
#X obj 396 44 gate2trigger;
#X obj 463 292 delayy;
#X obj 749 114 grains;
#X obj 463 -172 seq2;
#X obj 353 516 vca;
#X obj 902 59 osc~ 0.08;
#X obj 301 -443 vco;
#X obj 815 60 osc~ 0.07;
#X obj 178 264 vca;
#X obj 39 271 fold;
#X obj 660 431 delayy;
#X obj 501 519 vca;
#X obj 714 376 osc~ 0.03;
#X obj 477 241 osc~ 0.06;
#X obj 240 156 osc~ 0.4;
#X connect 3 0 21 0;
#X connect 8 0 10 0;
#X connect 10 0 3 0;
#X connect 10 1 12 0;
#X connect 11 0 14 0;
#X connect 12 0 11 1;
#X connect 13 0 16 0;
#X connect 14 0 13 0;
#X connect 14 0 22 0;
#X connect 15 0 3 0;
#X connect 16 0 2 0;
#X connect 17 0 14 2;
#X connect 18 3 15 0;
#X connect 19 0 14 1;
#X connect 20 0 11 0;
#X connect 21 0 20 0;
#X connect 22 0 23 0;
#X connect 23 0 2 1;
#X connect 24 0 22 1;
#X connect 25 0 13 1;
#X connect 26 0 21 1;
