#N canvas 436 81 1376 1004 10;
#X obj 130 108 vco;
#X obj 140 711 dac~;
#X obj 60 -214 midi2cv;
#X obj 338 416 scope3;
#X text 962 -241 AVAILABLE MODULES: vco vca scope3 midi2cv;
#X obj 167 393 vca;
#X obj 679 -8 vco;
#X obj 348 -16 vco;
#X obj 472 -246 vco;
#X obj 301 -233 vco;
#X obj 820 -238 vco;
#X obj 654 -233 vco;
#X obj 981 163 vco;
#X obj 1122 -67 vco;
#X obj 956 -62 vco;
#X connect 0 3 5 0;
#X connect 5 0 1 0;
#X connect 5 0 1 1;
#X connect 5 0 3 0;
#X connect 6 2 0 0;
#X connect 7 2 0 0;
#X connect 8 2 7 0;
#X connect 9 2 7 0;
#X connect 10 2 6 0;
#X connect 11 2 6 0;
#X connect 12 2 0 0;
#X connect 13 2 12 0;
#X connect 14 2 12 0;
