#N canvas 391 22 1004 792 10;
#X obj 1086 1725 scope;
#X obj 822 465 comparator;
#X obj 688 363 lpg;
#X obj 1664 1439 grains;
#X obj 283 305 delayy;
#X obj 699 -112 slope;
#X obj 813 330 gate2trigger;
#X obj 615 123 midi2cv;
#X obj 916 -232 fold;
#X obj 1033 -134 mixer;
#X obj 1042 939 dual_vco;
#X obj 397 1692 cubic-soft-clip;
#X obj 1130 603 learn_midi;
#X obj 23 89 mixer;
#X obj 1335 313 karplus;
#X obj 153 -206 vca;
#X obj 131 629 vco;
#X obj 222 1791 fold;
#X obj -154 -232 sampler1;
#X obj 745 989 clock;
#X obj 691 273 manual_gate;
#X obj 234 -234 wavetable;
#X obj 1386 266 midirealtimein;
#X obj 524 2137 dac~;
#X obj 589 1855 mixer;
#X obj 1725 698 slope;
#X obj 1919 727 gate_seq;
#X obj 185 907 vca;
#X obj 941 1368 slope;
#X obj 2456 800 vco;
#X obj 272 634 vco;
#X obj 409 634 vco;
#X obj 546 633 vco;
#X obj 682 635 vco;
#X obj 819 635 vco;
#X obj 955 627 vco;
#X obj 775 1182 divider;
#X obj 47 1338 beatmangle;
#X obj 448 979 vco;
#X obj 506 1242 rancv;
#X obj 619 1266 rancv;
#X obj 794 1676 rancv;
#X obj 482 1365 cv2midi;
#X floatatom 482 1393 5 0 0 0 - - -, f 5;
#X obj 289 1204;
#X obj 482 1426 int;
#X floatatom 483 1451 5 0 0 0 - - -, f 5;
#X obj 490 1519 route \$1 \$2, f 13;
#X floatatom 470 1574 5 0 0 0 - - -, f 5;
#X floatatom 526 1571 5 0 0 0 - - -, f 5;
#X floatatom 573 1571 5 0 0 0 - - -, f 5;
#X msg 416 1512 0;
#X obj 433 1560 bng 15 250 50 0 empty empty empty 17 7 0 10 -262144
-1 -1;
#X obj 513 1604 bng 15 250 50 0 empty empty empty 17 7 0 10 -262144
-1 -1;
#X obj 563 1409 list-sieve;
#X connect 11 0 24 0;
#X connect 16 1 27 0;
#X connect 24 0 23 0;
#X connect 24 0 23 1;
#X connect 37 0 11 0;
#X connect 38 1 42 0;
#X connect 38 2 36 0;
#X connect 42 0 43 0;
#X connect 43 0 45 0;
#X connect 45 0 46 0;
#X connect 46 0 47 0;
#X connect 47 0 48 0;
#X connect 47 0 52 0;
#X connect 47 1 49 0;
#X connect 47 1 53 0;
#X connect 47 2 50 0;
#X connect 51 0 47 0;
