#N canvas 217 22 1223 792 10;
#X obj 48 251 a_vco;
#X obj 356 690 dac~;
#X obj 48 -28 vca;
#X obj 321 -124 rancv;
#X obj 323 -460 clock;
#X obj 48 139 quantizer;
#X obj 16 -428 vco;
#X obj 131 -28 vca;
#X obj 145 -488 vco;
#X obj 228 -28 vca;
#X obj 328 -28 vca;
#X obj 444 -124 rancv;
#X obj 1085 -449 clock;
#X obj 347 283 vca;
#X obj 353 471 mixer;
#X obj 775 -375 divider;
#X obj 774 -62 random_switch;
#X obj 563 -365 probability;
#X obj 1084 -282 s~ clock;
#X obj 459 -150 r~ clock;
#X obj 982 29 r~ clock;
#X obj 561 -414 r~ clock;
#X obj 529 176 slope;
#X obj 202 -116 rancv;
#X obj 213 -145 r~ clock;
#X obj 197 -268 random_gates;
#X obj 392 -460 clock;
#X obj 461 -459 clock;
#X obj 336 -255 seq_switch;
#X obj 745 88 random_switch;
#X msg 554 43 \; pd dsp 0;
#X msg 551 101 \; pd dsp 1;
#X connect 0 0 13 0;
#X connect 2 0 5 0;
#X connect 3 0 9 0;
#X connect 4 0 28 2;
#X connect 4 0 28 5;
#X connect 5 0 0 0;
#X connect 6 0 2 0;
#X connect 7 0 5 0;
#X connect 8 3 7 0;
#X connect 9 0 5 0;
#X connect 10 0 5 0;
#X connect 11 0 10 0;
#X connect 12 0 18 0;
#X connect 13 0 14 0;
#X connect 14 0 1 0;
#X connect 14 0 1 1;
#X connect 15 0 16 7;
#X connect 15 0 16 2;
#X connect 15 1 16 3;
#X connect 15 1 16 5;
#X connect 15 1 16 8;
#X connect 15 2 16 4;
#X connect 15 2 16 6;
#X connect 15 3 16 9;
#X connect 16 0 29 2;
#X connect 16 0 29 3;
#X connect 16 0 29 4;
#X connect 16 0 29 5;
#X connect 17 0 16 0;
#X connect 17 1 29 0;
#X connect 19 0 11 0;
#X connect 20 0 29 6;
#X connect 21 0 17 0;
#X connect 21 0 15 0;
#X connect 22 0 13 1;
#X connect 23 0 7 1;
#X connect 24 0 23 0;
#X connect 25 0 7 1;
#X connect 25 0 28 0;
#X connect 26 0 28 3;
#X connect 27 0 28 4;
#X connect 28 0 3 0;
#X connect 29 0 22 0;
