#N canvas 0 22 1912 1027 10;
#X obj 942 319 scope;
#X obj 822 465 comparator;
#X obj 688 363 lpg;
#X obj 1079 1431 grains;
#X obj 283 305 delayy;
#X obj 699 -112 slope;
#X obj 813 330 gate2trigger;
#X obj 615 123 midi2cv;
#X obj 916 -232 fold;
#X obj 1033 -134 mixer;
#X obj 270 88 dual_vco;
#X obj -139 308 cubic-soft-clip;
#X obj 1031 -230 seq_switch;
#X obj 1081 586 learn_midi;
#X obj 23 89 mixer;
#X obj 1293 619 random_switch;
#X obj 1335 313 karplus;
#X obj 153 -206 vca;
#X obj 647 964 vco;
#X obj 1053 1206 fold;
#X obj 186 687 divider;
#X obj 1311 1057 seq2;
#X obj -154 -232 sampler1;
#X obj 689 539 clock;
#X obj 896 -38 flipflop;
#X obj 691 273 manual_gate;
#X obj 234 -234 wavetable;
#X obj 97 819 gate_seq;
#X obj 1386 266 midirealtimein;
#X obj 675 1693 dac~;
#X obj 681 1486 mixer;
#X obj 444 1062 slope;
#X obj 636 716 slope;
#X obj 635 1213 vca;
#X obj 830 745 gate_seq;
#X obj 841 1037 vco;
#X obj 748 1300 vca;
#X obj 1002 994 slope;
#X obj 1367 818 vco;
#X connect 3 0 30 4;
#X connect 18 0 33 0;
#X connect 19 0 36 0;
#X connect 20 3 27 1;
#X connect 23 0 20 0;
#X connect 23 0 34 0;
#X connect 23 0 27 0;
#X connect 27 0 31 0;
#X connect 27 0 32 0;
#X connect 30 0 29 0;
#X connect 30 0 29 1;
#X connect 31 0 33 1;
#X connect 32 0 18 0;
#X connect 33 0 30 0;
#X connect 34 0 37 0;
#X connect 35 0 19 0;
#X connect 36 0 3 0;
#X connect 36 0 30 2;
#X connect 37 0 36 1;
#X connect 38 0 35 0;
