#N canvas 4 4 1912 1027 10;
#X obj 642 1326 dac~;
#X obj 786 1089 scope;
#X obj 1426 1188 comparator;
#X obj 1541 1185 lpg;
#X obj 1785 56 grains;
#X obj 1779 485 delayy;
#X obj 766 418 slope;
#X obj 1081 965 gate2trigger;
#X obj 1008 732 midi2cv;
#X obj 796 32 fold;
#X obj 934 150 mixer;
#X obj 974 517 dual_vco;
#X obj 1610 -6 cubic-soft-clip;
#X obj 589 -173 seq_switch;
#X obj 1656 1198 learn_midi;
#X obj 547 784 mixer;
#X obj 171 1184 random_switch;
#X obj 286 615 vco;
#X obj 1758 913 karplus;
#X obj 487 -248 vca;
#X obj 1280 1007 vca;
#X obj 54 481 vca;
#X obj 396 -247 vca;
#X obj 1336 782 seq2;
#X obj 152 250 vco;
#X obj 406 975 fold;
#X obj 316 513 seq_switch;
#X obj 488 336 divider;
#X obj 47 446 r~ \$0-siny;
#X obj 1395 299 seq2;
#X obj -168 97 sampler1;
#X obj 74 924 clock;
#X obj 1077 378 flipflop;
#X obj 644 1083 manual_gate;
#X obj 306 -31 wavetable;
#X floatatom 723 -91 5 0 127 0 - - -, f 5;
#X obj 174 -118 vca;
#X obj 174 -151 sig~ -1;
#X obj 196 986 sig~ 1;
#X connect 8 3 23 0;
#X connect 8 3 6 0;
#X connect 8 3 27 0;
#X connect 15 0 33 0;
#X connect 17 0 15 0;
#X connect 23 0 11 0;
#X connect 24 0 26 2;
#X connect 24 1 26 3;
#X connect 24 2 26 4;
#X connect 24 3 26 5;
#X connect 26 0 17 0;
#X connect 27 1 26 0;
#X connect 28 0 21 0;
#X connect 33 0 0 0;
#X connect 33 0 0 1;
#X connect 35 0 34 1;
#X connect 37 0 36 0;
