#N canvas 509 123 1391 854 10;
#X obj 8 12 vco;
#X obj 33 757 dac~;
#X obj 196 580 scope3;
#X obj 760 35 comparator;
#X obj 534 19 midi2cv;
#X obj 210 19 vco;
#X obj 841 742 tgl 30 0 empty empty empty 17 7 0 10 -262144 -1 -1 1
1;
#X msg 841 779 \; pd dsp \$1;
#X text 838 723 POWER;
#X obj 24 500 vca;
#X obj 32 272 vca;
#X obj 762 161 cubic-soft-clip;
#X obj 283 347 lpg1;
#X obj 441 350 lpg1;
#X connect 4 0 5 0;
#X connect 4 1 13 1;
#X connect 4 1 12 1;
#X connect 5 0 12 0;
#X connect 5 2 13 0;
#X connect 6 0 7 0;
#X connect 9 0 1 0;
#X connect 9 0 1 1;
#X connect 9 0 2 0;
#X connect 10 0 9 0;
#X connect 12 0 10 0;
#X connect 13 0 10 0;
