#N canvas 317 58 1049 1015 10;
#X obj 178 69 dac~, f 5;
#X obj -126 -651 midi2cv;
#X obj 51 -171 vca;
#X text 678 -542 AVAILABLE MODULES: midi2cv vco oscilloscope vca;
#X obj -114 -425 vco;
#X connect 1 0 4 0;
#X connect 2 0 0 0;
#X connect 2 0 0 1;
#X connect 4 0 2 0;
#X coords 0 -1 1 1 200 300 2 100 100;
