#N canvas 282 32 1634 996 10;
#X obj 686 1492 dac~;
#X obj 785 1351 scope;
#X obj 674 -377 comparator;
#X obj 807 -384 lpg;
#X obj 1243 721 grains;
#X obj 943 927 delayy;
#X obj 893 316 slope;
#X obj 165 245 gate2trigger;
#X obj 560 -374 midi2cv;
#X obj 1541 247 fold;
#X obj 1629 719 mixer;
#X obj 432 576 dual_vco;
#X obj 1652 949 cubic-soft-clip;
#X obj 573 305 seq_switch;
#X obj 844 -164 vca;
#X obj 927 -367 learn_midi;
#X obj 683 1132 mixer;
#X obj 668 806 vca;
#X obj 1079 299 random_switch;
#X obj 610 20 vco;
#X obj 449 14 vco;
#X obj 119 -413 seq2;
#X obj 1059 486 seq2;
#X obj 167 755 vca;
#X obj 907 30 vco;
#X obj 693 1365 manual_gate;
#X obj 758 23 vco;
#X obj 378 349 s~ clock;
#X obj 918 282 r~ clock;
#X obj 602 412 vca;
#X obj 295 9 vco;
#X obj 761 489 *~ 2;
#X obj 159 -101 vca;
#X obj 319 -126 block~ 64;
#X connect 6 0 31 0;
#X connect 13 0 29 0;
#X connect 16 0 1 0;
#X connect 16 0 25 0;
#X connect 17 0 16 0;
#X connect 17 0 5 0;
#X connect 19 0 13 3;
#X connect 20 3 13 2;
#X connect 24 0 13 5;
#X connect 25 0 0 0;
#X connect 25 0 0 1;
#X connect 26 1 13 4;
#X connect 28 0 6 0;
#X connect 29 0 11 0;
#X connect 29 0 11 2;
#X connect 30 0 32 0;
#X connect 30 0 17 0;
#X connect 31 0 29 1;
#X connect 32 0 30 0;
