#N canvas 139 122 1341 897 10;
#X obj 100 110 cnv 15 400 180 empty empty empty 20 12 0 14 -241339
-66577 0;
#X obj 443 -44 float;
#X obj 191 119 hradio 19 1 0 16 empty empty empty 0 -8 0 10 -104026
-262144 -258113 13;
#X floatatom 439 16 5 0 0 0 - - -, f 5;
#X obj 439 -14 mod 16;
#X obj 489 -44 +;
#X obj 124 117 bng 30 50 50 0 empty empty empty 17 7 0 10 -191407 -258113
-1;
#X obj 474 -117 loadbang;
#X obj 40 -186 inlet~ clock;
#X text 103 278 cv;
#X text 102 100 clock;
#X msg 231 -143 0;
#X obj 229 -202 inlet~ reset;
#X obj 230 -170 threshold~ 0.1 2 0 2;
#X obj 747 340 snapshot~;
#X floatatom 750 367 5 0 0 0 - - -, f 5;
#X obj 757 293 tgl 15 0 empty empty empty 17 7 0 10 -262144 -1 -1 1
1;
#X obj 756 270 loadbang;
#X obj 747 315 metro 1;
#X floatatom 151 253 5 1 16 0 - - -, f 5;
#X text 215 45 steps;
#X text 696 200 listen to incoming signal and change step accordingly
;
#X obj 160 -34 metro 300;
#X obj 165 -99 tgl 15 0 empty empty empty 17 7 0 10 -262144 -1 -1 0
1;
#X obj 148 22 bng 15 250 50 0 empty empty empty 17 7 0 10 -262144 -1
-1;
#X obj 47 -129 threshold~ 0.1 1 1 1;
#X text 102 179 ### SEQUENCER;
#X text 755 408 take input -1 to 1 and set it to the total number of
steps;
#X floatatom 722 457 5 0 0 0 - - -, f 5;
#X obj 722 489 int;
#X msg 189 44 16;
#X obj 193 18 loadbang;
#X text 105 251 steps:;
#X text -189 -206 clock input: extracts a trigger and moves the seq
1 tick;
#X text 311 -206 HIGH sets the seq to 0;
#X text 541 -78 direction;
#X obj 503 -324 inlet~ direction;
#X text 479 100 cv;
#X text 205 99 reset;
#X text 346 99 dir;
#X floatatom 718 514 5 0 0 0 - - -, f 5;
#X obj 740 427 m_scale -1 1 0 15;
#X obj 13 11 spigot;
#X obj 39 -15 tgl 15 0 empty empty empty 17 7 0 10 -262144 -1 -1 1
1;
#X obj 158 197 tgl 15 0 empty empty empty 17 7 0 10 -262144 -1 -1 0
1;
#X text 551 20 clock mode;
#X obj 90 21 spigot;
#X text 661 16 cv mode;
#X obj 62 -16 bng 15 250 50 0 empty empty empty 17 7 0 10 -262144 -1
-1;
#X text 104 197 cv mode;
#X obj 45 416 sig~;
#X msg 92 385 0;
#X obj 52 -67 loadbang;
#X obj 44 289 bng 15 50 10 0 empty empty empty 17 7 0 10 -262144 -1
-1;
#X obj 679 539 change;
#X msg 28 355 10, f 1;
#X obj 62 355 del 10;
#X obj 545 -226 snapshot~;
#X floatatom 546 -201 5 0 0 0 - - -, f 5;
#X obj 555 -273 tgl 15 0 empty empty empty 17 7 0 10 -262144 -1 -1
1 1;
#X obj 554 -296 loadbang;
#X obj 545 -251 metro 1;
#X text 617 -244 listen to the incoming signal and change direction
accordingly (>0 = forward <0 = backward);
#X obj 554 -171 > 0;
#X floatatom 555 -147 5 0 0 0 - - -, f 5;
#X obj 546 -120 select 1;
#X obj 712 218 inlet~ cv;
#X text 775 219 -1 CV = step 0 1 CV = step 15 0 CV = step 7;
#X obj 33 461 outlet~ trig;
#X obj -97 771 outlet~ cv;
#N canvas 540 417 629 365 seqcore 0;
#X obj 104 103 cnv 15 305 120 empty empty empty 20 12 0 14 -262144
-66577 0;
#N canvas 0 50 871 351 (subpatch) 0;
#X array \$1-seq 16 float 2;
#X coords 0 -1 16 1 305 120 2 0 0;
#X restore 103 102 graph;
#X obj 12 180 inlet step;
#X obj 15 377 outlet~ cv;
#X floatatom 15 230 5 0 0 0 - - -, f 5;
#X obj 18 340 sig~;
#X obj 17 304 clip -1 1;
#X obj 19 269 tabread \$1-seq;
#X connect 2 0 4 0;
#X connect 4 0 7 0;
#X connect 5 0 3 0;
#X connect 6 0 5 0;
#X connect 7 0 6 0;
#X coords 0 -1 1 1 310 125 2 100 100;
#X restore 188 151 pd seqcore;
#X msg 478 -78 -1;
#X msg 513 -78 1;
#X connect 1 0 4 0;
#X connect 1 0 5 0;
#X connect 2 0 53 0;
#X connect 2 0 70 0;
#X connect 3 0 2 0;
#X connect 4 0 3 0;
#X connect 5 0 1 1;
#X connect 6 0 1 0;
#X connect 7 0 71 0;
#X connect 8 0 25 0;
#X connect 11 0 1 0;
#X connect 12 0 13 0;
#X connect 13 0 11 0;
#X connect 14 0 15 0;
#X connect 15 0 41 0;
#X connect 16 0 18 0;
#X connect 17 0 16 0;
#X connect 18 0 14 0;
#X connect 19 0 4 1;
#X connect 19 0 41 4;
#X connect 22 0 24 0;
#X connect 23 0 22 0;
#X connect 24 0 6 0;
#X connect 25 0 42 0;
#X connect 28 0 29 0;
#X connect 29 0 40 0;
#X connect 30 0 19 0;
#X connect 31 0 30 0;
#X connect 36 0 57 0;
#X connect 40 0 54 0;
#X connect 41 0 28 0;
#X connect 42 0 6 0;
#X connect 43 0 42 1;
#X connect 44 0 46 1;
#X connect 44 0 48 0;
#X connect 46 0 3 0;
#X connect 48 0 43 0;
#X connect 50 0 68 0;
#X connect 51 0 50 0;
#X connect 52 0 43 0;
#X connect 53 0 55 0;
#X connect 53 0 56 0;
#X connect 54 0 46 0;
#X connect 55 0 50 0;
#X connect 56 0 51 0;
#X connect 57 0 58 0;
#X connect 58 0 63 0;
#X connect 59 0 61 0;
#X connect 60 0 59 0;
#X connect 61 0 57 0;
#X connect 63 0 64 0;
#X connect 64 0 65 0;
#X connect 65 0 71 0;
#X connect 65 1 72 0;
#X connect 66 0 14 0;
#X connect 70 0 69 0;
#X connect 71 0 5 1;
#X connect 72 0 5 1;
#X coords 0 -1 1 1 400 200 2 100 100;
