#N canvas 2 22 1438 815 10;
#X obj 101 114 cnv 15 400 180 empty empty empty 20 12 0 14 -241339
-66577 0;
#X obj 532 -96 float;
#X obj 191 141 hradio 19 1 0 16 empty empty empty 0 -8 0 10 -104026
-262144 -258113 13;
#X floatatom 536 32 5 0 0 0 - - -;
#X obj 537 3 mod 16;
#X obj 592 -97 +;
#X msg 582 -142 1;
#X msg 615 -142 -1;
#X obj 109 117 bng 15 50 50 0 empty empty empty 17 7 0 10 -191407 -258113
-1;
#X obj 54 -166 threshold~ 0.1 2 0 2;
#X obj 585 -202 loadbang;
#X obj 54 -201 inlet~ clock;
#X text 234 123 ### SEQUENCER ###;
#X obj 910 576 outlet~ cv;
#X text 103 276 cv;
#X text 102 100 clock;
#X msg 231 -143 0;
#X obj 229 -202 inlet~ reset;
#X obj 230 -170 threshold~ 0.1 2 0 2;
#X obj 754 -203 inlet~ step;
#X obj 786 -73 snapshot~;
#X floatatom 789 -46 5 0 0 0 - - -;
#X obj 796 -120 tgl 15 0 empty empty empty 17 7 0 10 -262144 -1 -1
1 1;
#X obj 795 -143 loadbang;
#X obj 788 -15 spigot;
#X obj 786 -98 metro 1;
#X floatatom 597 -8 5 0 0 0 - - -;
#X text 596 -28 steps;
#X floatatom 1123 232 5 0 0 0 - - -;
#X obj 1012 572 outlet~ gate;
#X obj 98 436 tgl 15 0 empty empty empty 17 7 0 10 -262144 -1 -1 1
1;
#N canvas 612 177 683 435 step 0;
#X obj 245 165 *~;
#X obj 173 130 sig~ 1;
#X obj 316 229 *~;
#X msg 239 132 1;
#X msg 268 131 0;
#X obj 221 31 inlet in;
#X obj 96 338 outlet~ cv;
#X obj 314 328 outlet~ gate;
#X obj 387 33 inlet on;
#X obj 240 87 select;
#X obj 301 30 inlet step;
#X obj 52 39 inlet level;
#X obj 131 263 *~;
#X connect 0 0 2 0;
#X connect 0 0 12 1;
#X connect 1 0 0 0;
#X connect 2 0 7 0;
#X connect 3 0 0 1;
#X connect 4 0 0 1;
#X connect 5 0 9 0;
#X connect 8 0 2 1;
#X connect 9 0 3 0;
#X connect 9 1 4 0;
#X connect 10 0 9 1;
#X connect 11 0 12 0;
#X connect 12 0 6 0;
#X restore 51 468 pd step;
#X obj 61 405 loadbang;
#X msg 61 434 0;
#X text 773 -180 listen to incoming signal and change step accordingly
;
#X obj 192 166 vsl 15 115 -1 1 0 0 empty empty empty 0 -9 0 10 -262144
-1 -1 300 1;
#X obj 232 437 tgl 15 0 empty empty empty 17 7 0 10 -262144 -1 -1 1
1;
#N canvas 612 177 683 435 step 0;
#X obj 245 165 *~;
#X obj 173 130 sig~ 1;
#X obj 316 229 *~;
#X msg 239 132 1;
#X msg 268 131 0;
#X obj 221 31 inlet in;
#X obj 96 338 outlet~ cv;
#X obj 314 328 outlet~ gate;
#X obj 387 33 inlet on;
#X obj 240 87 select;
#X obj 301 30 inlet step;
#X obj 52 39 inlet level;
#X obj 131 263 *~;
#X connect 0 0 2 0;
#X connect 0 0 12 1;
#X connect 1 0 0 0;
#X connect 2 0 7 0;
#X connect 3 0 0 1;
#X connect 4 0 0 1;
#X connect 5 0 9 0;
#X connect 8 0 2 1;
#X connect 9 0 3 0;
#X connect 9 1 4 0;
#X connect 10 0 9 1;
#X connect 11 0 12 0;
#X connect 12 0 6 0;
#X restore 185 469 pd step;
#X obj 195 406 loadbang;
#X obj 211 166 vsl 15 115 -1 1 0 0 empty empty empty 0 -9 0 10 -262144
-1 -1 900 1;
#X msg 195 435 1;
#X obj 352 442 tgl 15 0 empty empty empty 17 7 0 10 -262144 -1 -1 1
1;
#N canvas 612 177 683 435 step 0;
#X obj 245 165 *~;
#X obj 173 130 sig~ 1;
#X obj 316 229 *~;
#X msg 239 132 1;
#X msg 268 131 0;
#X obj 221 31 inlet in;
#X obj 96 338 outlet~ cv;
#X obj 314 328 outlet~ gate;
#X obj 387 33 inlet on;
#X obj 240 87 select;
#X obj 301 30 inlet step;
#X obj 52 39 inlet level;
#X obj 131 263 *~;
#X connect 0 0 2 0;
#X connect 0 0 12 1;
#X connect 1 0 0 0;
#X connect 2 0 7 0;
#X connect 3 0 0 1;
#X connect 4 0 0 1;
#X connect 5 0 9 0;
#X connect 8 0 2 1;
#X connect 9 0 3 0;
#X connect 9 1 4 0;
#X connect 10 0 9 1;
#X connect 11 0 12 0;
#X connect 12 0 6 0;
#X restore 305 474 pd step;
#X obj 315 411 loadbang;
#X obj 230 167 vsl 15 115 -1 1 0 0 empty empty empty 0 -9 0 10 -262144
-1 -1 600 1;
#X msg 315 440 2;
#X obj 498 445 tgl 15 0 empty empty empty 17 7 0 10 -262144 -1 -1 1
1;
#N canvas 612 177 683 435 step 0;
#X obj 245 165 *~;
#X obj 173 130 sig~ 1;
#X obj 316 229 *~;
#X msg 239 132 1;
#X msg 268 131 0;
#X obj 221 31 inlet in;
#X obj 96 338 outlet~ cv;
#X obj 314 328 outlet~ gate;
#X obj 387 33 inlet on;
#X obj 240 87 select;
#X obj 301 30 inlet step;
#X obj 52 39 inlet level;
#X obj 131 263 *~;
#X connect 0 0 2 0;
#X connect 0 0 12 1;
#X connect 1 0 0 0;
#X connect 2 0 7 0;
#X connect 3 0 0 1;
#X connect 4 0 0 1;
#X connect 5 0 9 0;
#X connect 8 0 2 1;
#X connect 9 0 3 0;
#X connect 9 1 4 0;
#X connect 10 0 9 1;
#X connect 11 0 12 0;
#X connect 12 0 6 0;
#X restore 451 477 pd step;
#X obj 461 414 loadbang;
#X obj 250 167 vsl 15 115 -1 1 0 0 empty empty empty 0 -9 0 10 -262144
-1 -1 10400 1;
#X msg 461 443 3;
#X obj 628 446 tgl 15 0 empty empty empty 17 7 0 10 -262144 -1 -1 0
1;
#N canvas 612 177 683 435 step 0;
#X obj 245 165 *~;
#X obj 173 130 sig~ 1;
#X obj 316 229 *~;
#X msg 239 132 1;
#X msg 268 131 0;
#X obj 221 31 inlet in;
#X obj 96 338 outlet~ cv;
#X obj 314 328 outlet~ gate;
#X obj 387 33 inlet on;
#X obj 240 87 select;
#X obj 301 30 inlet step;
#X obj 52 39 inlet level;
#X obj 131 263 *~;
#X connect 0 0 2 0;
#X connect 0 0 12 1;
#X connect 1 0 0 0;
#X connect 2 0 7 0;
#X connect 3 0 0 1;
#X connect 4 0 0 1;
#X connect 5 0 9 0;
#X connect 8 0 2 1;
#X connect 9 0 3 0;
#X connect 9 1 4 0;
#X connect 10 0 9 1;
#X connect 11 0 12 0;
#X connect 12 0 6 0;
#X restore 581 478 pd step;
#X obj 591 415 loadbang;
#X obj 270 168 vsl 15 115 -1 1 0 0 empty empty empty 0 -9 0 10 -262144
-1 -1 10100 1;
#X msg 591 444 4;
#X obj 753 443 tgl 15 0 empty empty empty 17 7 0 10 -262144 -1 -1 0
1;
#N canvas 612 177 683 435 step 0;
#X obj 245 165 *~;
#X obj 173 130 sig~ 1;
#X obj 316 229 *~;
#X msg 239 132 1;
#X msg 268 131 0;
#X obj 221 31 inlet in;
#X obj 96 338 outlet~ cv;
#X obj 314 328 outlet~ gate;
#X obj 387 33 inlet on;
#X obj 240 87 select;
#X obj 301 30 inlet step;
#X obj 52 39 inlet level;
#X obj 131 263 *~;
#X connect 0 0 2 0;
#X connect 0 0 12 1;
#X connect 1 0 0 0;
#X connect 2 0 7 0;
#X connect 3 0 0 1;
#X connect 4 0 0 1;
#X connect 5 0 9 0;
#X connect 8 0 2 1;
#X connect 9 0 3 0;
#X connect 9 1 4 0;
#X connect 10 0 9 1;
#X connect 11 0 12 0;
#X connect 12 0 6 0;
#X restore 706 475 pd step;
#X obj 716 412 loadbang;
#X obj 289 168 vsl 15 115 -1 1 0 0 empty empty empty 0 -9 0 10 -262144
-1 -1 11400 1;
#X msg 716 441 5;
#X obj 872 445 tgl 15 0 empty empty empty 17 7 0 10 -262144 -1 -1 0
1;
#N canvas 612 177 683 435 step 0;
#X obj 245 165 *~;
#X obj 173 130 sig~ 1;
#X obj 316 229 *~;
#X msg 239 132 1;
#X msg 268 131 0;
#X obj 221 31 inlet in;
#X obj 96 338 outlet~ cv;
#X obj 314 328 outlet~ gate;
#X obj 387 33 inlet on;
#X obj 240 87 select;
#X obj 301 30 inlet step;
#X obj 52 39 inlet level;
#X obj 131 263 *~;
#X connect 0 0 2 0;
#X connect 0 0 12 1;
#X connect 1 0 0 0;
#X connect 2 0 7 0;
#X connect 3 0 0 1;
#X connect 4 0 0 1;
#X connect 5 0 9 0;
#X connect 8 0 2 1;
#X connect 9 0 3 0;
#X connect 9 1 4 0;
#X connect 10 0 9 1;
#X connect 11 0 12 0;
#X connect 12 0 6 0;
#X restore 825 477 pd step;
#X obj 835 414 loadbang;
#X obj 308 169 vsl 15 115 -1 1 0 0 empty empty empty 0 -9 0 10 -262144
-1 -1 4500 1;
#X msg 835 443 6;
#X obj 1003 445 tgl 15 0 empty empty empty 17 7 0 10 -262144 -1 -1
0 1;
#N canvas 612 177 683 435 step 0;
#X obj 245 165 *~;
#X obj 173 130 sig~ 1;
#X obj 316 229 *~;
#X msg 239 132 1;
#X msg 268 131 0;
#X obj 221 31 inlet in;
#X obj 96 338 outlet~ cv;
#X obj 314 328 outlet~ gate;
#X obj 387 33 inlet on;
#X obj 240 87 select;
#X obj 301 30 inlet step;
#X obj 52 39 inlet level;
#X obj 131 263 *~;
#X connect 0 0 2 0;
#X connect 0 0 12 1;
#X connect 1 0 0 0;
#X connect 2 0 7 0;
#X connect 3 0 0 1;
#X connect 4 0 0 1;
#X connect 5 0 9 0;
#X connect 8 0 2 1;
#X connect 9 0 3 0;
#X connect 9 1 4 0;
#X connect 10 0 9 1;
#X connect 11 0 12 0;
#X connect 12 0 6 0;
#X restore 956 477 pd step;
#X obj 966 414 loadbang;
#X obj 327 168 vsl 15 115 -1 1 0 0 empty empty empty 0 -9 0 10 -262144
-1 -1 7200 1;
#X msg 966 443 7;
#X obj 1128 443 tgl 15 0 empty empty empty 17 7 0 10 -262144 -1 -1
0 1;
#N canvas 612 177 683 435 step 0;
#X obj 245 165 *~;
#X obj 173 130 sig~ 1;
#X obj 316 229 *~;
#X msg 239 132 1;
#X msg 268 131 0;
#X obj 221 31 inlet in;
#X obj 96 338 outlet~ cv;
#X obj 314 328 outlet~ gate;
#X obj 387 33 inlet on;
#X obj 240 87 select;
#X obj 301 30 inlet step;
#X obj 52 39 inlet level;
#X obj 131 263 *~;
#X connect 0 0 2 0;
#X connect 0 0 12 1;
#X connect 1 0 0 0;
#X connect 2 0 7 0;
#X connect 3 0 0 1;
#X connect 4 0 0 1;
#X connect 5 0 9 0;
#X connect 8 0 2 1;
#X connect 9 0 3 0;
#X connect 9 1 4 0;
#X connect 10 0 9 1;
#X connect 11 0 12 0;
#X connect 12 0 6 0;
#X restore 1081 475 pd step;
#X obj 1091 412 loadbang;
#X obj 346 168 vsl 15 115 -1 1 0 0 empty empty empty 0 -9 0 10 -262144
-1 -1 4200 1;
#X msg 1091 441 8;
#X obj 1250 445 tgl 15 0 empty empty empty 17 7 0 10 -262144 -1 -1
0 1;
#N canvas 612 177 683 435 step 0;
#X obj 245 165 *~;
#X obj 173 130 sig~ 1;
#X obj 316 229 *~;
#X msg 239 132 1;
#X msg 268 131 0;
#X obj 221 31 inlet in;
#X obj 96 338 outlet~ cv;
#X obj 314 328 outlet~ gate;
#X obj 387 33 inlet on;
#X obj 240 87 select;
#X obj 301 30 inlet step;
#X obj 52 39 inlet level;
#X obj 131 263 *~;
#X connect 0 0 2 0;
#X connect 0 0 12 1;
#X connect 1 0 0 0;
#X connect 2 0 7 0;
#X connect 3 0 0 1;
#X connect 4 0 0 1;
#X connect 5 0 9 0;
#X connect 8 0 2 1;
#X connect 9 0 3 0;
#X connect 9 1 4 0;
#X connect 10 0 9 1;
#X connect 11 0 12 0;
#X connect 12 0 6 0;
#X restore 1203 477 pd step;
#X obj 1213 414 loadbang;
#X obj 364 168 vsl 15 115 -1 1 0 0 empty empty empty 0 -9 0 10 -262144
-1 -1 6700 1;
#X msg 1213 443 9;
#X obj 1374 443 tgl 15 0 empty empty empty 17 7 0 10 -262144 -1 -1
0 1;
#N canvas 612 177 683 435 step 0;
#X obj 245 165 *~;
#X obj 173 130 sig~ 1;
#X obj 316 229 *~;
#X msg 239 132 1;
#X msg 268 131 0;
#X obj 221 31 inlet in;
#X obj 96 338 outlet~ cv;
#X obj 314 328 outlet~ gate;
#X obj 387 33 inlet on;
#X obj 240 87 select;
#X obj 301 30 inlet step;
#X obj 52 39 inlet level;
#X obj 131 263 *~;
#X connect 0 0 2 0;
#X connect 0 0 12 1;
#X connect 1 0 0 0;
#X connect 2 0 7 0;
#X connect 3 0 0 1;
#X connect 4 0 0 1;
#X connect 5 0 9 0;
#X connect 8 0 2 1;
#X connect 9 0 3 0;
#X connect 9 1 4 0;
#X connect 10 0 9 1;
#X connect 11 0 12 0;
#X connect 12 0 6 0;
#X restore 1327 475 pd step;
#X obj 1337 412 loadbang;
#X obj 383 169 vsl 15 115 -1 1 0 0 empty empty empty 0 -9 0 10 -262144
-1 -1 4900 1;
#X msg 1337 441 10;
#X obj 1489 450 tgl 15 0 empty empty empty 17 7 0 10 -262144 -1 -1
0 1;
#N canvas 612 177 683 435 step 0;
#X obj 245 165 *~;
#X obj 173 130 sig~ 1;
#X obj 316 229 *~;
#X msg 239 132 1;
#X msg 268 131 0;
#X obj 221 31 inlet in;
#X obj 96 338 outlet~ cv;
#X obj 314 328 outlet~ gate;
#X obj 387 33 inlet on;
#X obj 240 87 select;
#X obj 301 30 inlet step;
#X obj 52 39 inlet level;
#X obj 131 263 *~;
#X connect 0 0 2 0;
#X connect 0 0 12 1;
#X connect 1 0 0 0;
#X connect 2 0 7 0;
#X connect 3 0 0 1;
#X connect 4 0 0 1;
#X connect 5 0 9 0;
#X connect 8 0 2 1;
#X connect 9 0 3 0;
#X connect 9 1 4 0;
#X connect 10 0 9 1;
#X connect 11 0 12 0;
#X connect 12 0 6 0;
#X restore 1442 482 pd step;
#X obj 1452 419 loadbang;
#X obj 402 169 vsl 15 115 -1 1 0 0 empty empty empty 0 -9 0 10 -262144
-1 -1 3700 1;
#X msg 1452 448 11;
#X obj 1619 450 tgl 15 0 empty empty empty 17 7 0 10 -262144 -1 -1
0 1;
#N canvas 612 177 683 435 step 0;
#X obj 245 165 *~;
#X obj 173 130 sig~ 1;
#X obj 316 229 *~;
#X msg 239 132 1;
#X msg 268 131 0;
#X obj 221 31 inlet in;
#X obj 96 338 outlet~ cv;
#X obj 314 328 outlet~ gate;
#X obj 387 33 inlet on;
#X obj 240 87 select;
#X obj 301 30 inlet step;
#X obj 52 39 inlet level;
#X obj 131 263 *~;
#X connect 0 0 2 0;
#X connect 0 0 12 1;
#X connect 1 0 0 0;
#X connect 2 0 7 0;
#X connect 3 0 0 1;
#X connect 4 0 0 1;
#X connect 5 0 9 0;
#X connect 8 0 2 1;
#X connect 9 0 3 0;
#X connect 9 1 4 0;
#X connect 10 0 9 1;
#X connect 11 0 12 0;
#X connect 12 0 6 0;
#X restore 1572 482 pd step;
#X obj 1582 419 loadbang;
#X obj 422 170 vsl 15 115 -1 1 0 0 empty empty empty 0 -9 0 10 -262144
-1 -1 1400 1;
#X msg 1582 448 12;
#X obj 1742 450 tgl 15 0 empty empty empty 17 7 0 10 -262144 -1 -1
0 1;
#N canvas 612 177 683 435 step 0;
#X obj 245 165 *~;
#X obj 173 130 sig~ 1;
#X obj 316 229 *~;
#X msg 239 132 1;
#X msg 268 131 0;
#X obj 221 31 inlet in;
#X obj 96 338 outlet~ cv;
#X obj 314 328 outlet~ gate;
#X obj 387 33 inlet on;
#X obj 240 87 select;
#X obj 301 30 inlet step;
#X obj 52 39 inlet level;
#X obj 131 263 *~;
#X connect 0 0 2 0;
#X connect 0 0 12 1;
#X connect 1 0 0 0;
#X connect 2 0 7 0;
#X connect 3 0 0 1;
#X connect 4 0 0 1;
#X connect 5 0 9 0;
#X connect 8 0 2 1;
#X connect 9 0 3 0;
#X connect 9 1 4 0;
#X connect 10 0 9 1;
#X connect 11 0 12 0;
#X connect 12 0 6 0;
#X restore 1695 482 pd step;
#X obj 1705 419 loadbang;
#X obj 1659 353 vsl 15 115 -1 1 0 0 empty empty empty 0 -9 0 10 -262144
-1 -1 11400 1;
#X msg 1705 448 13;
#X obj 1864 455 tgl 15 0 empty empty empty 17 7 0 10 -262144 -1 -1
0 1;
#N canvas 612 177 683 435 step 0;
#X obj 245 165 *~;
#X obj 173 130 sig~ 1;
#X obj 316 229 *~;
#X msg 239 132 1;
#X msg 268 131 0;
#X obj 221 31 inlet in;
#X obj 96 338 outlet~ cv;
#X obj 314 328 outlet~ gate;
#X obj 387 33 inlet on;
#X obj 240 87 select;
#X obj 301 30 inlet step;
#X obj 52 39 inlet level;
#X obj 131 263 *~;
#X connect 0 0 2 0;
#X connect 0 0 12 1;
#X connect 1 0 0 0;
#X connect 2 0 7 0;
#X connect 3 0 0 1;
#X connect 4 0 0 1;
#X connect 5 0 9 0;
#X connect 8 0 2 1;
#X connect 9 0 3 0;
#X connect 9 1 4 0;
#X connect 10 0 9 1;
#X connect 11 0 12 0;
#X connect 12 0 6 0;
#X restore 1824 487 pd step;
#X obj 1827 424 loadbang;
#X obj 1781 358 vsl 15 115 -1 1 0 0 empty empty empty 0 -9 0 10 -262144
-1 -1 9000 1;
#X msg 1827 453 14;
#X obj 1987 457 tgl 15 0 empty empty empty 17 7 0 10 -262144 -1 -1
0 1;
#N canvas 612 177 683 435 step 0;
#X obj 245 165 *~;
#X obj 173 130 sig~ 1;
#X obj 316 229 *~;
#X msg 239 132 1;
#X msg 268 131 0;
#X obj 221 31 inlet in;
#X obj 96 338 outlet~ cv;
#X obj 314 328 outlet~ gate;
#X obj 387 33 inlet on;
#X obj 240 87 select;
#X obj 301 30 inlet step;
#X obj 52 39 inlet level;
#X obj 131 263 *~;
#X connect 0 0 2 0;
#X connect 0 0 12 1;
#X connect 1 0 0 0;
#X connect 2 0 7 0;
#X connect 3 0 0 1;
#X connect 4 0 0 1;
#X connect 5 0 9 0;
#X connect 8 0 2 1;
#X connect 9 0 3 0;
#X connect 9 1 4 0;
#X connect 10 0 9 1;
#X connect 11 0 12 0;
#X connect 12 0 6 0;
#X restore 1947 489 pd step;
#X obj 1950 426 loadbang;
#X obj 1904 360 vsl 15 115 -1 1 0 0 empty empty empty 0 -9 0 10 -262144
-1 -1 6000 1;
#X msg 1950 455 15;
#X connect 1 0 4 0;
#X connect 1 0 5 0;
#X connect 2 0 28 0;
#X connect 3 0 2 0;
#X connect 4 0 3 0;
#X connect 5 0 1 1;
#X connect 6 0 5 1;
#X connect 7 0 5 1;
#X connect 8 0 1 0;
#X connect 9 0 8 0;
#X connect 10 0 6 0;
#X connect 11 0 9 0;
#X connect 16 0 1 0;
#X connect 17 0 18 0;
#X connect 18 0 16 0;
#X connect 19 0 20 0;
#X connect 20 0 21 0;
#X connect 21 0 24 1;
#X connect 21 0 24 0;
#X connect 22 0 25 0;
#X connect 23 0 22 0;
#X connect 25 0 20 0;
#X connect 26 0 4 1;
#X connect 28 0 31 1;
#X connect 28 0 37 1;
#X connect 28 0 42 1;
#X connect 28 0 47 1;
#X connect 28 0 52 1;
#X connect 28 0 57 1;
#X connect 28 0 62 1;
#X connect 28 0 67 1;
#X connect 28 0 72 1;
#X connect 28 0 82 1;
#X connect 28 0 92 1;
#X connect 28 0 97 1;
#X connect 28 0 102 1;
#X connect 28 0 107 1;
#X connect 30 0 31 3;
#X connect 31 0 13 0;
#X connect 31 1 29 0;
#X connect 32 0 33 0;
#X connect 33 0 31 2;
#X connect 35 0 31 0;
#X connect 36 0 37 3;
#X connect 37 0 13 0;
#X connect 37 1 29 0;
#X connect 38 0 40 0;
#X connect 39 0 37 0;
#X connect 40 0 37 2;
#X connect 41 0 42 3;
#X connect 42 0 13 0;
#X connect 42 1 29 0;
#X connect 43 0 45 0;
#X connect 44 0 42 0;
#X connect 45 0 42 2;
#X connect 46 0 47 3;
#X connect 47 0 13 0;
#X connect 47 1 29 0;
#X connect 48 0 50 0;
#X connect 49 0 47 0;
#X connect 50 0 47 2;
#X connect 51 0 52 3;
#X connect 52 0 13 0;
#X connect 52 1 29 0;
#X connect 53 0 55 0;
#X connect 54 0 52 0;
#X connect 55 0 52 2;
#X connect 56 0 57 3;
#X connect 57 0 13 0;
#X connect 57 1 29 0;
#X connect 58 0 60 0;
#X connect 59 0 57 0;
#X connect 60 0 57 2;
#X connect 61 0 62 3;
#X connect 62 0 13 0;
#X connect 62 1 29 0;
#X connect 63 0 65 0;
#X connect 64 0 62 0;
#X connect 65 0 62 2;
#X connect 66 0 67 3;
#X connect 67 0 13 0;
#X connect 67 1 29 0;
#X connect 68 0 70 0;
#X connect 69 0 67 0;
#X connect 70 0 67 2;
#X connect 71 0 72 3;
#X connect 72 0 13 0;
#X connect 72 1 29 0;
#X connect 73 0 75 0;
#X connect 74 0 72 0;
#X connect 75 0 72 2;
#X connect 76 0 77 3;
#X connect 77 0 13 0;
#X connect 77 1 29 0;
#X connect 78 0 80 0;
#X connect 79 0 77 0;
#X connect 80 0 77 2;
#X connect 81 0 82 3;
#X connect 82 0 13 0;
#X connect 82 1 29 0;
#X connect 83 0 85 0;
#X connect 84 0 82 0;
#X connect 85 0 82 2;
#X connect 86 0 87 3;
#X connect 87 0 13 0;
#X connect 87 1 29 0;
#X connect 88 0 90 0;
#X connect 89 0 87 0;
#X connect 90 0 87 2;
#X connect 91 0 92 3;
#X connect 92 0 13 0;
#X connect 92 1 29 0;
#X connect 93 0 95 0;
#X connect 94 0 92 0;
#X connect 95 0 92 2;
#X connect 96 0 97 3;
#X connect 97 0 13 0;
#X connect 97 1 29 0;
#X connect 98 0 100 0;
#X connect 99 0 97 0;
#X connect 100 0 97 2;
#X connect 101 0 102 3;
#X connect 102 0 13 0;
#X connect 102 1 29 0;
#X connect 103 0 105 0;
#X connect 104 0 102 0;
#X connect 105 0 102 2;
#X connect 106 0 107 3;
#X connect 107 0 13 0;
#X connect 107 1 29 0;
#X connect 108 0 110 0;
#X connect 109 0 107 0;
#X connect 110 0 107 2;
#X coords 0 -1 1 1 400 200 2 100 100;
