#N canvas 2 22 1438 815 10;
#X obj 101 114 cnv 15 400 180 empty empty empty 20 12 0 14 -241339
-66577 0;
#X obj 532 -96 float;
#X obj 191 119 hradio 19 1 0 16 empty empty empty 0 -8 0 10 -104026
-262144 -258113 7;
#X floatatom 536 32 5 0 0 0 - - -;
#X obj 537 3 mod 16;
#X obj 592 -97 +;
#X msg 582 -142 1;
#X msg 615 -142 -1;
#X obj 109 117 bng 15 50 50 0 empty empty empty 17 7 0 10 -191407 -258113
-1;
#X obj 54 -166 threshold~ 0.1 2 0 2;
#X obj 585 -202 loadbang;
#X obj 54 -201 inlet~ clock;
#X text 234 50 ### SEQUENCER ###;
#X obj 264 538 outlet~ cv;
#X text 103 276 cv;
#X text 102 100 clock;
#X msg 231 -143 0;
#X obj 229 -202 inlet~ reset;
#X obj 230 -170 threshold~ 0.1 2 0 2;
#X obj 754 -203 inlet~ step;
#X obj 786 -73 snapshot~;
#X floatatom 789 -46 5 0 0 0 - - -;
#X obj 796 -120 tgl 15 0 empty empty empty 17 7 0 10 -262144 -1 -1
1 1;
#X obj 795 -143 loadbang;
#X obj 788 -15 spigot;
#X obj 786 -98 metro 1;
#X floatatom 597 -8 5 0 0 0 - - -;
#X text 596 -28 steps;
#X floatatom 57 324 5 0 0 0 - - -;
#X obj 1012 572 outlet~ gate;
#X text 773 -180 listen to incoming signal and change step accordingly
;
#N canvas 0 22 871 351 (subpatch) 0;
#X array seq1 16 float 2;
#X coords 0 1 16 -1 305 120 2 0 0;
#X restore 191 158 graph;
#X obj 89 368 tabread seq1;
#X floatatom 141 404 5 0 0 0 - - -;
#X obj 250 476 sig~;
#X obj 215 428 * 1;
#X connect 1 0 4 0;
#X connect 1 0 5 0;
#X connect 2 0 28 0;
#X connect 3 0 2 0;
#X connect 4 0 3 0;
#X connect 5 0 1 1;
#X connect 6 0 5 1;
#X connect 7 0 5 1;
#X connect 8 0 1 0;
#X connect 9 0 8 0;
#X connect 10 0 6 0;
#X connect 11 0 9 0;
#X connect 16 0 1 0;
#X connect 17 0 18 0;
#X connect 18 0 16 0;
#X connect 19 0 20 0;
#X connect 20 0 21 0;
#X connect 21 0 24 1;
#X connect 21 0 24 0;
#X connect 22 0 25 0;
#X connect 23 0 22 0;
#X connect 25 0 20 0;
#X connect 26 0 4 1;
#X connect 28 0 32 0;
#X connect 32 0 33 0;
#X connect 33 0 35 0;
#X connect 34 0 13 0;
#X connect 35 0 34 0;
#X coords 0 -1 1 1 400 200 2 100 100;
